/* XPM */
static char *d1c1cd29312c40a7aaa9303e9f45f167ZabPErP42WKjDrSf[] = {
/* columns rows colors chars-per-pixel */
"64 64 9 1 ",
"  c black",
". c #C80000",
"X c #F8FC00",
"o c #074DA8",
"O c #006CF8",
"+ c #4878D8",
"@ c #00A8F8",
"# c #4890D8",
"$ c #20E8F8",
/* pixels */
"+++#+++++++++++++++#+++++++++++++++#+++++++++++++++#++++++++++++",
"++++#+++++++++++++++#+++++++++++++++#+++++++++++++++#+++++++++++",
"++++#+++++++++++++++#+++++++++++++++#+++++++++++++++#+++++++++++",
"++++##++++++++++++++##++++++++++++++##++++++++++++++##++++++++++",
"+++++##++++++++++++++##++++++++++++++##++++++++++++++##+++++++++",
"+++++##++++++++++++++##++++++++++++++##++++++++++++++##+++++++++",
"+++++###+++++++++++++###+++++++++++++###+++++++++++++###++++++++",
"+++++####++++++++++++####++++++++++++####++++++++++++####+++++++",
"+++++####++++++++++++####++++++++++++####++++++++++++####+++++++",
"+++++#####+++++++++++#####+++++++++++#####+++++++++++#####++++++",
"++++++######++++++++++######++++++++++######++++++++++######++++",
"++++++########++++++++########++++++++########++++++++########++",
"+++++++#########+++++++#########+++++++#########+++++++#########",
"##++++++++########++++++++########++++++++########++++++++######",
"###+++++++++++++###+++++++++++++###+++++++++++++###+++++++++++++",
"++##++++++++++++++##++++++++++++++##++++++++++++++##++++++++++++",
"+++#+++++++++++++++#+++++++++++++++#+++++++++++++++#++++++++++++",
"++++#+++++++++++++++#+++++++++++++++#+++++++++++++++#+++++++++++",
"++++#+++++++++++++++#+++++++++++++++#+++++++++++++++#+++++++++++",
"++++##++++++++++++++##++++++++++++++##++++++++++++++##++++++++++",
"+++++##++++++++++++++##++++++++++++++##++++++++++++++##+++++++++",
"+++++##++++++++++++++##++++.........+##++++++++++++++##+++++++++",
"+++++###+++++++++++++###++.XXXXXXXXX.###+++++++++++++###++++++++",
"+++++####++++++++++++####++.XXXXXXXXX.###++++++++++++####+++++++",
"+++++####++++++++++++####+++.XXXXXXXX.###++++++++++++####+++++++",
"+++++#####+++++++++++###oooooXXXXXXXXX.oo#+++++++++++#####++++++",
"++++++######++++++++++ooOOOOOOX@@@@@@@@@@oo#++++++++++######++++",
"++++++########+++++++oOOOO@@@@@@@@@$$$$@@@@o##++++++++########++",
"+++++++######..#++++oOOO@@@@@@@@@@@$$$$$$$$$o###+++++++#########",
"##++++++++##.XX.##+oOOO@@@@@@@@@@@$$$  $$$$$$o####++++++++######",
"###++++++++++.XX.#oOOOO@@@@@@@@@@@$$$  $$$$$$$ +###+++++++++++++",
"++##+++++++++.XXX.OOOOO@@@@@@@@@@@$$$$$$$$$$$$ +++##++++++++++++",
"+++#+++++++++.XXXXOOOOO@@@@@@@@@@@$$$$$$       ++++#++++++++++++",
"++++#++++++++.XXXXOOOOO@@@@@@@@@@@@$$$  $$$$$$ +++++#+++++++++++",
"++++#++++++++.XXX.OOOOOO@@@@@@@@@@@$$$$$$$$ooo++++++#+++++++++++",
"++++##+++++++.XX.+ooOOOOO@@@@@@@@@@@@$$$$oo+++++++++##++++++++++",
"+++++##+++++.XX.++++ooOOO@@@@@@@@@@@@@$oo++++++++++++##+++++++++",
"+++++##++++++..++++++#oooOOOO@@@@@@oooo++++++++++++++##+++++++++",
"+++++###+++++++++++++###+oooooooooo++###+++++++++++++###++++++++",
"+++++####++++++++++++####++.X.++.X.++####++++++++++++####+++++++",
"+++++####++++++++++++####+.XXX..XXX.+####++++++++++++####+++++++",
"+++++#####+++++++++++#####+...++...++#####+++++++++++#####++++++",
"++++++######++++++++++######++++++++++######++++++++++######++++",
"++++++########++++++++########++++++++########++++++++########++",
"+++++++#########+++++++#########+++++++#########+++++++#########",
"##++++++++########++++++++########++++++++########++++++++######",
"###+++++++++++++###+++++++++++++###+++++++++++++###+++++++++++++",
"++##++++++++++++++##++++++++++++++##++++++++++++++##++++++++++++",
"+++#+++++++++++++++#+++++++++++++++#+++++++++++++++#++++++++++++",
"++++#+++++++++++++++#+++++++++++++++#+++++++++++++++#+++++++++++",
"++++#+++++++++++++++#+++++++++++++++#+++++++++++++++#+++++++++++",
"++++##++++++++++++++##++++++++++++++##++++++++++++++##++++++++++",
"+++++##++++++++++++++##++++++++++++++##++++++++++++++##+++++++++",
"+++++##++++++++++++++##++++++++++++++##++++++++++++++##+++++++++",
"+++++###+++++++++++++###+++++++++++++###+++++++++++++###++++++++",
"+++++####++++++++++++####++++++++++++####++++++++++++####+++++++",
"+++++####++++++++++++####++++++++++++####++++++++++++####+++++++",
"+++++#####+++++++++++#####+++++++++++#####+++++++++++#####++++++",
"++++++######++++++++++######++++++++++######++++++++++######++++",
"++++++########++++++++########++++++++########++++++++########++",
"+++++++#########+++++++#########+++++++#########+++++++#########",
"##++++++++########++++++++########++++++++########++++++++######",
"###+++++++++++++###+++++++++++++###+++++++++++++###+++++++++++++",
"++##++++++++++++++##++++++++++++++##++++++++++++++##++++++++++++"
};
