/* XPM */
static char *_1b1767b2b784c31baed2d5fd45beca40Cv0PXqMscVp3OKA[] = {
/* columns rows colors chars-per-pixel */
"64 64 16 1 ",
"  c black",
". c #645D77",
"X c #5246B3",
"o c #4878D8",
"O c #6E62C4",
"+ c #7679D8",
"@ c #6171EB",
"# c #7867FF",
"$ c #7586AF",
"% c #4890D8",
"& c #6180EB",
"* c #99A4FF",
"= c #B0B5FF",
"- c #AFC6FF",
"; c #D1CDFF",
": c #D1DEFF",
/* pixels */
"ooo%ooooooooooooooo%ooooooooooooooo%ooooooooooooooo%oooooooooooo",
"oooo%ooooooooooooooo%ooooooooooooooo%ooooooooooooooo%ooooooooooo",
"oooo%ooooooooooooooo%ooooooooooooooo%ooooooooooooooo%ooooooooooo",
"oooo%%oooooooooooooo%%oooooooooooooo%%oooooooooooooo%%oooooooooo",
"ooooo%%oooooooooooooo%%oooooooooooooo%%oooooooooooooo%%ooooooooo",
"ooooo%%oooooooooooooo%%oooooooooooooo%%oooooooooooooo%%ooooooooo",
"ooooo%%%ooooooooooooo%%%ooooooooooooo%%%ooooooooooooo%%%oooooooo",
"ooooo%%%%oooooooooooo%%%%oooooooooooo%%%%oooooooooooo%%%%ooooooo",
"ooooo%%%%oooooooooooo%%%%oooooooooooo%%%%oooooooooooo%%%%ooooooo",
"ooooo%%%%%ooooooooooo%%%%%ooooooooooo%%%%%ooooooooooo%%%%%oooooo",
"oooooo%%%%%%oooooooooo%%%%%%oooooooooo%%%%%%oooooooooo%%%%%%oooo",
"oooooo%%%%%%%%oooooooo%%%%%%%%oooooooo%%%%%%%%oooooooo%%%%%%%%oo",
"ooooooo%%%%%%%%%ooooooo%%%%%%%%%ooooooo%%%%%%%%%ooooooo%%%%%%%%%",
"%%oooooooo%%%%%%%%oooooooo%%%%%%%%oooooooo%%%%%%%%oooooooo%%%%%%",
"%%%ooooooooooooo%%%ooooooooooooo%%%ooooooooooooo%%%ooooooooooooo",
"oo%%oooooooooooooo%%oooooooooooooo%%oooooooooooooo%%oooooooooooo",
"ooo%ooooooooooooooo%oooooo    ooooo%ooooooooooooooo%oooooooooooo",
"oooo%ooooooooooooooo%ooooo ## oooooo%ooooooooooooooo%ooooooooooo",
"oooo%ooooooooooooooo%ooooo ###  oooo%ooooooooooooooo%ooooooooooo",
"oooo%%oooooooooooooo%%oooo ##### ooo%%oooooooooooooo%%oooooooooo",
"ooooo%%oooooooooooooo%%ooo ##### oooo%%oooooooooooooo%%ooooooooo",
"ooooo%%oooooooooooooo%%ooo ######  oo%%oooooooooooooo%%ooooooooo",
"ooooo%%%ooooooooooooo%%%o ########        ooooooooooo%%%oooooooo",
"ooooo%%%%oooooooooooo%%  ################ ooooooooooo%%%%ooooooo",
"oooo    %oooooooooooo  ################### oooooooooo%%%%ooooooo",
"oo  ###  %ooooooooo  #####################                   ooo",
"oo ##### %%%oooooo ######################################### ooo",
"oo ###### %%%%oo  ########################################### oo",
"ooo ###### %%%% #####################   ################  ##  %%",
"%%oo  ##### %% ######################   ################  ## %%%",
"%%%ooo  ####    #####################   #################### ooo",
"oo%%ooo$ ##########################################         oooo",
"ooo%oo$: #######################################   ###### oooooo",
"oooo&*=XX#########################XXXXXXXXXXXXXX######XXXX@ooooo",
"oooo*XX######XX####################X;;;X#############Xoo:::ooooo",
"ooooX#######X@@X####################X;X############XX&ooooo::ooo",
"ooo-X######XO@o@XX###################X###########XX@@&%o$ooo:ooo",
"ooo-+X#####XO@ooo@XX###########################XX@@@@&%o$ooo:ooo",
"ooo-+X###XX@@@ooo@@@XX######################XXX@@@@oo%%%o$o:oooo",
"oooo*+XXX@@@@@ooooooo%XXX################XXX@@@oooooo%%%$oo:oooo",
"oooo@*=&&@ooooooooooo%%%%XXXX######XXXXXX@@@@@@oooooo%%%%o::oooo",
"ooooo%-:%%ooooooooooo%%%%%ooX#####X@o%%%%%ooooooooooo%%%%:oooooo",
"oooooo$$:$$$$ooooooooo%%%%%%X####X@@oo%%%%%%oooooooooo%%:%%%oooo",
"oooooo%%%:--%%oooooooo%%%%%%XX##X@@@oo%%%%%%%%oooooooo%%.%%%%%oo",
"ooooooo%%%:%-%%%ooooooo%%%%%&XXX@@@@ooo%%%%%%%%%ooooooo%%%%%%%%%",
"%%oooooooo:::%%%%%oooooooo%%&&X&&&@@oooooo%%%%%%%%oooooo-o%%%%%%",
"%%%ooooooo......:::::::ooooooooo%%%ooooooooooooo%$$$---ooo:oo.oo",
"oo%%oooooooooooooo%%oooooooooooooo%%oooo------------oo::::oo.ooo",
"ooo%ooooooooooooooo%ooooooooooooooo%ooo:::::::::::::::oooo..oooo",
"oooo%ooooooooooooooo%ooooooooooooooo%ooooooooooo...........ooooo",
"oooo%ooooooooooooooo%ooooo-........----ooooooooooooo%ooooooooooo",
"oooo%%oooooooooooooo%%oooooooooooooo%%oooooooooooooo%%oooooooooo",
"ooooo%%oooooooooooooo%%oo::::oooooooo%%oooooooooooooo%%ooooooooo",
"ooooo%%oooooooooooooo%%oooooooooooooo%%oooooooooooooo%%ooooooooo",
"ooooo%%%ooooooooooooo%%%ooooooooooooo%%%ooooooooooooo%%%oooooooo",
"ooooo%%%%oooooooooooo%%%%oooooooooooo%%%%oooooooooooo%%%%ooooooo",
"ooooo%%%%oooooooooooo%%%%oooooooooooo%%%%oooooooooooo%%%%ooooooo",
"ooooo%%%%%ooooooooooo%%%%%ooooooooooo%%%%%ooooooooooo%%%%%oooooo",
"oooooo%%%%%%oooooooooo%%%%%%oooooooooo%%%%%%oooooooooo%%%%%%oooo",
"oooooo%%%%%%%%oooooooo%%%%%%%%oooooooo%%%%%%%%oooooooo%%%%%%%%oo",
"ooooooo%%%%%%%%%ooooooo%%%%%%%%%ooooooo%%%%%%%%%ooooooo%%%%%%%%%",
"%%oooooooo%%%%%%%%oooooooo%%%%%%%%oooooooo%%%%%%%%oooooooo%%%%%%",
"%%%ooooooooooooo%%%ooooooooooooo%%%ooooooooooooo%%%ooooooooooooo",
"oo%%oooooooooooooo%%oooooooooooooo%%oooooooooooooo%%oooooooooooo"
};
