/* XPM */
static char *f65d0d40c40641a2d96404188af7df777ouQuh4EWNiPXOdk[] = {
/* columns rows colors chars-per-pixel */
"32 32 115 2 ",
"   c #19733E",
".  c #1A7541",
"X  c #1B7C42",
"o  c #1B7E44",
"O  c #1B7F44",
"+  c #227E4C",
"@  c #1B8146",
"#  c #1C8145",
"$  c #1C8448",
"%  c #1D8A4A",
"&  c #1F914F",
"*  c #20864C",
"=  c #22864E",
"-  c #20904E",
";  c #268353",
":  c #268753",
">  c #288455",
",  c #2C8459",
"<  c #2F8B5D",
"1  c #2F8C5D",
"2  c #209250",
"3  c #209450",
"4  c #219953",
"5  c #229854",
"6  c #239C55",
"7  c #239D55",
"8  c #249F57",
"9  c #23A158",
"0  c #24A158",
"q  c #24A359",
"w  c #25A55A",
"e  c #25A55B",
"r  c #26A75C",
"t  c #25A85B",
"y  c #25A85C",
"u  c #27AB5F",
"i  c #27AD5F",
"p  c #26AE5F",
"a  c #368C67",
"s  c #378E67",
"d  c #3A8C67",
"f  c #3C8E6B",
"g  c #369066",
"h  c #399169",
"j  c #3E9570",
"k  c #27AD60",
"l  c #27AF60",
"z  c #27AF61",
"x  c #28AF61",
"c  c #27B061",
"v  c #28B363",
"b  c #28B463",
"n  c #29B463",
"m  c #29B665",
"M  c #29B865",
"N  c #2ABB66",
"B  c #2ABA67",
"V  c #29BD68",
"C  c #2ABD68",
"Z  c #2ABE68",
"A  c #2BBF69",
"S  c #409572",
"D  c #429775",
"F  c #429876",
"G  c #449977",
"H  c #46967A",
"J  c #459879",
"K  c #479A7C",
"L  c #2BC069",
"P  c #2BC16A",
"I  c #2BC36B",
"U  c #2CC56C",
"Y  c #2CC66D",
"T  c #2CC96F",
"R  c #2DC96F",
"E  c #2DCB6F",
"W  c #2DCA70",
"Q  c #2DCC71",
"!  c #2ECD71",
"~  c #2FD273",
"^  c #2FD275",
"/  c #2FD375",
"(  c #30D676",
")  c #30D877",
"_  c #31DB78",
"`  c #31DA79",
"'  c #4D9C82",
"]  c #4E9E86",
"[  c #52A289",
"{  c #56A28D",
"}  c #5BA794",
"|  c #5CA895",
" . c #5CAB98",
".. c #5EAB99",
"X. c #60AA9A",
"o. c #63AD9E",
"O. c #67B1A3",
"+. c #67B2A5",
"@. c #6EB7AD",
"#. c #72B8B1",
"$. c #74BBB4",
"%. c #76BCB6",
"&. c #7AC1BF",
"*. c #80C5C5",
"=. c #84C8C9",
"-. c #88CBD0",
";. c #8ECFD7",
":. c #94D4DE",
">. c #95D4E0",
",. c #9CDAE8",
"<. c #9EDBEB",
"1. c #A2DEEF",
"2. c #A4DFF2",
"3. c #A5E1F4",
"4. c #A6E1F5",
/* pixels */
"4.4.4.4.4.4.4.4.4.4.4.4.4.4.4.4.4.4.4.4.4.4.4.4.4.4.4.4.4.4.4.4.",
"4.4.4.4.4.4.4.4.4.4.4.4.4.4.4.4.4.4.4.4.4.4.4.4.4.4.4.4.4.4.4.4.",
"4.4.4.4.4.4.4.4.4.4.4.4.4.4.4.4.4.4.4.4.4.4.4.4.4.4.4.4.4.4.4.4.",
"4.4.4.4.4.4.4.4.4.4.4.4.4.4.4.4.4.4.4.4.4.4.4.4.4.4.4.4.4.4.4.4.",
"4.4.4.4.4.4.4.4.4.4.4.4.4.4.4.4.4.4.4.4.4.4.4.4.4.4.4.4.4.4.4.4.",
"4.4.4.4.4.4.4.4.4.4.4.4.4.4.4.4.4.4.4.4.4.4.4.4.4.4.4.4.4.4.4.4.",
"4.4.4.4.4.4.4.4.4.4.4.4.4.4.4.4.4.2.*.| H g 1 1 : &.4.4.4.4.4.4.",
"4.4.4.4.4.4.4.4.4.4.4.4.4.4.4.-.] : & q p M M I r F 4.4.4.4.4.4.",
"4.4.4.4.4.4.4.4.4.4.4.4.4.:.f % t L E / ~ Q Q ^ b h 4.4.4.4.4.4.",
"4.4.4.4.4.4.4.4.4.4.4.4.O.@ t Q ( Q Y Y Y Y T ~ v K 4.4.4.4.4.4.",
"4.4.4.4.4.4.4.4.4.4.4.%.& T ^ R Y R R T T T T ~ b s 2.2.4.4.4.4.",
"4.4.4.4.4.4.-.{ } ;.4.X.r ` W Y L Z M b v p p c p % : *.4.4.4.4.",
"4.4.4.4.4.#.$ y 9 X >.-.# Z Z m v u r r 9 q q 9 r x 7 o $.2.4.4.",
"4.4.4.4.$.O L ( ) c , s 2 y x y p u z r q r r r q r x q o =.4.4.",
"4.4.4.O.O Z ^ Y Y / c 6 m p x p v c r r r r e e r z y x 5 h >.4.",
"4.4.O.O Z ^ Y Y Y Y Z b z z p x z c t q y e e y 6 - q y y $ +.4.",
"4.O.@ Z ~ Y Y Y W Z r p p x x y p x r q r r r r $   & t c - G 4.",
"4.h t _ Y Y Y Y W M t x u M M b x p r 7 0 r r q & # 4 y p 3 j 4.",
"4.[ & ^ W Y Y Y W Z r x i R Q T Y L m m b i r q r r t r i 2 F 4.",
"4.>.f 6 ^ R Y Y Y Y v p v L R R Y R R R Q N 9 r q t q t p %  .4.",
"4.4.,.< 6 ^ Q Y Y Q L y b v m L T T W R Q v 0 r 9 r r p q : =.4.",
"4.4.4.2.d 6 ~ Q / Y - @ r m v p b N L Y I y q r r r r p # +.4.4.",
"4.4.4.4.4.H 5 W L % X.*.; % r t p e x p r q r q q p t * S 4.4.4.",
"4.4.4.4.4.4.o.# O @.4.2.4.O.. b W m x y r q q r t 7 # K 4.4.4.4.",
"4.4.4.4.4.4.4.1.1.4.4.4.4.4...- N ( ( R Y U U E L O &.4.4.4.4.4.",
"4.4.4.4.4.4.4.4.4.4.4.4.4.4.1.o.+ & r N Y Y Y R t F 4.4.4.4.4.4.",
"4.4.4.4.4.4.4.4.4.4.4.4.4.4.4.4.<.#.' 1 * = = * : *.4.4.4.4.4.4.",
"4.4.4.4.4.4.4.4.4.4.4.4.4.4.4.4.4.3.4.4.4.4.4.4.4.4.4.4.4.4.4.4.",
"4.4.4.4.4.4.4.4.4.4.4.4.4.4.4.4.4.4.4.4.4.4.4.4.4.4.4.4.4.4.4.4.",
"4.4.4.4.4.4.4.4.4.4.4.4.4.4.4.4.4.4.4.4.4.4.4.4.4.4.4.4.4.4.4.4.",
"4.4.4.4.4.4.4.4.4.4.4.4.4.4.4.4.4.4.4.4.4.4.4.4.4.4.4.4.4.4.4.4.",
"4.4.4.4.4.4.4.4.4.4.4.4.4.4.4.4.4.4.4.4.4.4.4.4.4.4.4.4.4.4.4.4."
};
