/* XPM */
static char *d5a752b0592048bbdcde24c9be322390qoCvYTc8XUR4gHBk[] = {
/* columns rows colors chars-per-pixel */
"32 32 229 2 ",
"   c #8A8469",
".  c #8A856B",
"X  c #8B856B",
"o  c #91896E",
"O  c #918A6F",
"+  c #928C70",
"@  c #938F74",
"#  c #969075",
"$  c #989175",
"%  c #999376",
"&  c #9A9376",
"*  c #9B9577",
"=  c #92947F",
"-  c #9B9578",
";  c #9E987A",
":  c #9F987A",
">  c #A19C7F",
",  c #A29C7E",
"<  c #A39C7E",
"1  c #A49D7E",
"2  c #A59E7E",
"3  c #979A85",
"4  c #9E9D83",
"5  c #9B9D84",
"6  c #9E9F85",
"7  c #A39E81",
"8  c #9CA08B",
"9  c #9BA08C",
"0  c #9EA38E",
"q  c #9FA58F",
"w  c #9FA590",
"e  c #9BA696",
"r  c #9FA895",
"t  c #9FAA96",
"y  c #9DA999",
"u  c #9FAB9A",
"i  c #A6A081",
"p  c #A1A084",
"a  c #A0A086",
"s  c #A1A187",
"d  c #A1A287",
"f  c #A9A382",
"g  c #AAA382",
"h  c #ABA483",
"j  c #ABA484",
"k  c #ABA584",
"l  c #ACA584",
"z  c #ADA585",
"x  c #ADA685",
"c  c #AEA685",
"v  c #AEA786",
"b  c #A1A38A",
"n  c #A1A48B",
"m  c #A4A489",
"M  c #A1A38C",
"N  c #A9A588",
"B  c #B0A887",
"V  c #B1A988",
"C  c #B2AA89",
"Z  c #B2AB89",
"A  c #B3AB89",
"S  c #B3AB8A",
"D  c #B2AC8B",
"F  c #B3AD8B",
"G  c #B4AC8A",
"H  c #B4AC8B",
"J  c #B6AD8B",
"K  c #B6AE8B",
"L  c #B7AF8C",
"P  c #B6AF8D",
"I  c #B8AF8D",
"U  c #B7B08D",
"Y  c #B9B18E",
"T  c #BAB18E",
"R  c #B8B28F",
"E  c #A1AB9A",
"W  c #A0AC9B",
"Q  c #A1AC9C",
"!  c #A4AF9C",
"~  c #B6B291",
"^  c #B5B293",
"/  c #BBB390",
"(  c #BBB490",
")  c #BDB491",
"_  c #BDB591",
"`  c #BFB692",
"'  c #BEB792",
"]  c #BFB894",
"[  c #9EAEA1",
"{  c #9AAFA6",
"}  c #9CB1A9",
"|  c #9EB2A8",
" . c #9FB4AC",
".. c #9FB7B0",
"X. c #9FB9B5",
"o. c #9FBCB9",
"O. c #9EBCBA",
"+. c #A1AFA2",
"@. c #A2B0A1",
"#. c #A1B5AD",
"$. c #A3B8AE",
"%. c #A0B9B5",
"&. c #A1BAB4",
"*. c #A1BDB9",
"=. c #A2BCB8",
"-. c #A1BDBB",
";. c #A0BEBC",
":. c #C2B996",
">. c #C3BB97",
",. c #C4BB96",
"<. c #C6BD98",
"1. c #C6BE98",
"2. c #C7BE99",
"3. c #C8BF99",
"4. c #C8C09A",
"5. c #C9C09A",
"6. c #CAC29C",
"7. c #CBC29C",
"8. c #CBC39C",
"9. c #CDC49D",
"0. c #D0C7A0",
"q. c #D1C8A0",
"w. c #D2C9A1",
"e. c #D4CCA4",
"r. c #D6CDA4",
"t. c #D6CDA5",
"y. c #D7CEA5",
"u. c #D7CEA6",
"i. c #D7CFA6",
"p. c #D9CFA6",
"a. c #D9D0A7",
"s. c #DAD1A7",
"d. c #DAD1A8",
"f. c #DBD2A8",
"g. c #DBD3AA",
"h. c #DCD3A9",
"j. c #DDD3A9",
"k. c #DCD4AA",
"l. c #DED4AB",
"z. c #DFD6AB",
"x. c #DFD6AC",
"c. c #E2D7AD",
"v. c #E1D8AD",
"b. c #E3DAAE",
"n. c #E3DAAF",
"m. c #E5DBB0",
"M. c #E6DCB1",
"N. c #E9DFB3",
"B. c #E9DFB4",
"V. c #E9E0B4",
"C. c #EBE1B4",
"Z. c #EBE1B5",
"A. c #ECE2B5",
"S. c #EDE3B6",
"D. c #EEE3B7",
"F. c #EEE4B7",
"G. c #EFE4B7",
"H. c #EFE5B7",
"J. c #EFE5B8",
"K. c #F0E6B8",
"L. c #F0E6B9",
"P. c #F1E6B9",
"I. c #F1E7B9",
"U. c #F2E7B9",
"Y. c #F1E7BA",
"T. c #F2E8BA",
"R. c #F3E8BA",
"E. c #F3E8BB",
"W. c #F3E9BB",
"Q. c #F4E8BB",
"!. c #F4E9BB",
"~. c #F4EABC",
"^. c #F5EBBC",
"/. c #F6EBBD",
"(. c #F6ECBD",
"). c #F6ECBE",
"_. c #F7ECBE",
"`. c #F7EDBE",
"'. c #F8ECBE",
"]. c #F8EEBF",
"[. c #F9EEBF",
"{. c #F9EFBF",
"}. c #9EC0C2",
"|. c #A3C3C3",
" X c #A4C4C3",
".X c #A2C5C7",
"XX c #A2C6C9",
"oX c #A3CCD3",
"OX c #A4CDD3",
"+X c #A4CFD6",
"@X c #A4CFD7",
"#X c #A5CFD8",
"$X c #A4D0D9",
"%X c #A6D3DD",
"&X c #A4D4DE",
"*X c #A5D4DE",
"=X c #A6D5E0",
"-X c #A5D7E4",
";X c #A5D7E5",
":X c #A5D8E5",
">X c #A6DAE8",
",X c #A5DBEA",
"<X c #A6DCED",
"1X c #A6DDEE",
"2X c #A6DEEF",
"3X c #A6DFF1",
"4X c #A6E0F3",
"5X c #A6E0F4",
"6X c #A6E1F5",
"7X c #F9EEC0",
"8X c #F9EFC0",
"9X c #FAF0C0",
"0X c #FAF0C1",
"qX c #FBF0C1",
"wX c #FBF1C1",
"eX c #FBF1C2",
"rX c #FCF1C2",
"tX c #FDF1C2",
"yX c #FCF2C2",
"uX c #FDF2C2",
"iX c #FEF3C3",
"pX c #FEF4C3",
"aX c #FEF4C4",
"sX c #FFF6C5",
"dX c #FFF7C6",
"fX c #FFF7C7",
"gX c #FFFBC9",
"hX c #FFFFD0",
"jX c #FFFFD1",
/* pixels */
"6X6X6X6X6X6X6X6X6X6X6X6X6X6X6X6X6X6X6X6X6X6X6X6X6X6X6X6X6X6X6X6X",
"6X6X6X6X6X6X6X6X6X6X6X6X6X6X6X6X6X6X6X6X6X6X6X6X6X6X6X6X6X6X6X6X",
"6X6X6X6X6X6X6X6X6X6X6X6X6X6X6X6X6X6X6X6X6X6X6X6X6X6X6X6X6X6X6X6X",
"6X6X6X6X6X6X6X6X6X6X6X6X6X6X6X6X6X6X6X6X6X6X6X6X6X6X6X6X6X6X6X6X",
"6X6X6X6X6X6X6X6X6X6X6X6X6X6X6X6X6X6X6X6X6X6X6X6X6X6X6X6X6X6X6X6X",
"6X6X6X6X6X6X6X6X6X6X6X6X6X6X6X6X6X6X6X6X6X6X6X6X6X6X6X6X6X6X6X6X",
"6X6X6X6X6X6X6X6X6X6X6X6X6X6X6X6X6X6X6X6X6X6X6X6X6X6X6X6X6X6X6X6X",
"6X6X6X6X6X6X6X6X6X6X6X6X6X6X6X6X6X6X6X6X6X6X6X6X6X6X6X6X6X6X6X6X",
"6X6X6X6X6X6X6X6X6X6X6X6X6X6X6X6X6X6X6X6X6X6X6X6X6X6X6X6X6X6X6X6X",
"6X6X6X6X6X6X6X6X6X6X6X6X6X6X6X6X6X6X6X6X6X6X6X6X6X6X6X6X6X6X6X6X",
"6X6X6X6X6X6X6X3X*X-X6X6X6X6X6X6X6X6X6X=XQ t W E r ..,X6X6X6X6X6X",
"6X6X6X6X6X6X#Xa Z f #.6X6X6X6X3X Xb b M 8.x.p.g.g.,., %.6X6X6X6X",
"6X6X6X6X6X#.k x./.J.F O.6X&.w b 7 c.1.+ z.dX`.'.8X8XC.J e 6X6X6X",
"6X6X6X6X6Xy / uX!.'.T.^ 3 R A./ % U.b.O 9.wXA.J.A.U.8X8XP  .6X6X",
"6X6X6X6X6X*X8 t.'.F.wX1.X 7.gX1.  t./.% R '.J.J.J./.W.8XB.1 |.6X",
"6X6X6X6X6X6X-.R `.wXq.% * R aXu.O 1.dXZ , J.U.U.A.Z / U.wX) [ 6X",
"6X6X6X6X6X6X+Xz F.wXq.P :.8.W.m.) 0.8Xp.J c./.U.J.f J W.8XP | 6X",
"6X6X6X6X6X6XoXB J.'.l.z j Z J.B.Z G U.B.Z ) T.T.J.U.U.uXl.4 OX6X",
"6X6X6X6X6X6XX.1.'.`./.z { y m.U.: @ b./.N = 1.uXA.U.aXA.i XX6X6X",
"6X6X6X6X6X$X4 z.gXuX8.w 6X=.g.fXD @ e.fX) }.y g.dX8Xl.1 ;.6X6X6X",
"6X6X6X6X6X2X#.v 6.' 5 -X6X-.) uX>.X 3.gXg.O.2X, b.t.* XX6X6X6X6X",
"6X6X6X6X6X6X6X+X} O.2X6X6X2X@.k N 6 ^ U.s.a 6X%X: 0 -X6X6X6X6X6X",
"6X6X6X6X6X6X6X6X6X6X4X6X6X6X6X-X$X,X+.a m ! 4X6X3X3X6X6X6X6X6X6X",
"6X6X6X6X6X6X6X6X6X6X6X6X6X6X6X6X6X6X6X6X6X6X6X6X6X6X6X6X6X6X6X6X",
"6X6X6X6X6X6X6X6X6X6X6X6X6X6X6X6X6X6X6X6X6X6X6X6X6X6X6X6X6X6X6X6X",
"6X6X6X6X6X6X6X6X6X6X6X6X6X6X6X6X6X6X6X6X6X6X6X6X6X6X6X6X6X6X6X6X",
"6X6X6X6X6X6X6X6X6X6X6X6X6X6X6X6X6X6X6X6X6X6X6X6X6X6X6X6X6X6X6X6X",
"6X6X6X6X6X6X6X6X6X6X6X6X6X6X6X6X6X6X6X6X6X6X6X6X6X6X6X6X6X6X6X6X",
"6X6X6X6X6X6X6X6X6X6X6X6X6X6X6X6X6X6X6X6X6X6X6X6X6X6X6X6X6X6X6X6X",
"6X6X6X6X6X6X6X6X6X6X6X6X6X6X6X6X6X6X6X6X6X6X6X6X6X6X6X6X6X6X6X6X",
"6X6X6X6X6X6X6X6X6X6X6X6X6X6X6X6X6X6X6X6X6X6X6X6X6X6X6X6X6X6X6X6X",
"6X6X6X6X6X6X6X6X6X6X6X6X6X6X6X6X6X6X6X6X6X6X6X6X6X6X6X6X6X6X6X6X"
};
