/* XPM */
static char *ec4ae0ad68894408ff866b0258f6536aRnV7v7am4KymJnYz[] = {
/* columns rows colors chars-per-pixel */
"32 32 20 1 ",
"  c #C80000",
". c #F80000",
"X c #F8FC00",
"o c #000088",
"O c #0024D8",
"+ c #006CF8",
"@ c #4878D8",
"# c #7297BC",
"$ c #00A8F8",
"% c #4890D8",
"& c #20E8F8",
"* c #878FB9",
"= c #C08FA2",
"- c #DBE1A2",
"; c #8791DA",
": c #8FA3DA",
"> c #8FACDA",
", c #879FEA",
"< c #87B6EA",
"1 c #F8FCF8",
/* pixels */
"@@@%@@@@@@@@@@@@@@@%@@@@@@@@@@@@",
"@@@@%@@@@@@@@@@@@@@@%@@@@@@@@@@@",
"@@@@%@@@@@@@@@@@@@@@%@@@@@@@@@@@",
"@@@@%%@@@@@@@@@@@@@@%%@@@@@@@@@@",
"@@@@@%%@@@@@@@@@@@@@@%%@@@@@@@@@",
"@@@@@%%@@@@@@@@@@@@@@%%@@@@@@@@@",
"@@@@@%%%@@@@@@@@@@@@@%%%@@@@@@@@",
"@@@@@%%%%@@@@@@   @@@%%%%@@@@@@@",
"@@@@@%%%%@@@@   XX @@%%%%@@@@@@@",
"@@@@@%%%%%@@  XXXXX @%%%%%@@@@@@",
"@@@@@@%%  %%@O+$$$+o@@%%%%%%@@@@",
"@@@@@@% XX %o+$$&&&+o@%%%%%%%%@@",
"@@@@@@@ XXXoO$$&&11&+  %%%%%%%%%",
"%%@@@@@ .XX +$$&11o1+X @@@%%%%%%",
"%%%@@@@@ .X +$$&1111+X @@@@@@@@@",
"@@%%@@# .XX O+$$&11+O @@@@@@@@@@",
"@@@%@#@=---*;;,<<<,;*@@###@@@@@@",
"@@@@%#@=--=:*;;;;;;*>@@@@#@@@@@@",
"@@@@%#@@==@@:******@%@@@@#@@@@@@",
"@@@@%#@@@@@@@=--=@@@%%@@##@@@@@@",
"@@@@@##@@@@@@=--:@@@@%%#@@@@@@@@",
"@@@@@%%###@@@@@@@@@@###@@#@@@@@@",
"@@@@@%%%@@@@@@@@@@@#@%%%#@@@@@@@",
"@@@@@%%%%#####@@@@@@@####@@@@@@@",
"@@@@@%%%%@@@@@@@@@@@@%%%%@@@@@@@",
"@@@@@%%%%%@@@@@@@@@@@%%%%%@@@@@@",
"@@@@@@%%%%%%@@@@@@@@@@%%%%%%@@@@",
"@@@@@@%%%%%%%%@@@@@@@@%%%%%%%%@@",
"@@@@@@@%%%%%%%%%@@@@@@@%%%%%%%%%",
"%%@@@@@@@@%%%%%%%%@@@@@@@@%%%%%%",
"%%%@@@@@@@@@@@@@%%%@@@@@@@@@@@@@",
"@@%%@@@@@@@@@@@@@@%%@@@@@@@@@@@@"
};
