/* XPM */
static char *_43f7d09230d4dfa9699785c2963ee28MDHB9ufq1bcEUASv[] = {
/* columns rows colors chars-per-pixel */
"32 32 118 2 ",
"   c #FF9900",
".  c #F99D0F",
"X  c #FA9D0F",
"o  c #FA9D10",
"O  c #F3A11F",
"+  c #EEA72E",
"@  c #F4A220",
"#  c #F0A72F",
"$  c #F0A82F",
"%  c #E8AA3D",
"&  c #E8AB3E",
"*  c #EAAC3F",
"=  c #EBAC3F",
"-  c #DDB35C",
";  c #EFAE40",
":  c #F0AE40",
">  c #E3B04D",
",  c #E6B24F",
"<  c #E7B24F",
"1  c #EDB450",
"2  c #E1B65F",
"3  c #E2B75F",
"4  c #D8B96C",
"5  c #DCBC6F",
"6  c #DDBD6F",
"7  c #DEBD6F",
"8  c #D2BD7B",
"9  c #D7C17E",
"0  c #D8C27F",
"q  c #BBCFB8",
"w  c #BCCFB8",
"e  c #CDC18A",
"r  c #D2C68E",
"t  c #C7C69A",
"y  c #CAC99C",
"u  c #CDCB9E",
"i  c #CFCC9F",
"p  c #C2CAA9",
"a  c #C8D0AE",
"s  c #C9D1AF",
"d  c #C4D5BE",
"f  c #B5D3C7",
"g  c #B6D3C7",
"h  c #B6D4C8",
"j  c #BAD7CA",
"k  c #BBD8CB",
"l  c #BFDACE",
"z  c #AFD8D6",
"x  c #B5DCDB",
"c  c #B9E0DD",
"v  c #BFE1DE",
"b  c #ABDDE7",
"n  c #A4DFF4",
"m  c #B5E4ED",
"M  c #B7E6EF",
"N  c #A4E0F3",
"B  c #A4E0F4",
"V  c #A5E0F4",
"C  c #A5E0F5",
"Z  c #A5E1F5",
"A  c #A6E1F4",
"S  c #A6E0F5",
"D  c #A6E1F5",
"F  c #A7E1F5",
"G  c #A6E2F5",
"H  c #A7E2F5",
"J  c #A7E2F6",
"K  c #A8E2F6",
"L  c #A8E3F6",
"P  c #A8E3F7",
"I  c #A9E3F7",
"U  c #A9E4F7",
"Y  c #AAE4F7",
"T  c #AAE4F8",
"R  c #AAE5F8",
"E  c #ABE5F8",
"W  c #ABE5F9",
"Q  c #ABE6F9",
"!  c #ACE6F9",
"~  c #ACE6FA",
"^  c #ADE6FA",
"/  c #ACE7FA",
"(  c #ADE7FA",
")  c #AEE7FA",
"_  c #AEE7FB",
"`  c #ACE8FB",
"'  c #ADE8FB",
"]  c #AEE8FB",
"[  c #AFE8FB",
"{  c #ADE8FC",
"}  c #AEE8FC",
"|  c #AFE8FC",
" . c #AEE9FC",
".. c #AFE9FC",
"X. c #B0E9FB",
"o. c #B0E8FC",
"O. c #B0E9FC",
"+. c #B1E9FC",
"@. c #B1EAFC",
"#. c #B0EAFD",
"$. c #B1EAFD",
"%. c #B2EAFC",
"&. c #B2EAFD",
"*. c #B3EAFD",
"=. c #B2EBFD",
"-. c #B2EBFE",
";. c #B5EBFD",
":. c #B6EBFD",
">. c #B7ECFD",
",. c #B4ECFF",
"<. c #B8ECFE",
"1. c #B9ECFE",
"2. c #BBEDFE",
"3. c #BDEDFE",
"4. c #BFEEFE",
"5. c #C4EFFF",
"6. c #C4F0FF",
"7. c #CCF2FF",
/* pixels */
"D D D D D ..$.$.$.[ $.[ $.[ 5 & ; - m $.$.$.X.$.$.$.X.D D D D D ",
"D D D D I $.$.[ [ $.[ $.$.u         5 ..^ $.$.^ X.$.Y N D D D D ",
"D D D D ^ $.[ $.$.[ $.[ [ o           $.o.X.$.o.$.^ D D D D D D ",
"D D D D X.$...[ [ $.[ $.$.            { $.X.o.$.$.D n D D D D D ",
"D D n ^ $.[ $.X.....$.[ $.            ....$.$.$.T n D D D D D D ",
"D D N ^ $.$.5.5.;...[ $.[ o           ......$.j q w D D D D D D ",
"D D I X.c < = : 5 ..$.[ $.*         # ..$.M #       > n D D D D ",
"D n ^ $.*         2 [ $.[ 5         ; ..$.y           y D D D D ",
"N D X...            r $.$.p         9 [ Y O           8 D D D D ",
"N ^ $.;.              d X.$.O       k D f             t D D D D ",
"D $...;.1             o m $.2     * B D -           + D D D D D ",
"X.$.$...v *             5 [ x . . f D D .           h D D D D D ",
"$.X.[ $.[ ..5             b n D D D D h           8 D D D D n ^ ",
"[ $.$.[ ....$.r           t D D D D D e         - D D D D n ^ =.",
"$.[ $.$.$.X.^ D z %       8 D D D D D 8       - D D D N N ^ =.[ ",
"[ $.[ $...I N D D D p > > h D D D D D 8   + p D D D N D [ $.[ $.",
"$...$.^ D B D D D D D D D D D - + b D b q D D D n N P ..$.$.[ $.",
"..=.^ B D D D D D D D D D D p     4 D D D D N D Y ^ $...$...$.[ ",
"$.^ B D D D D D D D D D D b .       h D B D I [ X.$.$.[ [ $.[ $.",
"^ D n D D D D D D D D D n 5         + I R [ $.$.$.[ [ [ ..[ $.[ ",
"D D D D D D D D D b q 8 &             + 5 s m $.$.X.<.4.$.....$.",
"D D D D D D D D >                             , [ $.6.7.<.[ $.Y ",
"D D D D D D D D +                             $ $.[ ;.<.$...^ D ",
"D D D D D n D D b .                         o m [ $.[ ` $.$.Y N ",
"D D D D $.^ D D N g X                     o l $.$.[ $.[ $.^ D D ",
"D D N I $.$.D D n ^ i                     u [ [ [ $.X.$.$.I N D ",
"D D D D Y D D n ^ $.$.                    $.[ $.$.[ $.$.^ D D D ",
"D D D D D D n I $.$.^                     [ $.[ [ $.[ $.^ D D D ",
"D D D D D N D [ $.$.d                     d ..$.[ $.$.$.R n D D ",
"D D D D D N R =.[ $.d       o 2 2 o       d $.[ $.[ $.X.D D D D ",
"D D D D D D $.$.$.[ l   @ 9 m [ [ m 9 @   l [ $.[ $.$.^ D D D D ",
"D D D D D ^ $.$.[ $...$.[ $.$.[ $.$.[ $.$.[ $.[ $.[ $.Y n D D D "
};
