/* XPM */
static char *result[] = {
/* columns rows colors chars-per-pixel */
"64 64 6 1 ",
"  c #403848",
". c #E0C858",
"X c #4878D8",
"o c #4890D8",
"O c #F8E8A0",
"+ c #B8C2DC",
/* pixels */
"XXXoXXXXXXXXXXXXXXXoXXXXXXX O XXXXXoXXXXXXXXXXXXXXXoXXXXXXXXXXXX",
"XXXXoXXXXXXXXXXXXXXXoXXXXXX O XXXXXXoXXXXXXXXXXXXXXXoXXXXXXXXXXX",
"XXXXoXXXXXXXXXXXXXXXoXXXXXX OO XXXXXoXXXXXXXXXXXXXXXoXXXXXXXXXXX",
"XXXXooXXXXXXXXXXXXXXooXXXXX ..O XXX ooXXXXXXXXXXXXXXooXXXXXXXXXX",
"XXXXXooXXXXXXXXXXXXXXooXXXX . .O X O ooXXXXXXXXXXXXXXooXXXXXXXXX",
"XXXXXooXXXXXXXXXXXXXXooXXXX .  .O  O ooXXXXXXXXXXXXXXooXXXXXXXXX",
"XXXXXoooXXXXXXXXXXXXXoooXXX . X .O O oooXXXXXXXXXXXXXoooXXXXXXXX",
"XXXXXooooXXXXXXXXXXXXooooXX .O X . O ooooXXXXXXXXXXXXooooXXXXXXX",
"XXXXXooooXXXXXXXXXXXXooooXX ..O X  O ooooXXXXXXXXXXXXooooXXXXXXX",
"XXXXXoooooXXXXXXXXXXXoooooX . .O X O oooooXXXXXXXXXXXoooooXXXXXX",
"XXXXXXooooooXXXXXXXXXXooooo .  .O  . XooooooXXXXXXXXXXooooooXXXX",
"XXXXXXooooooooXXXXXXXXooooo . X .O . XooooooooXXXXXXXXooooooooXX",
"XXXXXXXoooooooooXXXXXXXoooo .O o . . XXoooooooooXXXXXXXooooooooo",
"ooXXXXXXXXooooooooXXXXXXXXo ..O o  . XXXXXooooooooXXXXXXXXoooooo",
"oooXXXXXXXXXXXXXoooXXXXXXXX . .O o . XXXXXXXXXXXoooXXXXXXXXXXXXX",
"XXooXXXXXXXXXXXXXXooXXXXXXX .  .O  . XXXXXXXXXXXXXooXXXXXXXXXXXX",
"XXXoXXXXXXXXXXXXXXXoXXXXXXX . X .O . XXXXXXXXXXXXXXoXXXXXXXXXXXX",
"XXXXoXXXXXXXXXXXXXXXoXXXXXX .O X . . XXXXXXXXXXXXXXXoXXXXXXXXXXX",
"XXXXoXXXXXXXXXXXXXXXoXXXXXX ..O X  . XXXXXXXXXXXXXXXoXXXXXXXXXXX",
"XXXXooXXXXXXXXXXXXXXooXXXXX . .O X . oXXXXXXXXXXXXXXooXXXXXXXXXX",
"XXXXXooXXXXXXXXXXXXXXooXXXX .  .O  O ooXXXXXXXXXXXXXXooXXXXXXXXX",
"XXXXXooXXXXXXXXXXXXXXooXXXX . X .O O ooXXXXXXXXXXXXXXooXXXXXXXXX",
"XXXXXoooXXXXXXXXXXXXXoooXXX .O X . . oooXXXXXXXXXXXXXoooXXXXXXXX",
"XXXXXooooXXXXXXXXXXXXooooXX ..O X  . ooooXXXXXXXXXXXXooooXXXXXXX",
"XXXXXooooXXXXXXXXXXXXooooXX . .O X . ooooXXXXXXXXXXXXooooXXXXXXX",
"XXXXXoooooXXXXXXXXXXXoooooo .  .O  . oooooXXXXXXXXXXXoooooXXXXXX",
"XXXXXXooooooXXXXXXXXXXooooo . o .O . XooooooXXXXXXXXXXooooooXXXX",
"XXXXXXooooooooXXXXXXXXooooo .O X . . XooooooooXXXXXXXXooooooooXX",
"XXXXXXXoooooooooXXXXXXXoooo ..O X  . XXoooooooooXXXXXXXooooooooo",
"ooXXXXXXXXooooooooXXXXXXXXo . .O X . oXXXXooooooooXXXXXXXXoooooo",
"oooXXXXXXXXXXXXXoooXXXXXXXX .  .O  . ooXXXXXXXXXoooXXXXXXXXXXXXX",
"XXooXXXXXXXXXXXXXXooXXXXXXX . X .O . oXXXXXXXXXXXXooXXXXXXXXXXXX",
"XXXoXXXXXXXXXXXXXXXoXXXXXXX OO X . . XXXXXXXXXXXXXXoXXXXXXXXXXXX",
"XXXXoXXXXXXXXXXXXXXXoXXXXXX O.O X  . XXXXXXXXXXXXXXXoXXXXXXXXXXX",
"XXXXoXXXXXXXXXXXXXXXoXXXXXX O .O X . XXXXXXXXXXXXXXXoXXXXXXXXXXX",
"XXXXooXXXXXXXXXXXXXXooXXXXX .  .O  . oXXXXXXXXXXXXXXooXXXXXXXXXX",
"XXXXXooXXXXXXXXXXXXXXooXXXX . o .O O ooXXXXXXXXXXXXXXooXXXXXXXXX",
"XXXXXooXXXXXXXXXXXXXXooXXXX .O X . O ooXXXXXXXXXXXXXXooXXXXXXXXX",
"XXXXXoooXXXXXXXXXXXXXoooXXX ..O X  O oooXXXXXXXXXXXXXoooXXXXXXXX",
"XXXXXooooXXXXXXXXXXXXooooXX . .O X O ooooXXXXXXXXXXXXooooXXXXXXX",
"XXXXXooooXXXXXXXXXXXXooooXX .  .O  O ooooXXXXXXXXXXXXooooXXXXXXX",
"XXXXXoooooXXXXXXXXXXXoooooX . X .O O oooooXXXXXXXXXXXoooooXXXXXX",
"XXXXXXooooooXXXXXXXXXXooooo .O X . . XooooooXXXXXXXXXXooooooXXXX",
"XXXXXXooooooooXXXXXXXXooooo ..O X  . XooooooooXXXXXXXXooooooooXX",
"XXXXXXXoooooooooXXXXXXXoooo . .O X . XXoooooooooXXXXXXXooooooooo",
"ooXXXXXXXXooooooooXXXXXXXXo .  .O  . XXXXXooooooooXXXXXXXXoooooo",
"oooXXXXXXXXXXXXXoooXXXXXXXX . o .O . XXXXXXXXXXXoooXXXXXXXXXXXXX",
"XXooXXXXXXXXXXXXXXooXXXXXXX . oX . . XXXXXXXXXXXXXooXXXXXXXXXXXX",
"XXXoXXXXXXXXXXXXXXXoXXXXXXX . ooX  . XXXXXXXXXXXXXXoXXXXXXXXXXXX",
"XXXXoXXXXXXXXXXXXXXXoXXXXXX .O Xoo . XXXXXXXXXXXXXXXoXXXXXXXXXXX",
"XXXXoXXXXXXXXXXXXXXXoXXXXXX ..O Xo . XXXXXXXXXXXXXXXoXXXXXXXXXXX",
"XXXXooXXXXXXXXXXXXXXooXXXXX . .O X . oXXXXXXXXXXXXXXooXXXXXXXXXX",
"XXXXXooXXXXXXXXXXXXXXooXXXX .  .O  O ooXXXXXXXXXXXXXXooXXXXXXXXX",
"XXXXXooXXXXXXXXXXXXXXooXXXX . X .O O ooXXXXXXXXXXXXXXooXXXXXXXXX",
"XXXXXoooXXXXXXXXXXXXXoooXXX .O X . . oooXXXXXXXXXXXXXoooXXXXXXXX",
"XXXXXooooXXXXXXXXXXXXooooXX ..O X  . ooooXXXXXXXXXXXXooooXXXXXXX",
"XXXXXooooXXXXXXXXXXXXooooXX . .O X . ooooXXXXXXXXXXXXooooXXXXXXX",
"XXXXXoooooXXXXXXXXXXXooooo+ .  .O  . oooooXXXXXXXXXXXoooooXXXXXX",
"XXXXXXooooooXXXXXXXXXXooo++ . + .O . XooooooXXXXXXXXXXooooooXXXX",
"XXXXXXooooooooXXXXXXXXoooo+o+o+X . . XooooooooXXXXXXXXooooooooXX",
"XXXXXXXoooooooooXXXXXXXoooooooooX  . XXoooooooooXXXXXXXooooooooo",
"ooXXXXXXXXooooooooXXXXXXXXooooooo+ . +XXXXooooooooXXXXXXXXoooooo",
"oooXXXXXXXXXXXXXoooXXXXXXXXXXXXX++ . ++XXXXXXXXXoooXXXXXXXXXXXXX",
"XXooXXXXXXXXXXXXXXooXXXXXXXXXXXXX+o+X+XXXXXXXXXXXXooXXXXXXXXXXXX"
};
