/* XPM */
static char *ce80ab48ddf24316caa0da92b014bda1cKL2TciYnlnrNcpt[] = {
/* columns rows colors chars-per-pixel */
"32 32 6 1 ",
"  c #403848",
". c #E0C858",
"X c #4878D8",
"o c #4890D8",
"O c #F8E8A0",
"+ c #B8C2DC",
/* pixels */
"XXXoXXXXXXX O XXXXXoXXXXXXXXXXXX",
"XXXXoXXXXXX O XXXXXXoXXXXXXXXXXX",
"XXXXoXXXXXX OO XXXXXoXXXXXXXXXXX",
"XXXXooXXXXX ..O XXX ooXXXXXXXXXX",
"XXXXXooXXXX . .O X O ooXXXXXXXXX",
"XXXXXooXXXX .  .O  O ooXXXXXXXXX",
"XXXXXoooXXX . X .O O oooXXXXXXXX",
"XXXXXooooXX .O X . O ooooXXXXXXX",
"XXXXXooooXX ..O X  O ooooXXXXXXX",
"XXXXXoooooX . .O X O oooooXXXXXX",
"XXXXXXooooo .  .O  . XooooooXXXX",
"XXXXXXooooo . X .O . XooooooooXX",
"XXXXXXXoooo .O o . . XXooooooooo",
"ooXXXXXXXXo ..O o  . XXXXXoooooo",
"oooXXXXXXXX . .O o . XXXXXXXXXXX",
"XXooXXXXXXX .  .O  . XXXXXXXXXXX",
"XXXoXXXXXXX . X .O . XXXXXXXXXXX",
"XXXXoXXXXXX .O X . . XXXXXXXXXXX",
"XXXXoXXXXXX ..O X  . XXXXXXXXXXX",
"XXXXooXXXXX . .O X . oXXXXXXXXXX",
"XXXXXooXXXX .  .O  O ooXXXXXXXXX",
"XXXXXooXXXX . X .O O ooXXXXXXXXX",
"XXXXXoooXXX .O X . . oooXXXXXXXX",
"XXXXXooooXX ..O X  . ooooXXXXXXX",
"XXXXXooooXX . .O X . ooooXXXXXXX",
"XXXXXooooo+ .  .O  . oooooXXXXXX",
"XXXXXXooo++ . + .O . XooooooXXXX",
"XXXXXXoooo+o+o+X . . XooooooooXX",
"XXXXXXXoooooooooX  . XXooooooooo",
"ooXXXXXXXXooooooo+ . +XXXXoooooo",
"oooXXXXXXXXXXXXX++ . ++XXXXXXXXX",
"XXooXXXXXXXXXXXXX+o+X+XXXXXXXXXX"
};
