/* XPM */
static char *da3d2c3097854f17b147a23caa5c4376JWFkGGiL0DgzZz9J[] = {
/* columns rows colors chars-per-pixel */
"32 32 153 2 ",
"   c #1D110E",
".  c #000B18",
"X  c #0A161E",
"o  c #181A1D",
"O  c #201714",
"+  c #2C231E",
"@  c #171D22",
"#  c #1F2223",
"$  c #19282F",
"%  c #242424",
"&  c #2B2725",
"*  c #232729",
"=  c #27292B",
"-  c #2C2C2D",
";  c #3C342E",
":  c #272F33",
">  c #22353D",
",  c #2A373A",
"<  c #482D19",
"1  c #5C381F",
"2  c #6B3D1F",
"3  c #4D3C30",
"4  c #72401E",
"5  c #5B4434",
"6  c #6E4023",
"7  c #68452E",
"8  c #7D4A26",
"9  c #774829",
"0  c #7C4C2B",
"q  c #664932",
"w  c #664934",
"e  c #6A4B34",
"r  c #7B4F32",
"t  c #6B503B",
"y  c #705037",
"u  c #7D5133",
"i  c #72533B",
"p  c #7D5439",
"a  c #7F593F",
"s  c #273C43",
"d  c #24424D",
"f  c #294A55",
"g  c #324D55",
"h  c #34545D",
"j  c #144F62",
"k  c #185062",
"l  c #255461",
"z  c #2F5D6C",
"x  c #385F6A",
"c  c #295F72",
"v  c #3A606B",
"b  c #2B677C",
"n  c #326576",
"m  c #3C6672",
"M  c #3D6975",
"N  c #3F6D7A",
"B  c #685847",
"V  c #66584B",
"C  c #765942",
"Z  c #795941",
"A  c #6F6455",
"S  c #766857",
"D  c #575C61",
"F  c #4B6569",
"G  c #4D686B",
"H  c #596466",
"J  c #436E7A",
"K  c #496F78",
"L  c #40717F",
"P  c #656962",
"I  c #6E6B63",
"U  c #737876",
"Y  c #8D4E25",
"T  c #814E2A",
"R  c #85532E",
"E  c #89522C",
"W  c #865532",
"Q  c #865736",
"!  c #8C5731",
"~  c #81593E",
"^  c #8C5D3B",
"/  c #945A33",
"(  c #9A5D34",
")  c #96623E",
"_  c #9E623B",
"`  c #845D42",
"'  c #885F43",
"]  c #876045",
"[  c #8C6245",
"{  c #84634A",
"}  c #8D664A",
"|  c #926545",
" . c #9B6742",
".. c #956847",
"X. c #9B6946",
"o. c #916748",
"O. c #966A4B",
"+. c #996D4C",
"@. c #9E704F",
"#. c #866C56",
"$. c #936F55",
"%. c #9E7150",
"&. c #A16842",
"*. c #A66D47",
"=. c #A0714F",
"-. c #A9744F",
";. c #A37351",
":. c #A87754",
">. c #AC7A56",
",. c #9E7E67",
"<. c #A3836D",
"1. c #AB886D",
"2. c #B08669",
"3. c #A78B75",
"4. c #B58E73",
"5. c #BE9172",
"6. c #356D80",
"7. c #3A7283",
"8. c #407280",
"9. c #4E7681",
"0. c #58808C",
"q. c #7E8387",
"w. c #888E93",
"e. c #93999D",
"r. c #B09783",
"t. c #8D98A0",
"y. c #9EA4A7",
"u. c #92B1BB",
"i. c #A9B6BA",
"p. c #B1B5B9",
"a. c #C1A089",
"s. c #C4AB99",
"d. c #D7AE92",
"f. c #CDB29E",
"g. c #D7B49C",
"h. c #CCB4A3",
"j. c #D0BFB0",
"k. c #D3C1B2",
"l. c #DEC9BA",
"z. c #95BDC8",
"x. c #A2D8EA",
"c. c #C9D0D4",
"v. c #CED5DA",
"b. c #E3D7CD",
"n. c #EDDBCB",
"m. c #EEE2DA",
"M. c #F2E7DF",
"N. c #ECEBEA",
"B. c #FCF5ED",
"V. c #E8F4FC",
"C. c #FEFAF3",
"Z. c #F4FDFF",
"A. c #FFFFFC",
/* pixels */
"x.U t t e q q e w w w w e w w e q w e q e q q e q e q e e q A z.",
"I ~ >.2.>.>.>.>.>.>.>.>.>.>.>.>.>.>.>.>.>.>.>.>.>.>.>.>.>.2.o.V ",
"e :.>.%.@.@.@.@.:.:.:.:.>.:.:.:.:.>.:.:.:.:.:.:.%.%.%.;.@.-.2.i ",
"t O.O.O.+.O.+.O.+.;.=.=.=.=.=.@.@.@.;.%.=.=.=.@...O.O.O.O.O.=.i ",
"q O.+.+.+.+.O.+.+.=.=.=.=.;.;.;.;.;.=.=.=.;.=.+.O.+.+.+.+.+.@.y ",
"q O.@.+.+.+.+.+.+.+.;.;.;.;.=.;.;.@.=.:.;.;.@.+.+.+.O.+.+.+.@.y ",
"q O.+.+.+.+.O.+.+.O.X.X.+.+.o.| | ....+.X. ...+.+.+.+.O.+.+.@.y ",
"5 O.@.+.O.+.+.+.o.! +.+.8 ^ | | [ o.[ 0 +.%.^ ^ %.O.+.+.+.+.@.y ",
"q O.@.+.+.+.+...R h.A.A.l.Q ' | | | T s.A.A.b.O.^ +.+.O.+.+.@.y ",
"q O.@.+.O.+.+.R f.A.p.U V.l.T | | T a.Z.q.e.A.m.Q O.+.O.+.+.@.y ",
"q O.+.+.+.+...| A.v.= - D N.;.^ [ R M.w.* # y.A.@.) O.+.+.+.@.y ",
"q O.+.+.+.+...^ A.v.- - H N.:.| *.E m.t.& % y.A.O.| +.+.+.+.@.y ",
"q O.+.+.+.+.+.0 r.A.c.w.Z.g.T ' ` W 5.Z.e.i.A.k.0 O.+.O.O.+.@.y ",
"q O.@.O.+.+.O.^ 8 r.B.C.d.1 - = = : < 5.B.B.f.R ^ O.+.+.+.+.@.y ",
"q O.+.+.+.O.O.+.*.E / ( T & X % # o @ 7 _ _ E ..@...O.+.+.+.@.y ",
"q o.@.+.+.+...] Z | #.F J ,   % % O % J G S | ~ a o.+.+.+.+.@.y ",
"w O.+.+.O.:.C X o + s c 7.m : O O = v 7.n d & o . 5 >.+.+.+.+.y ",
"w O.@.+.+.;.Z 7 C f s h N J J h g m L M x s f B 7 t ;.+.+.+.=.y ",
"w ..+.+.+.O.=.*.3 : g m m m m 7.8.M m m m h > ; ..-.O.+.+.+.=.y ",
"q ..+.+.+.+.;.p # h N M m m m m m m m m m J x $ 7 :.+.O.+.+.@.y ",
"q O.+.+.+.+.+.+...K b m m m m n n m m m m n 6.#.&.+.+.+.+.+.@.y ",
"w ..%.O.+.O.O.+.X.{ n 6.z l j H P j k z b b A &.+.O.+.O.+.+.@.y ",
"q O.@.O.+.+.+.+.O. .{ F J 9.u.2.*.i.0.J G S _ +.+.+.+.+.+.+.@.y ",
"q o.@.+.+.O.+.+.+.O._ Y j.A.A.4.^ A.A.b./ _ ..+.+.+.+.O.+.+.@.y ",
"q ..@.O.O.@.O.O.+.=.O.4 f.A.A.1.' C.A.n.0 [ @.+.O.+.+.+.+.+.%.y ",
"w O.%.+.+.O.O.@.+.+.] 2 r.A.A.<.Q C.A.j.6 ~ +.+.+.+.O.+.O.+.@.y ",
"q O.@.O.O.+.O.+.+.o.Z 6 <.A.A.,.u C.A.s.2 ~ ] @.O.+.+.+.+.+.@.y ",
"q o.@.O.@.O.O.@.+.` ` r } A.A.<.p A.A.3.6 ' a o.@.O.O.+.+.+.@.y ",
"q O.@.+.O.+.O.%.[ a ` ` 6 k.A.,.r A.B.i p ` a ' @.O.+.+.+.+.;.i ",
"q @.@.+.+.+.@.O.' ` ` ` p ' <.' p ,.$.r ' ' ' ~ O.@.+.+.+.+.%.C ",
"V a ;.=.@.@.%.O.' ' ' [ [ Q 9 ' [ 9 r [ ] ' ' ` o.;.@.@.%.;.} w ",
"z.A i i y y t y e e w e e w e e e e e w e e e e e y y y t i V t."
};
