/* XPM */
static char *d9860f5224af453d9f80372e459e8fe1LqYY3TPk6O1ZtgaG[] = {
/* columns rows colors chars-per-pixel */
"32 32 11 1 ",
"  c #403848",
". c #457A42",
"X c #62AF5D",
"o c #6B6F82",
"O c #4878D8",
"+ c #6D8580",
"@ c #77A088",
"# c #7297BC",
"$ c #4890D8",
"% c #6E84C0",
"& c #6E8FC0",
/* pixels */
"OOO$OOOOOOOOOOOOOOO$OOOOOOOOOOOO",
"OOOO$OOOOOOOOOOOOOOO$OOOOOOOOOOO",
"OOOO$OOOOOOOOOOOOOOO$OOOOOOOOOOO",
"OOOO$$OOOOOOOOOOOOOO$$OOOOOOOOOO",
"OOOOO$$OOOOOOOOOOOOOO$$OOOOOOOOO",
"OOOOO$$OOOOOOOOOOOOOO$$OOOOOOOOO",
"OOOOO$$$OOOOOOOOOOOOO$$$OOOOOOOO",
"OOOOO$$$$OOOOOOOOOOOO$$$$OOOOOOO",
"OOOOO$$$$OO    OOOOOO$$$$OOOOOOO",
"OOOOO$$$$$OO .. OOOOO$$$$$OOOOOO",
"OOOOOO$$$$$$ ..X  OOOO$$$$$$OOOO",
"OOOOOO$$$$$$ ..XX OOOO$$$$$$$$OO",
"OOOOOOO$$$$  .XXX. OOOO$$$$$$$$$",
"$$OOOOOOOO ..XXXX..       $$$$#$",
"$$###OOOO ..XXXXXX...XX ..  OOO#",
"OO#$OO   ..XXXXXXXXXXX    XX  O#",
"O#O$+oo++++@@@@@o@@@@@@@@@@@@ooO",
"O#OOo+++@@oooo@o@@@o@@o@@ooooo%O",
"O##Oo@@@@ooooo@o@@ooooooo%OOOOOO",
"OOO##@@ooo@%%%o@@o%O$$OOOOOOOOOO",
"OOOo@#######ooooo%OOO$$OOOOOOO##",
"OOOooo&%OOOOOOOOOOOO#####OOO##OO",
"%%oo+@ooOOOOOOOOOOOOO$$$####OOOO",
"%o+++############OOO####$OOOOOOO",
"o+oooooo@o%OOOOOOOOOO$$$$OOOO#OO",
"o+o%O$$ooooO######OOO$$$$$OO#OOO",
"%o%OOO$$$&&$OOOOOOOOOO$$$$##OOOO",
"OOOOOO$$$$$$$$OOOOOOOO$$$$$$$$OO",
"OOOOOOO$$$$$$$$$OOOOOOO$$$$$$$$$",
"$$OOOOOOOO$$$$$$$$OOOOOOOO$$$$$$",
"$$$OOOOOOOOOOOOO$$$OOOOOOOOOOOOO",
"OO$$OOOOOOOOOOOOOO$$OOOOOOOOOOOO"
};
