/* XPM */
static char *_3ee2a21e2ea46e7c81eedf1e222681etFQ0lD9X9ujz7HZk[] = {
/* columns rows colors chars-per-pixel */
"32 32 79 1 ",
"  c #A4DFF4",
". c #A4E0F3",
"X c #A4E0F4",
"o c #A5E0F4",
"O c #A5E1F4",
"+ c #A5E0F5",
"@ c #A5E1F5",
"# c #A6E1F4",
"$ c #A6E0F5",
"% c #A6E1F5",
"& c #A7E1F5",
"* c #A6E2F5",
"= c #A7E2F5",
"- c #A7E2F6",
"; c #A8E2F6",
": c #A8E3F6",
"> c #A8E3F7",
", c #A9E3F7",
"< c #A9E4F7",
"1 c #AAE4F7",
"2 c #AAE4F8",
"3 c #AAE5F8",
"4 c #ABE5F8",
"5 c #ABE5F9",
"6 c #ABE6F9",
"7 c #ACE6F9",
"8 c #ACE6FA",
"9 c #ADE6FA",
"0 c #ACE7FA",
"q c #ADE7FA",
"w c #AEE7FA",
"e c #AEE7FB",
"r c #ACE8FB",
"t c #ADE8FB",
"y c #AEE8FB",
"u c #AFE8FB",
"i c #ADE8FC",
"p c #AEE8FC",
"a c #AFE8FC",
"s c #AEE9FC",
"d c #AFE9FC",
"f c #B0E9FB",
"g c #B0E8FC",
"h c #B0E9FC",
"j c #B1E9FC",
"k c #B2E9FC",
"l c #B1EAFC",
"z c #B0EAFD",
"x c #B1EAFD",
"c c #B2EAFC",
"v c #B3EAFC",
"b c #B2EAFD",
"n c #B3EAFD",
"m c #B2EBFD",
"M c #B2EBFE",
"N c #B4EAFC",
"B c #B5EAFD",
"V c #B5EBFD",
"C c #B6EBFC",
"Z c #B6EAFD",
"A c #B6EBFD",
"S c #B7ECFD",
"D c #B4ECFF",
"F c #B8ECFE",
"G c #B9ECFE",
"H c #BBEDFE",
"J c #BDEDFE",
"K c #BEEEFE",
"L c #BFEEFE",
"P c #C0EEFF",
"I c #C2EFFE",
"U c #C2EFFF",
"Y c #C3EFFF",
"T c #C4EFFF",
"R c #C4F0FF",
"E c #C5F0FF",
"W c #C7F0FF",
"Q c #C7F1FF",
"! c #CCF2FF",
/* pixels */
"%%%%%dxxuxuxuxuxuxuxxxfxxxf%%%%%",
"%%%%,xxuxuxuxuxuxuxu9xx9fx1.%%%%",
"%%%%9xuxuxuxuxuxda9xgffxx9 %%%%%",
"%%%%fxduxuxuxuxuaCxaxfxxx, %%%%%",
"%% 9xuxfdxdxuxddCWPfdxfx, %%%%%%",
"%%%9xxPTxaxuxdddCPLxdux4%%%%%%%%",
"% ,fxfPQCauxuxxudxudxx9 %%%%%%%%",
"%.6xuxfCduxuxuuxxudxx4 ,%%%%%%%%",
"%%fuxxaaduxuxuxudxmu,%%%%%%%%%%%",
" 6xVWLxudxuxfxuxxx6%.%%%%%%%%%%%",
":xdVWLxuxfxufxxx91X%%%%%%%%%%%%%",
"uxxdCxux9xxxx99%%.%%%%%%%%%%%%%%",
"fxxuddxfxxu6,%X%%%%%%%%%%%%%%%.9",
"xuuxxdxf9,.  %%%%%%%%%%%%%%%% 9m",
"uxuuxx9%.%%%%%%%%%%%%%%%%%%..9mu",
"xuxxu%.%%%%%%%%%%%%%%%%%%%.%uxux",
"dxx6%X%%%%%%%%%%%%%%%%%% .:dxxux",
"xm9%X%%%%%%%%%%%%%%%%%.%19xxxdxu",
"x9 X%%%%%%%%%%%%%%% .%,9fxxduxux",
"9%%%%%%%%%%%%%%%%.%,99xxxf9uduxu",
"%%%%%%%%%%%%%% %,6fxxxxxxdFLxddx",
"%%%%%%%%%%%%%%1uxxx9fx9xddWQFux1",
"%%%%X%%%%%%.%9xxx9xxxx9fdxVLxd9%",
"%%%%%%%%%% 1fxxufxxfgfxxxurufx1 ",
"%%%%x9%%%%1xxxuxuxuxuxuxuxuxx9.,",
"%%X1xx%%.9mxxfxuxuxuxuxuxuxfx, .",
"%%% 1%% 1mxuuxuxuxuxuxuxuxux9%%%",
"%%%%%% ,xxuxxuxuxuxuxuxuxuxx9%%%",
"%%%%%.%uxfxuuxuxuxuxuxuxuxxx1%%%",
"%%%%%.6mxuuxxuxuxuxuxuxuxuxu%%%%",
"%%%% ,xxuxuxuxuxuxuxuxuxuxx9 %%%",
"%%%%%9xdxuxuxuxuxuxuxuxuxux,%%%%"
};
