/* XPM */
static char *result[] = {
/* columns rows colors chars-per-pixel */
"64 64 17 1 ",
"  c black",
". c #4C5979",
"X c #645D77",
"o c #5B6889",
"O c #607098",
"+ c #69789F",
"@ c #4878D8",
"# c #7081AB",
"$ c #7586AF",
"% c #7E90BC",
"& c #4890D8",
"* c #6785CB",
"= c #6790CB",
"- c #92A6DA",
"; c #A3B9F4",
": c #AFC6FF",
"> c #D1DEFF",
/* pixels */
"@@@&@@@@@@@@@@@@@@@&@@@@@@@@@@@@@@@&@@@@@@@@@@@@@@@&@@@@@@@@@@@@",
"@@@@&@@@@@@@@@@@@@@@&@@@@@@@@@@@@@@@&@@@@@@@@@@@@@@@&@@@@@@@@@@@",
"@@@@&@@@@@@@@@@@@@@@&@@@@@@@@@@@@@@@&@@@@@@@@@@@@@@@&@@@@@@@@@@@",
"@@@@&&@@@@@@@@@@@@@@&&@@@@@@@@@@@@@@&&@@@@@@@@@@@@@@&&@@@@@@@@@@",
"@@@@@&&@@@@@@@@@@@@@@&&@@@@@@@@@@@@@@&&@@@@@@@@@@@@@@&&@@@@@@@@@",
"@@@@@&&@@@@@@@@@@@@@@&&@@@@@@@@@@@@@@&&@@@@@@@@@@@@@@&&@@@@@@@@@",
"@@@@@&&&@@@@@@@@@@@@@&&&@@@@@@@@@@@@@&&&@@@@@@@@@@@@@&&&@@@@@@@@",
"@@@@@&&&&@@@@@@@@@@@@&&&&@@@@@@@@@@@@&&&&@@@@@@@@@@@@&&&&@@@@@@@",
"@@@@@&&&&@@@@@@@@@@@@&&&&@@@@@@@@@@@@&&&&@@@@@@@@@@@@&&&&@@@@@@@",
"@@@@@&&&&&@@@@         &&&@@@@@@@@@@@&&&&&@@@@@@@@@@@&&&&&@@@@@@",
"@@@@@@&&&&&&  ;;;;;;;;;   &&@@@@@@@@@@&&&&&&@@@@@@@@@@&&&&&&@@@@",
"@@@@@@&&&&  ;OOOOOOO;;;;;;  &&@@@@@@@@&&&&&&&&@@@@@@@@&&&&&&&&@@",
"@@@@@@@&& ;;OOOOOOOOOOOO;;;; &&&@@@@@@@&&&&&&&&&@@@@@@@&&&&&&&&&",
"&&@@@@@  ;OOOOOOOOOOOOOOOO;;;  &&&@@@@@@@@&&&&&&&&@@@@@@@@&&&&&&",
"&&&@@@ .OOOOOOOOOOOOOOOOOOOO;;  &&&@@@@@@@@@@@@@&&&@@@@@@@@@@@@@",
"@@&&@ .OOOOOOOOOOOOOOOOOOOOOO;; @@&&@@@@@@@@@@@@@@&&@@@@@@@@@@@@",
"@@@&@ .OOOOOOOOOOOOOOOOOOOOOOO;;  @&@@@@@@@@@@@@@@@&@@@@@@@@@@@@",
"@@@@ ..OOOOOO..OOOOOOOOOOOOOOO;;;; @   @@@@@@@@@@@@@&@@@@@@@@@@@",
"@@@ ..OOOOOO  .OOOOOOOOOOOOOOOO..;; ;;;   @@@@@@@@@@&@@@@@@@@@@@",
"@@@ .OOOOOOO  .OOOOOOOOOOOOOOOOOO....O;;;;  @@@@@@@@&&@@@@@@@@@@",
"@@@ OOOOOOOOO..OOOOOOOOOOOOOOOOOOO....OOO;;; @@@@@@@@&&@@@@@@@@@",
"@@@ OOOOOOOOOOOOOOOOO.OOOOOOOOOOOOOO...OOOOO; @@@@@@@&&@@@@@@@@@",
"@@  OOO.OOOOOOOOOOOO..OOOOOOOOOOOOOOO..OOO..O; @@@@@@&&&@@@@@@@@",
"@@ OOO..OOOOOOO..OOO.. OOOOOOOOOOOOOO...O...   @@@@@@&&&&@@@@@@@",
"@ OOOO. .OO......OOO... OOOOOOOOOOOOO.....  @@@@@@@@@&&&&@@@@@@@",
"  OOOO ...        %%... OOOOOOOOOOOOOO... &@@@@@@@@@@&&&&&@@@@@@",
" ...  ..  &&@@@@@  %%... OO OOOOOOOOOO.. &&&@@@@@@@@@@&&&&&&@@@@",
"@    ..  &&&&@@@@ O %%.. OO OOOOOOOOOOO. &&&&&@@@@@@@@&&&&&&&&@@",
"@@     &&@&&&$:@& O %%%. OO OOOOOOOOOOO.  &&&&&&@@@@@@@&&&&&&&&&",
"&&&@@@@@@@&&&:&&& OO %%. OO OOOOOOOOOOO.; &&&&&&&&@@@@@@@@&&&&&&",
"&&&@@@@@@@@@:&X&@ OO  %. OO OOOOOOOOOOO.; @@@@$$&&&@@$:@@@@@@@@@",
"@@&&@@@@@@@$:X>@@ OO @ % OO OOOOOOOOOOOO; @@@@>:@@&&@@>>$@@@@@@@",
"@@@&@@@@@@@$:X>@@ O @@ % OO OOOOOOOOOOO.;; @@@@>:@@&@@@@>$@@@@@@",
"@@@@&@@>>>@:X@>@@ @@@@@  OO %......OOO..;; @@@@@>>:@&@@@:>:@@@@@",
"@@@@@>>>:@@:X@>@@@@@@@@o###o%%.........##-o@@@@@@>:@&@@@@>@:@@@@",
"@@@>>@@@:@&:@@>@@@@@@@@o##o%%%%##########-o=@@@@@>:$@o-@@>&:@@@@",
"@@@>@@@$:&&:$@@>>@@@@@@ooo%%%%%%#########-o*@@@@@>:X@o-@@>&$:@@@",
"@@@>@@@$:&&@:::@@>>>@@@o@&o%%%%%%########-o*@@@$$>:Xo#o@@>&$:@@@",
"@@@@>@$@:&&@@@$::@@@>>>>>>=>>>>>%%########-o$$$@:>X@o#o@&>&$:@@@",
"@@@@>@@$:&&@@@@$$::::@@&&&>*o%%%%%%#####$$$$::::>@X@o#o&&>$:@@@@",
"@@@@>>@&$:&@@@@@@@@$$::::::@*o%%:::$$$::::::o@@@XX@o##o&&>:@@@@@",
"@@@@@@>&&:::@@@@@@@@@@$$$$$:::::$$$%%######>>XXX@@oo##-o>:&@@@@@",
"@@@@&&&>&&@$:::::@@@&&&&&&&&@@*o%%%%%>>>>>XXXo@@@@o$$$$>$$@&@@@@",
"@@@&&&&XXXXXXXXXXXX::::&&&&&&&**oo%>>%%####$$$$$$$$#::>-o=@&&&@@",
"@@@&&&&&&@@>>>>>>>>>>>>&&&&&&&&&@@o%%%%%##::::::::::#>#--o@&&&&&",
"&&@&&&@::@@@@@&&&&&&&&@@@@&&&&&&&&@oo%%XXXXXXXXX###>>>##--o&&&&&",
"&&X@@>@@@:::$$$&@@@@@@@@@@@@@@@@&&&**o%%%>>>>>>>XXXXXX###--oo@@@",
"@@@X@@>>>>@@::::::::::::@@@@@@@@@@&&**ooo%%%%######ooo#######o**",
"@@@@XX@@@@>>>>>>>>>>>>>>>@@@&@@@@@@&@@@@*ooo%%##ooo***o#######oo",
"@@@@@XXXXXXXXXXX@@@@@@@@@@@&@@@@@@@@@@@@***=oooo*@@@@*oo##++++#o",
"@@@@&@@@@@@@@@@@@@@@&@@@@::::XXXXXXXX:@@@@@@@@@@@@@@&***oo++ooo@",
"@@@@&&@@@@@@@@@@@@@@&&@@@@@@@@@@@@@@@@@@@@@@@@@@@@@@&@@***oo@@@@",
"@@@@@&&@@@@@@@@@@@@@@&&@@@@@@@@@@@@>>>>@@@@@@@@@@@@@@&&@@&&@@@@@",
"@@@@@&&@@@@@@@@@@@@@@&&@@@@@@@@@@@@@@&&@@@@@@@@@@@@@@&&@@@@@@@@@",
"@@@@@&&&@@@@@@@@@@@@@&&&@@@@@@@@@@@@@&&&@@@@@@@@@@@@@&&&@@@@@@@@",
"@@@@@&&&&@@@@@@@@@@@@&&&&@@@@@@@@@@@@&&&&@@@@@@@@@@@@&&&&@@@@@@@",
"@@@@@&&&&@@@@@@@@@@@@&&&&@@@@@@@@@@@@&&&&@@@@@@@@@@@@&&&&@@@@@@@",
"@@@@@&&&&&@@@@@@@@@@@&&&&&@@@@@@@@@@@&&&&&@@@@@@@@@@@&&&&&@@@@@@",
"@@@@@@&&&&&&@@@@@@@@@@&&&&&&@@@@@@@@@@&&&&&&@@@@@@@@@@&&&&&&@@@@",
"@@@@@@&&&&&&&&@@@@@@@@&&&&&&&&@@@@@@@@&&&&&&&&@@@@@@@@&&&&&&&&@@",
"@@@@@@@&&&&&&&&&@@@@@@@&&&&&&&&&@@@@@@@&&&&&&&&&@@@@@@@&&&&&&&&&",
"&&@@@@@@@@&&&&&&&&@@@@@@@@&&&&&&&&@@@@@@@@&&&&&&&&@@@@@@@@&&&&&&",
"&&&@@@@@@@@@@@@@&&&@@@@@@@@@@@@@&&&@@@@@@@@@@@@@&&&@@@@@@@@@@@@@",
"@@&&@@@@@@@@@@@@@@&&@@@@@@@@@@@@@@&&@@@@@@@@@@@@@@&&@@@@@@@@@@@@"
};
