/* XPM */
static char *_f7ade9cbe314a519d8dfc0f9002135a7KHHxcbI9myXLfWU[] = {
/* columns rows colors chars-per-pixel */
"64 64 17 1 ",
"  c black",
". c #4C5979",
"X c #645D77",
"o c #5B6889",
"O c #607098",
"+ c #69789F",
"@ c #4878D8",
"# c #7081AB",
"$ c #7586AF",
"% c #7E90BC",
"& c #4890D8",
"* c #6785CB",
"= c #6790CB",
"- c #92A6DA",
"; c #A3B9F4",
": c #AFC6FF",
"> c #D1DEFF",
/* pixels */
"@@@&@@@@@@@@@@@@@@@&@@@@@@@@@@@@@@@&@@@@@@@@@@@@@@@&@@@@@@@@@@@@",
"@@@@&@@@@@@@@@@@@@@@&@@@@@@@@@@@@@@@&@@@@@@@@@@@@@@@&@@@@@@@@@@@",
"@@@@&@@@@@@@@@@@@@@@&@@@@@@@@@@@@@@@&@@@@@@@@@@@@@@@&@@@@@@@@@@@",
"@@@@&&@@@@@@@@@@@@@@&&@@@@@@@@@@@@@@&&@@@@@@@@@@@@@@&&@@@@@@@@@@",
"@@@@@&&@@@@@@@@@@@@@@&&@@@@@@@@@@@@@@&&@@@@@@@@@@@@@@&&@@@@@@@@@",
"@@@@@&&@@@@@@@@@@@@@@&&@@@@@@@@@@@@@@&&@@@@@@@@@@@@@@&&@@@@@@@@@",
"@@@@@&&&@@@@@@@@@@@@@&&&@@@@@@@@@@@@@&&&@@@@@@@@@@@@@&&&@@@@@@@@",
"@@@@@&&&&@@@@@@@@@@@@&&&&@@@@@@@@@@@@&&&&@@@@@@@@@@@@&&&&@@@@@@@",
"@@@@@&&&&@@@@@@@@@@@@&&&&@@@@@@@@@@@@&&&&@@@@@@@@@@@@&&&&@@@@@@@",
"@@@@@&&&&&@@@@@@@@@@@&&&&&@@@@@@@@@@@&&&&         @@@&&&&&@@@@@@",
"@@@@@@&&&&&&@@@@@@@@@@&&&&&&@@@@@@@@@@   ;;;;;;;;;  @@&&&&&&@@@@",
"@@@@@@&&&&&&&&@@@@@@@@&&&&&&&&@@@@@@  ;;;;;;OOOOOOO;  &&&&&&&&@@",
"@@@@@@@&&&&&&&&&@@@@@@@&&&&&&&&&@@@ ;;;;OOOOOOOOOOOO;; &&&&&&&&&",
"&&@@@@@@@@&&&&&&&&@@@@@@@@&&&&&&&  ;;;OOOOOOOOOOOOOOOO;  @&&&&&&",
"&&&@@@@@@@@@@@@@&&&@@@@@@@@@@@@@  ;;OOOOOOOOOOOOOOOOOOOO. @@@@@@",
"@@&&@@@@@@@@@@@@@@&&@@@@@@@@@@@@ ;;OOOOOOOOOOOOOOOOOOOOOO. @@@@@",
"@@@&@@@@@@@@@@@@@@@&@@@@@@@@@@  ;;OOOOOOOOOOOOOOOOOOOOOOO. @@@@@",
"@@@@&@@@@@@@@@@@@@@@&@@@@   @ ;;;;OOOOOOOOOOOOOOO..OOOOOO.. @@@@",
"@@@@&@@@@@@@@@@@@@@@&@   ;;; ;;..OOOOOOOOOOOOOOOO.  OOOOOO.. @@@",
"@@@@&&@@@@@@@@@@@@@@  ;;;;O....OOOOOOOOOOOOOOOOOO.  OOOOOOO. @@@",
"@@@@@&&@@@@@@@@@@@@ ;;;OOO....OOOOOOOOOOOOOOOOOOO..OOOOOOOOO @@@",
"@@@@@&&@@@@@@@@@@@ ;OOOOO...OOOOOOOOOOOOOO.OOOOOOOOOOOOOOOOO @@@",
"@@@@@&&&@@@@@@@@@ ;O..OOO..OOOOOOOOOOOOOOO..OOOOOOOOOOOO.OOO  @@",
"@@@@@&&&&@@@@@@@@   ...O...OOOOOOOOOOOOOO ..OOO..OOOOOOO..OOO @@",
"@@@@@&&&&@@@@@@@@@@@  .....OOOOOOOOOOOOO ...OOO......OO. .OOOO @",
"@@@@@&&&&&@@@@@@@@@@@& ...OOOOOOOOOOOOOO ...%%        ... OOOO  ",
"@@@@@@&&&&&&@@@@@@@@@@& ..OOOOOOOOOO OO ...%%  @@@@@@@  ..  ... ",
"@@@@@@&&&&&&&&@@@@@@@@& .OOOOOOOOOOO OO ..%% O @@@@@@@&  ..    @",
"@@@@@@@&&&&&&&&&@@@@@@  .OOOOOOOOOOO OO .%%% O &@:$@@@@&&     &&",
"&&@@@@@@@@&&&&&&&&@@@@ ;.OOOOOOOOOOO OO .%% OO &&&:@@@@@@@&&&&&&",
"&&&@@@@@@:$@@@@@$$&@@@ ;.OOOOOOOOOOO OO .%  OO @&X&:@@@@@@@@@@@@",
"@@&&@@@$>>@@@@@@:>&&@@ ;OOOOOOOOOOOO OO % @ OO @@>X:$@@@@@@@@@@@",
"@@@&@@$>@@@@@@@:>@@&@ ;;.OOOOOOOOOOO OO % @@ O @@>X:$@@@@@@@@@@@",
"@@@@&:>:@@@@@:>>@@@@& ;;..OOO......% OO  @@@@@ @@>@X:@>>>@@@@@@@",
"@@@@:@>@@@@@@:>@@@@@=o-##.........%%o###o@@@@@@@@>@X:@@:>>>@@@@@",
"@@@@:&>@@-o@$:>@@@@@=o-##########%%%%o##o@@@@@@@@>@@:&@:@@@>>@@@",
"@@@:$&>@@-o@X:>@@@@@*o-#########%%%%%%ooo@@@@@@>>@@$:&&:$@@@>@@@",
"@@@:$&>@@o#oX:>$$@@@*o-########%%%%%%o&@o@@@>>>@@:::@&&:$@@@>@@@",
"@@@:$&>&@o#o@X>:@$$$o-########%%>>>>>=>>>>>>@@@::$@@@&&:@$@>@@@@",
"@@@@:$>&&o#o@X@>::::$$$$#####%%%%%%o*>&&&@@::::$$@@@@&&:$@@>@@@@",
"@@@@@:>&&o##o@XX@@@o::::::$$$:::%%o*@::::::$$@@@@@@@@&:$&@>>@@@@",
"@@@@@&:>o-##oo@@XXX>>######%%$$$:::::$$$$$@@@@@@@@@@:::&&>@@@@@@",
"@@@@@@$$>$$$$o@@@@oXXX>>>>>%%%%%o*@@@@&&&&&&@@@:::::$@&&>&&&@@@@",
"@@@@@@=o->::#$$$$$$$$####%%>>%oo**@@@@&&&::::XXXXXXXXXXXX&&&&&@@",
"@@@@@@o--#>#::::::::::##%%%%%o&&@@@@@@@&&>>>>>>>>>>>>@@&&&&&&&&&",
"&&@@@o--##>>>###XXXXXXXXX%%oo=&&&&@@@@@@@@&&&&&&&&@@@@@::@&&&&&&",
"&&&oo--###XXXXXX>>>>>>>%%%o***@@&&&@@@@@@@@@@@@@&$$$:::@@@>@@X@@",
"**o#######ooo######%%%%ooo**@@@@@@&&@@@@::::::::::::@@>>>>@@X@@@",
"oo#######o***ooo##%%ooo*@@@@@@@@@@@&@@@>>>>>>>>>>>>>>>@@@@XX@@@@",
"o#++++##oo*@@@@*oooo=***@@@@@@@@@@@@&@@@@@@@@@@@XXXXXXXXXXX@@@@@",
"@ooo++oo***@@@@@@@@@&@@@@@:XXXXXXXX::::@@@@@@@@@@@@@&@@@@@@@@@@@",
"@@@@oo***@@@@@@@@@@@&&@@@@@@@@@@@@@@&&@@@@@@@@@@@@@@&&@@@@@@@@@@",
"@@@@@&&@@@@@@@@@@@@@@&&@@>>>>@@@@@@@@&&@@@@@@@@@@@@@@&&@@@@@@@@@",
"@@@@@&&@@@@@@@@@@@@@@&&@@@@@@@@@@@@@@&&@@@@@@@@@@@@@@&&@@@@@@@@@",
"@@@@@&&&@@@@@@@@@@@@@&&&@@@@@@@@@@@@@&&&@@@@@@@@@@@@@&&&@@@@@@@@",
"@@@@@&&&&@@@@@@@@@@@@&&&&@@@@@@@@@@@@&&&&@@@@@@@@@@@@&&&&@@@@@@@",
"@@@@@&&&&@@@@@@@@@@@@&&&&@@@@@@@@@@@@&&&&@@@@@@@@@@@@&&&&@@@@@@@",
"@@@@@&&&&&@@@@@@@@@@@&&&&&@@@@@@@@@@@&&&&&@@@@@@@@@@@&&&&&@@@@@@",
"@@@@@@&&&&&&@@@@@@@@@@&&&&&&@@@@@@@@@@&&&&&&@@@@@@@@@@&&&&&&@@@@",
"@@@@@@&&&&&&&&@@@@@@@@&&&&&&&&@@@@@@@@&&&&&&&&@@@@@@@@&&&&&&&&@@",
"@@@@@@@&&&&&&&&&@@@@@@@&&&&&&&&&@@@@@@@&&&&&&&&&@@@@@@@&&&&&&&&&",
"&&@@@@@@@@&&&&&&&&@@@@@@@@&&&&&&&&@@@@@@@@&&&&&&&&@@@@@@@@&&&&&&",
"&&&@@@@@@@@@@@@@&&&@@@@@@@@@@@@@&&&@@@@@@@@@@@@@&&&@@@@@@@@@@@@@",
"@@&&@@@@@@@@@@@@@@&&@@@@@@@@@@@@@@&&@@@@@@@@@@@@@@&&@@@@@@@@@@@@"
};
