/* XPM */
static char *_71ff7ed942a46cfb759f935879101edX4bklO1lbN5Yuh06[] = {
/* columns rows colors chars-per-pixel */
"32 32 9 1 ",
"  c #001030",
". c #607098",
"X c #4878D8",
"o c #7297BC",
"O c #4890D8",
"+ c #878FA5",
"@ c #95A0BE",
"# c #B8C1DE",
"$ c #B8C0E0",
/* pixels */
"XXXOXXXXXXXXXXXXXXXOXXXXXXXXXXXX",
"XXXXOXXXXXXXXXXXXXXXOXXXXXXXXXXX",
"XXXX XXXXXXXXXXXXXXXOXXXXXXXXXXX",
"XXX $OXXXXXXXXXXXXXXOOXXXXXXXXXX",
"XX .$OOXXXXXXXXXXXXXXOOXXXXXXXXX",
"XX .$    XXXXXXXXXXXXOOXXXXXXXXX",
"X ..$ .$      XXXXXXXOOOXX    XX",
"X ..$ .$  $$$.  XXXXX     .... X",
" .$$ .$ O ...$$.  XX .......... ",
" .  ..$ O .....$$.  .........$. ",
" ....$ OOO ......$$.... .....$. ",
" ...  OOOO ............ ...$$$ X",
"X ..$  OOOO ...............$$$ O",
"O $..$$    $..............$$$ OO",
"O $....$$$$..............$$$$ XX",
"Xo $.....................$$$ XoX",
"oX+###@@@@@............@####+XXo",
"XoX+###@@@@@@@....@@@@@####+XooX",
"XXooooo##@@@@@@@@@@@@@####ooooXX",
"XXXX+##########+#@@@@ooooo+XXXXX",
"XXXXoooooo####+#@@@@@+#@++XXXXoX",
"XXXXXOO++#####+@@@@@@oooooooooXX",
"XXXXXOOOX+++++#@@@@@@+OOXXXXXXXX",
"XXXXXOOOOXooooo@@@oooooOOXXXXXXX",
"XXXXXOOOOXXXX+#@@@@@+OOOOXXXXXXX",
"XXXXXOOOOOXXX+#@@@@+XOOOOOXXXXXX",
"XXXXXXOOOOOOX+#@@++XXXOOOOOOXXXX",
"XXXXXXOOOOOOOO+++XXXXXOOOOOOOOXX",
"XXXXXXXOOOOOOOOOXXXXXXXOOOOOOOOO",
"OOXXXXXXXXOOOOOOOOXXXXXXXXOOOOOO",
"OOOXXXXXXXXXXXXXOOOXXXXXXXXXXXXX",
"XXOOXXXXXXXXXXXXXXOOXXXXXXXXXXXX"
};
