/* XPM */
static char *d864703620fe4518c34a9b02ca0b745d7wffb6iOoQJakq7i[] = {
/* columns rows colors chars-per-pixel */
"64 64 17 1 ",
"  c black",
". c #4C5979",
"X c #645D77",
"o c #5B6889",
"O c #607098",
"+ c #69789F",
"@ c #4878D8",
"# c #7081AB",
"$ c #7586AF",
"% c #7E90BC",
"& c #4890D8",
"* c #6785CB",
"= c #6790CB",
"- c #92A6DA",
"; c #A3B9F4",
": c #AFC6FF",
"> c #D1DEFF",
/* pixels */
"@@@&@@@@@@@@@@@@@@@&@@@@@@@@@@@@@@@&@@@@@@@@@@@@@@@&@@@@@@@@@@@@",
"@@@@&@@@@@@@@@@@@@@@&@@@@@@@@@@@@@@@&@@@@@@@@@@@@@@@&@@@@@@@@@@@",
"@@@@&@@@@@@@@@@@@@@@&@@@@@@@@@@@@@@@&@@@@@@@@@@@@@@@&@@@@@@@@@@@",
"@@@@&&@@@@@@@@@@@@@@&&@@@@@@@@@@@@@@&&@@@@@@@@@@@@@@&&@@@@@@@@@@",
"@@@@@&&@@@@@@@@@@@@@@&&@@@@@@@@@@@@@@&&@@@@@@@@@@@@@@&&@@@@@@@@@",
"@@@@@&&@@@@@@@@@@@@@@&&@@@@          &&@@@@@@@@@@@@@@&&@@@@@@@@@",
"@@@@@&&&@@@@@@@@@@@@@&&&@  ;;;;;;;;;; &&@@@@@@@@@@@@@&&&@@@@@@@@",
"@@@@@&&&&@@@@@@@@@@@@&&  ;;;OOOO;;;;;;  &@@@@@@@@@@@@&&&&@@@@@@@",
"@@@@@&&&&@@@@@@@@@@@@& ;;;;OOOOOOOOO;;;; @@@@@@@@@@@@&&&&@@@@@@@",
"@@@@@&&&&&@@@@@@@@@@@ ;;;;OOOOOOOOOOOO;;; @@@@@@@@@@@&&&&&@@@@@@",
"@@@@@@&&&&&&@@@@@@@  ;;;;OOOOOOOOOOOOOOO;; &@@@@@@@@@@&&&&&&@@@@",
"@@@@@@&&&&&&&&@@@@@ ;;OOOOOOOOOOOOOOOOOOO;; &&@@@@@@@@&&&&&&&&@@",
"@@@@@@@&&&&&&&&&@@@ ;OOOOOOOOOOOOOOOOOOOOO;; &&&@@@@@@@&&&&&&&&&",
"&&@@@@@@@@&&&&&&&& ;OOOOOOOOOOOOOOOOOOOOOOOO &&&&&@@@@@@@@&&&&&&",
"&&&@@@@@@@@@@@@@&& OOOOOOOOOOOOOOOOOOOOOOOOOO @@&&&@@@@@@@@@@@@@",
"@@&&@@@@@@@@@@@@@@ OOOOOOOOOOOOOOOOOOOOOOOOOO @@@@&&@@@@@@@@@@@@",
"@@@&@@@@@@@@@@@@@@ OOOOOOOOOOOOOOOOOOOOOOOOOOO @@@@&@@@@@@@@@@@@",
"@@@@&@@@@@@@@@@@@@ OOOOOOOOOOOOOOOOOOOOOOOOOOO @@@@@&@@@@@@@@@@@",
"@@@@&@@@@@@@@@@@@@ OOOOOOOOOOOOOOOOOOOOOOOOOOOO @@@@&@@@@@@@@@@@",
"@@@@&&@@@@@@@@@@@@ OOOOOOO OOO;;OOOO OOOOOOOOOO @@@@&&@@@@@@@@@@",
"@@@@@&&@@@@@@@@@@@ OOOOOOO OOO;;;OOO OOOOOOOOOO @@@@@&&@@@@@@@@@",
"@@@@@&&@@@@@@@@@@@ OOOOOOO. OOO;;OO ..OOOOOOOOO @@@@@&&@@@@@@@@@",
"@@@@@&&&@@@@@@@@@@@ OOOOOO. OOOO;OO ..OOOOOOOOO @@@@@&&&@@@@@@@@",
"@@@@@&&&&@@@@@@@@@@ OOOOOO.. OOO;O ..OOOOOOOOOO @@@@@&&&&@@@@@@@",
"@@@@@&&&&@@@@@@@@@@ OOOOOOO.. O;;O ..OOOOOOOOOO @@@@@&&&&@@@@@@@",
"@@@@@&&&&&@@@@@@@@@ OOOOOOOO.. ;O ..OOOOOOOOOOO @@@@@&&&&&@@@@@@",
"@@@@@@&&&&&&@@@@@@@@ OOOOOOOO..   ..OOOOOOOOOOO @@@@@@&&&&&&@@@@",
"@@@@@@&&&&&&&&@@@@@@ OOOOOOOOO.. ..OOOOOOOOOOOO @@@@@@&&&&&&&&@@",
"@@@@@@@&&&&&&&&&@@@@ OOOOOOOOOO...OOOOOOOOOOOOO @:$@@@@&&&&&&&&&",
"&&@@@@@@@@&&&&&&&&@@ OOOOOOOOOO..OOOOOOOOOOOOO &&&:@@@@@@@&&&&&&",
"&&&@@@@@@:$@@@@@$$&@@ OOOOOOOOOO.OOOOOOOOOOOOO @&X&:@@@@@@@@@@@@",
"@@&&@@@$>>@@@@@@:>&&@ OOOOOOOOOOOOOOOOOOOOOOOO @@>X:$@@@@@@@@@@@",
"@@@&@@$>@@@@@@@:>@@&@ OOOOOOOOOOOOOOOOOOOOOOO @@@>X:$@@@@@@@@@@@",
"@@@@&:>:@@@@@:>>@@@@& ......................  @@@>@X:@>>>@@@@@@@",
"@@@@:@>@@@@@@:>@@@@@=o+++.........+++++++.. @@@@@>@X:@@:>>>@@@@@",
"@@@@:&>@@-o@$:>@@@@@=oo++++++++++++++++++. @@@@@@>@@:&@:@@@>>@@@",
"@@@:$&>@@-o@X:>@@@@@*oooo++++++++++++++++ @@@@@>>@@$:&&:$@@@>@@@",
"@@@:$&>@@o#oX:>$$@@@*o-##oooo+++++++++..o@@@>>>@@:::@&&:$@@@>@@@",
"@@@:$&>&@o#o@X>:@$$$o-#######oo+>>>>>+>>>>>>@@@::$@@@&&:@$@>@@@@",
"@@@@:$>&&o#o@X@>::::$$$$#####%%oo++++> &&@@::::$$@@@@&&:$@@>@@@@",
"@@@@@:>&&o##o@XX@@@o::::::$$$:::oooo ::::::$$@@@@@@@@&:$&@>>@@@@",
"@@@@@&:>o-##oo@@XXX>>######%%$$$:::::$$$$$@@@@@@@@@@:::&&>@@@@@@",
"@@@@@@$$>$$$$o@@@@oXXX>>>>>%%%%%oo@@@@&&&&&&@@@:::::$@&&>&&&@@@@",
"@@@@@@=o->::#$$$$$$$$####%%>>%oo**@@@@&&&::::XXXXXXXXXXXX&&&&&@@",
"@@@@@@o--#>#::::::::::##%%%%%o&&@@@@@@@&&>>>>>>>>>>>>@@&&&&&&&&&",
"&&@@@o--##>>>###XXXXXXXXX%%oo=&&&&@@@@@@@@&&&&&&&&@@@@@::@&&&&&&",
"&&&oo--###XXXXXX>>>>>>>%%%o***@@&&&@@@@@@@@@@@@@&$$$:::@@@>@@X@@",
"**o#######ooo######%%%%ooo**@@@@@@&&@@@@::::::::::::@@>>>>@@X@@@",
"oo#######o***ooo##%%ooo*@@@@@@@@@@@&@@@>>>>>>>>>>>>>>>@@@@XX@@@@",
"o#++++##oo*@@@@*oooo=***@@@@@@@@@@@@&@@@@@@@@@@@XXXXXXXXXXX@@@@@",
"@ooo++oo***@@@@@@@@@&@@@@@:XXXXXXXX::::@@@@@@@@@@@@@&@@@@@@@@@@@",
"@@@@oo***@@@@@@@@@@@&&@@@@@@@@@@@@@@&&@@@@@@@@@@@@@@&&@@@@@@@@@@",
"@@@@@&&@@@@@@@@@@@@@@&&@@>>>>@@@@@@@@&&@@@@@@@@@@@@@@&&@@@@@@@@@",
"@@@@@&&@@@@@@@@@@@@@@&&@@@@@@@@@@@@@@&&@@@@@@@@@@@@@@&&@@@@@@@@@",
"@@@@@&&&@@@@@@@@@@@@@&&&@@@@@@@@@@@@@&&&@@@@@@@@@@@@@&&&@@@@@@@@",
"@@@@@&&&&@@@@@@@@@@@@&&&&@@@@@@@@@@@@&&&&@@@@@@@@@@@@&&&&@@@@@@@",
"@@@@@&&&&@@@@@@@@@@@@&&&&@@@@@@@@@@@@&&&&@@@@@@@@@@@@&&&&@@@@@@@",
"@@@@@&&&&&@@@@@@@@@@@&&&&&@@@@@@@@@@@&&&&&@@@@@@@@@@@&&&&&@@@@@@",
"@@@@@@&&&&&&@@@@@@@@@@&&&&&&@@@@@@@@@@&&&&&&@@@@@@@@@@&&&&&&@@@@",
"@@@@@@&&&&&&&&@@@@@@@@&&&&&&&&@@@@@@@@&&&&&&&&@@@@@@@@&&&&&&&&@@",
"@@@@@@@&&&&&&&&&@@@@@@@&&&&&&&&&@@@@@@@&&&&&&&&&@@@@@@@&&&&&&&&&",
"&&@@@@@@@@&&&&&&&&@@@@@@@@&&&&&&&&@@@@@@@@&&&&&&&&@@@@@@@@&&&&&&",
"&&&@@@@@@@@@@@@@&&&@@@@@@@@@@@@@&&&@@@@@@@@@@@@@&&&@@@@@@@@@@@@@",
"@@&&@@@@@@@@@@@@@@&&@@@@@@@@@@@@@@&&@@@@@@@@@@@@@@&&@@@@@@@@@@@@"
};
