/* XPM */
static char *_d632c8f65464564dc36b922eed67fdcg9AQNmd5wnEzeFtI[] = {
/* columns rows colors chars-per-pixel */
"32 32 144 2 ",
"   c #1B1A19",
".  c #2F2517",
"X  c #3A352F",
"o  c #3F3F3E",
"O  c #4D3E2A",
"+  c #5E4D37",
"@  c #2F4F7B",
"#  c #31517F",
"$  c #736047",
"%  c #67625B",
"&  c #2F5080",
"*  c #315383",
"=  c #3A5B83",
"-  c #355989",
";  c #3B5D89",
":  c #375E94",
">  c #385F95",
",  c #3F628A",
"<  c #3B6297",
"1  c #3C649A",
"2  c #4A6F93",
"3  c #537A9B",
"4  c #416EAB",
"5  c #4575B5",
"6  c #4577BA",
"7  c #4679BC",
"8  c #2C6CC3",
"9  c #2B73D7",
"0  c #3277D6",
"q  c #3579D6",
"w  c #397BD5",
"e  c #367AD8",
"r  c #3C7ED8",
"t  c #367FE3",
"y  c #497DC2",
"u  c #6F9DBC",
"i  c #3E8AF2",
"p  c #4B82CB",
"a  c #4482D6",
"s  c #4F86D2",
"d  c #4F88D4",
"f  c #4383D9",
"g  c #4A87DA",
"h  c #4D89DB",
"j  c #5089D6",
"k  c #528CDB",
"l  c #5C92DB",
"z  c #6498DE",
"x  c #6B9BDD",
"c  c #7AA3DB",
"v  c #4287E4",
"b  c #478BE7",
"n  c #4C8DE4",
"m  c #448AEA",
"M  c #4C8FEB",
"N  c #548FE0",
"B  c #4B90EF",
"V  c #5693E5",
"C  c #5A95E7",
"Z  c #5796EB",
"A  c #5897EC",
"S  c #5798EF",
"D  c #5A99ED",
"F  c #448EF3",
"G  c #4690F6",
"H  c #4B92F4",
"J  c #4692F8",
"K  c #5A9BF2",
"L  c #559DFD",
"P  c #5C9FF9",
"I  c #6F9FE1",
"U  c #5EA1FB",
"Y  c #7BA7E3",
"T  c #7DA9E2",
"R  c #74A7EA",
"E  c #69A4F4",
"W  c #6AA7FA",
"Q  c #69ADFF",
"!  c #70ACFB",
"~  c #6DB2FF",
"^  c #7BBAFF",
"/  c #AFAFAE",
"(  c #D4C8B7",
")  c #D7CCBE",
"_  c #87BBD5",
"`  c #8ABFD9",
"'  c #92B2DE",
"]  c #A1BDDF",
"[  c #AABFDC",
"{  c #82ABE2",
"}  c #8DB3E6",
"|  c #94B7E5",
" . c #98B7E2",
".. c #9CBBE3",
"X. c #99BDED",
"o. c #82B7FC",
"O. c #82B9FF",
"+. c #9ED8ED",
"@. c #86C2FF",
"#. c #9CC7FB",
"$. c #96CBFF",
"%. c #A4C0E6",
"&. c #A6C3E8",
"*. c #ABC7EE",
"=. c #AFC8E9",
"-. c #B3C9E4",
";. c #B3CCEC",
":. c #BBD0EB",
">. c #A3CAFD",
",. c #AAD8FF",
"<. c #B8DBFF",
"1. c #BBE2FF",
"2. c #DCD3C8",
"3. c #C6CFDC",
"4. c #D7D7D8",
"5. c #EADAC2",
"6. c #EDE3D5",
"7. c #C8D2E0",
"8. c #C6D7EC",
"9. c #D4DCE7",
"0. c #C8DBF5",
"q. c #C5DFFF",
"w. c #D5E1EE",
"e. c #DFE6EC",
"r. c #D2E1F5",
"t. c #DEE9F8",
"y. c #D8F1FF",
"u. c #E9E6E3",
"i. c #EFF1EF",
"p. c #F7F1E7",
"a. c #F6F2E8",
"s. c #FBF6EB",
"d. c #FEFDED",
"f. c #E5EBF1",
"g. c #E3EDF9",
"h. c #E8EFFA",
"j. c #EEF1F2",
"k. c #EBF7FF",
"l. c #F2F3F2",
"z. c #FFFEF5",
"x. c #F6FBFF",
"c. c #FFFFF9",
"v. c #FFFFFC",
"b. c #FFFFFF",
/* pixels */
"+.3 ; - * * & * * * * * * * * * * * * * * & * * * * * * - ; 2 ` ",
"2 4 A A A Z A A A S Z Z Z Z S B m D Z Z A S S A Z Z Z S S K y = ",
"# A P V V V V V V V V V V V n I R n V V V V V V V V V V V S P > ",
"- j k k k k k h j N k j h k q %.9.q k j j k j h h k k j k k V 1 ",
"- j V k k k k k j j k k k k 0 ;.l.f h k k k k k k k k k k N N : ",
"- j k h k k k k d 7 d N k k 0 :.c.g g N k k k k k k k k k k V : ",
"* j V k k k k k k s j N k k e 8.c.k g N k k k k k k k k k k V : ",
"# j V k k k k k j N k s d h r w.v.z y n k k k k k k k k k N V : ",
"# j V k k k k p y d k 7 y h g f.c.Y e k j k k k k k k k j k V : ",
"# d V k k k k p 6 p V p d g k l.v.| q k k k k k k k k k k N V : ",
"# j k k k k k j s k k k k f z z.c...q k k k k k k k k k k k V : ",
"& j V k k k k k k k k k k r x s.d.=.e j k k k k k k k k k N V : ",
"& d V k k k k k k k k k k e { c.c.8.r j k k k k k k k j k N V : ",
"& d V k j j d k k k k k k 0 | c.c.w.f h k k k k k j j h k k V : ",
"& j V k k V V k k k k k k 0 &.c.c.f.h g k k k k j V Z N j k V : ",
"& h k k K U U S k j k k k q ;.c.c.l.k g k k k h A P P K N k V : ",
"* j k V E H i G A j k k h f 7.s.p.a.x f k k j V J i F P Z j V : ",
"# j k A F E ,.,.L n j k h g e.z.s.c.T e k j k H $.1.o.F A k V : ",
"& d k m W x.6.( >.F h k f l z.c.v.v. .0 k j v O.2.) v.#.i N V : ",
"& d k t y.d.o . / ^ h j g g e.c.c.d.x f k h L [ +   ( v.M h V : ",
"& j V e <.z.% O [ W h d k g l ] [ x f k k j L  .$ X 5.v.m h V : ",
"& j k n H q.i.4.o.b h e e e e 9 9 e r e e f n Q 3.4.k.! v j V : ",
"# j V k n G ^ ^ H h a ..;.} l g g h I *.-.k g B ~ @.L m k k V : ",
"# j V k k k b n k w ' d.v.v.x.g.t.j.v.v.c.7.a d n m N k k k V : ",
"@ d V j k j j j k e -.d.v.v.v.v.v.v.v.v.c.u.k g j j j k k k C : ",
"& d V k k k k k k f z 9.v.v.v.v.v.v.v.c.i.c r k k k k k k k V : ",
"& j V k k k k k k k f f Y *.r.g.h.t.0.X.k w y p k k k k k k V : ",
"& j V j k k k k k k k h e q y b k h w 8 a k y p k k k k k N V : ",
"* j V k k k k k k k k k k k h g f n y 6 y N k k k k k k k k C 1 ",
"* N V k k N k k k k k N k k k k k N j p d k N k k N k k k N A 1 ",
"= 5 A V V V V V V V V Z C V V V V V C Z Z V V V C V V V V K p @ ",
"_ , 1 1 1 1 : : : : : : : : : : : : : : : : : : < 1 1 1 1 1 ; u "
};
