/* XPM */
static char *_fe1de6a377c4c53c132caa5c0dac77bWlUBuaZrjBz763QM[] = {
/* columns rows colors chars-per-pixel */
"32 32 3 1 ",
"  c #B8C2DC",
". c #DBDCEE",
"X c #FFF7FF",
/* pixels */
"                                ",
"                                ",
"  ..........................XX  ",
"  ..........................XX  ",
"  ..                        XX  ",
"  ..                        XX  ",
"  ..                        XX  ",
"  ..                        XX  ",
"  ..                        XX  ",
"  ..                        XX  ",
"  ..                        XX  ",
"  ..                        XX  ",
"  ..                        XX  ",
"  ..                        XX  ",
"  ..                        XX  ",
"  ..                        XX  ",
"  ..                        XX  ",
"  ..                        XX  ",
"  ..                        XX  ",
"  ..                        XX  ",
"  ..                        XX  ",
"  ..                        XX  ",
"  ..                        XX  ",
"  ..                        XX  ",
"  ..                        XX  ",
"  ..                        XX  ",
"  ..                        XX  ",
"  ..                        XX  ",
"  XXXXXXXXXXXXXXXXXXXXXXXXXXXX  ",
"  XXXXXXXXXXXXXXXXXXXXXXXXXXXX  ",
"                                ",
"                                "
};
