/* XPM */
static char *e14fb2d4d7de41e59f5700c141eef8e2vlzRxQBfZW87hy4s[] = {
/* columns rows colors chars-per-pixel */
"32 32 155 2 ",
"   c #A46634",
".  c #AE6B37",
"X  c #B9743F",
"o  c #A56E43",
"O  c #A16F4B",
"+  c #AE7445",
"@  c #A1714B",
"#  c #AA764D",
"$  c #AC784F",
"%  c #A47753",
"&  c #A97751",
"*  c #A67853",
"=  c #AE7A51",
"-  c #A57B58",
";  c #B27C52",
":  c #C17941",
">  c #C97F46",
",  c #C47F4A",
"<  c #B78054",
"1  c #BA8257",
"2  c #BC8459",
"3  c #A2846A",
"4  c #A9886B",
"5  c #B48661",
"6  c #A28C74",
"7  c #A3927E",
"8  c #CF8246",
"9  c #C6824C",
"0  c #D2864C",
"q  c #D2884F",
"w  c #C78754",
"e  c #CD8751",
"r  c #C88956",
"t  c #C1875A",
"y  c #C3885B",
"u  c #CB8E5E",
"i  c #D38E58",
"p  c #CE905F",
"a  c #D5935F",
"s  c #CA8F60",
"d  c #CE9162",
"f  c #C29169",
"g  c #D69664",
"h  c #D89766",
"j  c #D79866",
"k  c #D99966",
"l  c #D09769",
"z  c #D3996B",
"x  c #DD9C69",
"c  c #C09A7B",
"v  c #E09D6A",
"b  c #DBA072",
"n  c #D5A27A",
"m  c #DAA57A",
"M  c #A79580",
"N  c #A39D8E",
"B  c #BF9E84",
"V  c #B3A48E",
"C  c #A4A295",
"Z  c #AFA697",
"A  c #A5A59A",
"S  c #A5ACA4",
"D  c #A3AEA8",
"F  c #A5B3AE",
"G  c #A5B6B4",
"H  c #A6B8B7",
"J  c #A6BAB9",
"K  c #DEB492",
"L  c #DDB799",
"P  c #E4B38D",
"I  c #E3BC9E",
"U  c #DDBFA4",
"Y  c #DEC4AD",
"T  c #E4C2A7",
"R  c #E8C2A6",
"E  c #ECCFB9",
"W  c #E9D2BC",
"Q  c #9FC7D2",
"!  c #9ECDDD",
"~  c #A6C1C4",
"^  c #A6C5CB",
"/  c #A6C9CF",
"(  c #A6C9D0",
")  c #A6CEDA",
"_  c #B3CED4",
"`  c #A6D2DE",
"'  c #9CD5E8",
"]  c #A6D5E2",
"[  c #A8D6E3",
"{  c #A6D8E6",
"}  c #A6DBEC",
"|  c #B1D3E0",
" . c #B9D7E1",
".. c #BCDAE3",
"X. c #A4DEF1",
"o. c #BBE0ED",
"O. c #A6E1F5",
"+. c #EFD4C0",
"@. c #E7DBCF",
"#. c #EFDCCD",
"$. c #F2DAC7",
"%. c #F1DAC9",
"&. c #E2DFD6",
"*. c #F3E1D3",
"=. c #F6E7DC",
"-. c #C3DEE7",
";. c #CBE1E7",
":. c #C7E0E9",
">. c #CDE3EA",
",. c #D2E7EE",
"<. c #DCECF1",
"1. c #D6F4FF",
"2. c #DAF5FF",
"3. c #E3ECEC",
"4. c #F7EBE3",
"5. c #F8EEE8",
"6. c #F7F0EA",
"7. c #F9F3ED",
"8. c #E1EEF2",
"9. c #E5F3F7",
"0. c #E1F7FF",
"q. c #EBF5F8",
"w. c #E6F9FF",
"e. c #EBFAFF",
"r. c #FBF6F3",
"t. c #FDF9F5",
"y. c #F7FDFF",
"u. c #F4FEFF",
"i. c #F6FFFF",
"p. c #F7FFFF",
"a. c #F5FCFF",
"s. c #F2FCFF",
"d. c #FFFBFA",
"f. c #F9FBFC",
"g. c #F8FCFF",
"h. c #F8FDFF",
"j. c #F9FDFF",
"k. c #FAFDFE",
"l. c #FAFDFF",
"z. c #FBFDFF",
"x. c #F9FEFF",
"c. c #F9FFFF",
"v. c #FAFEFF",
"b. c #FBFEFF",
"n. c #FAFFFF",
"m. c #FFFEFD",
"M. c #FCFDFF",
"N. c #FCFEFF",
"B. c #FDFEFF",
"V. c #FCFFFF",
"C. c #FDFFFF",
"Z. c #FEFEFE",
"A. c #FEFEFF",
"S. c #FEFFFF",
"D. c white",
/* pixels */
"f.u.0.w.w.w.w.e.w.w.w.w.w.w.w.w.e.e.w.w.e.w.w.f.e.0.w.S.-.' X.O.",
">.S.w.w.w.w.w.w.w.w.e.w.w.w.w.w.e.w.w.e.w.w.a.a.e.0.a.S.f.! O.O.",
") S.u.w.w.w.w.e.a.f.e.w.e.w.e.w.2.2.w.w.w.w.S.a.w.w.S.S.S.>.X.X.",
"| 8.S.w.w.w.w.e.f.f.s.w.w.w.e.0.1.1.2.w.w.f.S.e.w.f.S.S.S.e.Q O.",
":.,.S.w.w.e.w.w.e.s.e.w.e.w.e.0.2.1.0.w.u.S.S.e.a.S.S.S.S.S.Z ] ",
",...S.e.e.w.e.w.w.w.w.e.w.w.w.e.w.0.0.s.S.S.S.u.S.S.S.S.S.S.B G ",
"<. .S.w.s.e.w.w.w.e.w.w.w.w.w.w.e.w.s.S.S.S.S.S.S.S.S.S.S.S.c C ",
"8...z.e.z.f.w.w.w.w.e.w.w.e.w.w.0.s.S.S.S.S.M.f.S.S.S.s.S.S.5 N ",
"q. .u.u.z.u.e.w.w.e.w.w.w.w.0.e.z.S.S.S.S.S.a.a.S.M.a.s.S.4.+ 7 ",
"9...u.w.e.e.w.w.w.w.w.w.w.w.e.S.S.S.S.S.S.S.z.a.S.S.f.a.S.T   C ",
">.>.S.w.w.w.w.w.w.w.w.w.e.M.S.S.S.S.S.S.S.S.S.S.S.S.S.S.r.u o G ",
"o.<.z.w.w.w.w.0.w.w.s.S.S.S.S.S.S.S.S.S.S.S.S.S.S.S.S.S.K X - ^ ",
"_ S.u.0.0.w.e.u.z.S.S.S.S.S.S.S.S.S.S.z.f.S.S.S.S.S.S.#.> ; 7 } ",
"5 S.u.0.e.S.S.S.S.S.S.S.S.S.S.S.S.S.S.s.e.s.S.S.z.u.S.z 9 = H O.",
". W S.S.S.S.S.S.S.S.S.S.S.S.f.a.z.S.z.w.w.s.S.S.S.z.I > y - } O.",
"+ l r.S.S.S.S.S.S.S.S.S.S.S.s.s.s.S.S.z.e.z.S.S.e.@., i ; S O.O.",
"; 9 n $.=.t.S.S.S.S.S.S.S.S.z.u.S.S.S.S.S.S.z.w.3.n r y % } O.O.",
"# u q 0 a a I S.S.S.S.S.S.S.S.S.S.S.S.S.z.e.0.3.U g a ; A O.O.O.",
"* y g g a i > R S.S.S.S.S.S.S.S.S.S.f.e.0.w.3.Y z g 2 @ { O.O.O.",
"7 < g k k k g 0 E r.4.4.5.S.S.u.s.w.0.0.9.&.K j k g = N O.O.O.O.",
"H # p k j j j g i u r u r L d.z.0.w.u.r.W m j g v y @ } O.O.O.O.",
"O.6 1 v k g j k g w r r r : l *.7.7.#.P b g g x k $ D O.O.O.O.O.",
"O./ @ y x k g g g u u u s s w r z d p g j g k v 2 3 O.O.O.O.O.O.",
"O.O.J O y v k g g u s u u u u u p u u g g k v y O ` O.O.O.O.O.O.",
"O.O.O.~ @ 1 k v g p a u u u u u u u u j k v y @ H O.O.O.O.O.O.O.",
"O.O.O.O.] 7 f k k k x g u u u u u u a x k 1 @ H O.O.O.O.O.O.O.O.",
"O.O.O.O.O.[ V 2 1 < 2 y u s p p d u u y ; 3 / O.O.O.O.O.O.O.O.O.",
"O.O.O.O.O.X.` ^ ` ^ D C 4 & ; ; ; = & 6 F O.O.O.O.O.O.O.O.O.O.O.",
"O.O.O.O.O.O.O.O.O.O.O.O.O.] ^ ~ ~ ~ ] O.O.O.O.O.O.O.O.O.O.O.O.O.",
"O.O.O.O.O.O.O.O.O.O.O.O.O.O.O.O.O.O.O.O.O.O.O.O.O.O.O.O.O.O.O.O.",
"O.O.O.O.O.O.O.O.O.O.O.O.O.O.O.O.O.O.O.O.O.O.O.O.O.O.O.O.O.O.O.O.",
"O.O.O.O.O.O.O.O.O.O.O.O.O.O.O.O.O.O.O.O.O.O.O.O.O.O.O.O.O.O.O.O."
};
