/* XPM */
static char *fb638e57f58a44d282a4edb260ac97a1hA09MjfSFxj257QW[] = {
/* columns rows colors chars-per-pixel */
"64 64 3 1 ",
"  c #B8C2DC",
". c #DBDCEE",
"X c #FFF7FF",
/* pixels */
"                                                                ",
"                                                                ",
"  ..........................XX    ..........................XX  ",
"  ..........................XX    ..........................XX  ",
"  ..                        XX    ..                        XX  ",
"  ..                        XX    ..                        XX  ",
"  ..                        XX    ..                        XX  ",
"  ..                        XX    ..                        XX  ",
"  ..                        XX    ..                        XX  ",
"  ..                        XX    ..                        XX  ",
"  ..                        XX    ..                        XX  ",
"  ..                        XX    ..                        XX  ",
"  ..                        XX    ..                        XX  ",
"  ..                        XX    ..                        XX  ",
"  ..                        XX    ..                        XX  ",
"  ..                        XX    ..                        XX  ",
"  ..                        XX    ..                        XX  ",
"  ..                        XX    ..                        XX  ",
"  ..                        XX    ..                        XX  ",
"  ..                        XX    ..                        XX  ",
"  ..                        XX    ..                        XX  ",
"  ..                        XX    ..                        XX  ",
"  ..                        XX    ..                        XX  ",
"  ..                        XX    ..                        XX  ",
"  ..                        XX    ..                        XX  ",
"  ..                        XX    ..                        XX  ",
"  ..                        XX    ..                        XX  ",
"  ..                        XX    ..                        XX  ",
"  XXXXXXXXXXXXXXXXXXXXXXXXXXXX    XXXXXXXXXXXXXXXXXXXXXXXXXXXX  ",
"  XXXXXXXXXXXXXXXXXXXXXXXXXXXX    XXXXXXXXXXXXXXXXXXXXXXXXXXXX  ",
"                                                                ",
"                                                                ",
"                                                                ",
"                                                                ",
"  ..........................XX    ..........................XX  ",
"  ..........................XX    ..........................XX  ",
"  ..                        XX    ..                        XX  ",
"  ..                        XX    ..                        XX  ",
"  ..                        XX    ..                        XX  ",
"  ..                        XX    ..                        XX  ",
"  ..                        XX    ..                        XX  ",
"  ..                        XX    ..                        XX  ",
"  ..                        XX    ..                        XX  ",
"  ..                        XX    ..                        XX  ",
"  ..                        XX    ..                        XX  ",
"  ..                        XX    ..                        XX  ",
"  ..                        XX    ..                        XX  ",
"  ..                        XX    ..                        XX  ",
"  ..                        XX    ..                        XX  ",
"  ..                        XX    ..                        XX  ",
"  ..                        XX    ..                        XX  ",
"  ..                        XX    ..                        XX  ",
"  ..                        XX    ..                        XX  ",
"  ..                        XX    ..                        XX  ",
"  ..                        XX    ..                        XX  ",
"  ..                        XX    ..                        XX  ",
"  ..                        XX    ..                        XX  ",
"  ..                        XX    ..                        XX  ",
"  ..                        XX    ..                        XX  ",
"  ..                        XX    ..                        XX  ",
"  XXXXXXXXXXXXXXXXXXXXXXXXXXXX    XXXXXXXXXXXXXXXXXXXXXXXXXXXX  ",
"  XXXXXXXXXXXXXXXXXXXXXXXXXXXX    XXXXXXXXXXXXXXXXXXXXXXXXXXXX  ",
"                                                                ",
"                                                                "
};
