/* XPM */
static char *_9764ef8a23c4453cf7d72943dc2d3af211bN5d9JbKdkwUv[] = {
/* columns rows colors chars-per-pixel */
"64 64 5 1 ",
"  c None",
". c #2F4F4F",
"X c #D73707",
"o c #EFD72F",
"O c white",
/* pixels */
"                                                                ",
"                                                                ",
"                                                                ",
"                                                                ",
"                                                                ",
"                                                                ",
"                                                                ",
"                                                                ",
"                                                                ",
"                                                                ",
"                                                                ",
"                                                                ",
"                                                                ",
"                                                                ",
"                                                                ",
"                                                                ",
"                                                                ",
"                                                                ",
"                                                                ",
"                                                                ",
"                                                                ",
"                                                                ",
"                                                                ",
"                                                                ",
"                                                                ",
"                                                                ",
"                                                                ",
"                                                                ",
"                                       X.X                      ",
"                                     X....                      ",
"                X                  X.OO..X                      ",
"               X..                .OOOo..                       ",
"               ....             ..OOooo.X                       ",
"               ...o.      X.....OOOoooo.                        ",
"               X.ooo.  ...OOoo.oOOoooo.        ..               ",
"                .ooooX.OOOOoooooooooooX       .OO.              ",
"                .oooXOOOOOooooooooooo.       .OOO.              ",
"                 .oXoOOOoooooooooooo.       XOOoOo.             ",
"                 .Xoooooooooo..ooooX.       .OoOoo.             ",
"                  ..Xooooooo.O..oooo.      XOoOoOoo.            ",
"                  .O.ooooooo....ooooo.    .ooOoOooo.            ",
"                  ...o.oooooo..oooooo.   Xoooooooo.             ",
"                 Xo.ooooooooooooXXooooX  .ooooooo.              ",
"                 .oooo..oo.ooooXXXXooo.  .oooooo.               ",
"                 .Xoo..o..oooooXXXXooooX  .oooo.                ",
"                 .XXooooooooooooXXooooo.   .oo.                 ",
"                  .Xoooooooooooooooooooo.  .ooo.                ",
"                  .ooooooooooooo.Xoooooo.   .oo.                ",
"                   .ooooooooooX.ooooooooo. .oooo.               ",
"                   .o.ooooooo.OoooooooooX..ooooo.               ",
"                  Xooo..oooo.OOOoooooooXX.oooo..                ",
"                  .ooooO.oooo.Ooo..oooXXX.oo..                  ",
"                  .oooOO.ooooo..Xooooooooo.o.                   ",
"                   .ooo.oooooooooooooooooo.XX.                  ",
"                    ...oooooooooooooooooXX.XX.                  ",
"                   .ooooooooooooooooooXXXX.X.                   ",
"                   .ooooooooooooXOooooooXX..                    ",
"                   XoooooooooooXOOooooooo.                      ",
"                    .ooXooooooo.Ooooooooo.                      ",
"                     .ooXXooooo.oooooooo.                       ",
"                      .XooXXXooo.ooooooo.                       ",
"                     .ooo... .....XoooX.                        ",
"                      ...        .oXOo.                         ",
"                                  ....                          "
};
