/* XPM */
static char *_b0b4b463ad046458799a2a04551195ccxdIRNULVoEMfY63[] = {
/* columns rows colors chars-per-pixel */
"64 64 8 1 ",
"  c None",
". c #25131A",
"X c #523B40",
"o c #895A45",
"O c #D1851E",
"+ c #A7ACBA",
"@ c #9BF0FD",
"# c #E6DECA",
/* pixels */
"                                                                ",
"                                                                ",
"                                                                ",
"                                                                ",
"                                                                ",
"                                                                ",
"                                                                ",
"                                                                ",
"                                                                ",
"                                                                ",
"                                                                ",
"                                                                ",
"                                                                ",
"                                                                ",
"                                                                ",
"                                                                ",
"                                                                ",
"                                                                ",
"                                                                ",
"                                                                ",
"                                                                ",
"                                                                ",
"                                                                ",
"                                                                ",
"                                                                ",
"                                                                ",
"                                                                ",
"                                                                ",
"                                                                ",
"                                                                ",
"                                                                ",
"                               ....                             ",
"                              .####.                            ",
"                              .#####.                           ",
"                              .#####.                           ",
"                              .#####.                           ",
"                              .#####.                           ",
"                ...           .#####O..                         ",
"                .@@.         .O####OOO#.                        ",
"                .@@.         .OOOOOOOO##.                       ",
"                 .@@.        .OOOOOOO####.                      ",
"                 .@@@.       .#OOOO#######.                     ",
"                  .@@@...    .########.###.                     ",
"                   .@@@@@.   .#######. .###.                    ",
"                    ..@@@@. .oo######. .###.                    ",
"                      ..@XX.ooo######.  .##.                    ",
"                        .X++oo.######.  .OO.                    ",
"                         .++X..######.  .OO.                    ",
"                          .XX.+#######. .OO.                    ",
"                           ..++#######. .##.                    ",
"                           .++++######. .##.                    ",
"                           .++++++####.  ..                     ",
"                          .+++++..####.                         ",
"                          .++++. .#####.                        ",
"                          .++++. .#####.                        ",
"                         .+++++.  .####.                        ",
"                         .oo++.   .###OO.                       ",
"                         .oooo.    .#OOO.                       ",
"                          .ooo.     .OOO.                       ",
"                          .ooo.      .OOO.                      ",
"                          .oo.       .OO#.                      ",
"                          .++.        .###.                     ",
"                          .++.         .##.                     ",
"                          ....          ...                     "
};
