/* XPM */
static char *result[] = {
/* columns rows colors chars-per-pixel */
"64 64 162 2 ",
"   c black",
".  c #160000",
"X  c #1C0000",
"o  c #07001D",
"O  c #12001C",
"+  c #200000",
"@  c #3E0000",
"#  c #390616",
"$  c #3F111C",
"%  c #3E2200",
"&  c #000034",
"*  c #000039",
"=  c #160234",
"-  c #201234",
";  c #3E3434",
":  c #480000",
">  c #550000",
",  c #41121D",
"<  c #422500",
"1  c #4E3500",
"2  c #573700",
"3  c #55003E",
"4  c #423834",
"5  c #423939",
"6  c #6F293E",
"7  c #564B34",
"8  c #584F39",
"9  c #1F1F4F",
"0  c #4B0042",
"q  c #5D0042",
"w  c #7F0045",
"e  c #681242",
"r  c #7F0059",
"t  c #752C42",
"y  c #3E444F",
"u  c #45494E",
"i  c #564F4F",
"p  c #4F504D",
"a  c #58524F",
"s  c #414852",
"d  c #585252",
"f  c #89043F",
"g  c #8D5100",
"h  c #965900",
"j  c #8D6100",
"k  c #966A00",
"l  c #9D6D00",
"z  c #9C7100",
"x  c #A57100",
"c  c #8B184E",
"v  c #A90350",
"b  c #892956",
"n  c #923A55",
"m  c #993D59",
"M  c #A52454",
"N  c #AC2B5A",
"B  c #A5286E",
"V  c #A43966",
"C  c #AB3C6B",
"Z  c #AA4465",
"A  c #AF4768",
"S  c #B34F66",
"D  c #B24969",
"F  c #B6496B",
"G  c #BA5965",
"H  c #B96A7F",
"J  c #CD7955",
"K  c #D17B59",
"L  c #C88700",
"P  c #C98D00",
"I  c #D28F00",
"U  c #CD9100",
"Y  c #D49500",
"T  c #D89600",
"R  c #D89800",
"E  c #EEA800",
"W  c #F3AC00",
"Q  c #F9B100",
"!  c #FFB800",
"~  c #F3AA1D",
"^  c #F9AE1D",
"/  c #E2963E",
"(  c #E99D3B",
")  c #F4AE34",
"_  c #D78059",
"`  c #E19442",
"'  c #EFAC4F",
"]  c #F4B04F",
"[  c #F4B052",
"{  c #00008A",
"}  c #000094",
"|  c #00299A",
" . c #1D439A",
".. c #003AC7",
"X. c #003FCE",
"o. c #0048C7",
"O. c #1B59C7",
"+. c #1B5CCE",
"@. c #004ED2",
"#. c #1A60D7",
"$. c #005CEE",
"%. c #004BF8",
"&. c #005BF8",
"*. c #0B69EE",
"=. c #196BEF",
"-. c #0A6CF3",
";. c #0063F8",
":. c #006BFE",
">. c #096EF8",
",. c #0871FD",
"<. c #1774FF",
"1. c #1870F8",
"2. c #3D73F4",
"3. c #5377EF",
"4. c #5678EF",
"5. c #567AF4",
"6. c #BC6B81",
"7. c #5585F9",
"8. c #8D8A8A",
"9. c #96938A",
"0. c #9C988A",
"q. c #8D939A",
"w. c #969494",
"e. c #969A99",
"r. c #9C9A9A",
"t. c #A5A094",
"y. c #A5A19A",
"u. c #949CA2",
"i. c #9EA2A1",
"p. c #A3A3A3",
"a. c #CE9E9A",
"s. c #D8A49A",
"d. c #CDA3AC",
"f. c #D3ABB4",
"g. c #9C8ACE",
"h. c #A48DC7",
"j. c #A48FCE",
"k. c #8CA4F8",
"l. c #9BAEF9",
"z. c #9BB1FF",
"x. c #A4B7FC",
"c. c #A4B9FF",
"v. c #C8C7C7",
"b. c #CECCC7",
"n. c #CDCDCE",
"m. c #D2D0C7",
"M. c #D2D3CE",
"N. c #D8D6CE",
"B. c #CED3D4",
"V. c #D2D2D2",
"C. c #D8D7D7",
"Z. c #EBDBDE",
"A. c #CED7FB",
"S. c #D2DBFB",
"D. c #D8DFFF",
"F. c #EEEEEE",
"G. c #F4F3EF",
"H. c #EFF0F8",
"J. c #F3F3F3",
"K. c #F8F5F5",
"L. c #F4F6FD",
"P. c #FAFAFA",
/* pixels */
"+ + + + + + + + + + + + + + + + X + + + + + + + + + + + + + + + + + + + + + + + +     + + + + + + + + + + + + + + + + + + + + + ",
"+ +.+.+.+.+.+.+.+.+.+.+.+.+.+.+.+.+.+.+.+.+.+.+.+.+.+.+.+.+.+.+.+.+.+.+.+.+.+.o.o.C.C.X.+.+.+.+.+.+.+.+.+.+.+.+.+.+.+.+.+.+.+.+ ",
"+ <.<.<.<.<.<.<.<.<.<.<.<.<.<.<.<.<.<.<.<.<.<.<.<.<.<.<.<.<.<.<.<.<.<.<.<.:.:.x.c.C.C.z.<.<.<.<.<.<.<.<.<.<.<.<.<.<.<.<.<.<.<.+ ",
"+ 1.1.1.1.1.1.1.1.1.1.1.1.1.1.1.1.1.1.1.1.1.1.1.1.1.1.1.1.1.1.1.1.1.1.1.>.7.7.G.G.    P.1.1.1.1.1.1.1.1.1.1.1.1.1.1.1.1.1.1.1.+ ",
"+ 1.1.1.1.1.1.1.1.1.1.1.1.1.1.1.1.1.1.1.1.1.1.1.1.1.1.1.1.1.1.1.1.1.1.1.&.L.L.a a .   P.1.1.1.1.1.1.1.1.1.1.1.1.1.1.1.1.1.1.1.+ ",
"+ 1.1.1.1.1.1.1.1.1.1.1.1.1.1.1.1.1.1.1.1.1.1.1.1.1.1.1.1.1.1.1.1.1.1.&.D.r.e.    + n.l.1.1.1.1.1.1.1.1.1.1.1.1.1.1.1.1.1.1.1.+ ",
"+ 1.1.1.1.1.1.1.1.1.1.1.1.1.1.1.1.1.1.1.1.1.1.1.1.1.1.1.1.1.;.;.;.;.;.x.M.g g   +   P.&.1.1.1.1.1.1.1.1.1.1.1.1.1.1.1.1.1.1.1.+ ",
"+ >.1.1.1.1.1.1.1.1.1.1.1.1.1.1.>.>.>.>.>.-.>.>.>.1.1.-.>.>.7.7.7.7.7.J.@ Q ! 2 . a L.1.1.1.1.1.1.1.1.1.1.1.1.1.1.1.1.1.1.1.1.+ ",
"+ ;.1.1.1.1.1.1.1.1.1.1.1.1.1.1.;.;.;.;.;.;.;.;.;.1.1.;.;.;.L.L.L.L.L.u E Q Q W   G.7.1.1.1.1.1.1.1.1.1.1.1.1.1.1.1.1.1.1.1.1.+ ",
"+ A.1.1.1.1.1.1.1.1.1.1.1.1.1.&.D.D.D.D.D.D.D.D.D.&.&.D.D.D.e.r.e.e.e.L ! W ! h C.x.;.1.1.1.1.1.1.1.1.1.1.1.1.1.1.1.1.1.1.1.1.+ ",
"+ P.1.1.1.1.1.1.1.1.1.1.1.1.1.x.m.N.N.N.N.M.M.M.M.x.x.M.M.M.g g g g g ! Q ! Y q.D.&.1.1.1.1.1.1.1.1.1.1.1.1.1.1.1.1.1.1.1.1.1.+ ",
"+ P.1.1.1.1.1.1.1.1.1.1.1.1.1.J.4         : @ @ @ J.G.@ @ @ Q Q Q Q ! Q Q E   P.&.1.1.1.1.1.1.1.1.1.1.1.1.1.1.1.1.1.1.1.1.1.1.+ ",
"+ P.1.1.1.1.1.1.1.1.1.1.1.1.1.7.G.  . . . W E E E s s E E E Q Q Q Q Q Q Q %   P.:.1.1.1.1.1.1.1.1.1.1.1.1.1.1.1.1.1.1.1.1.1.1.+ ",
"+ P.1.1.1.1.1.1.1.1.1.1.1.1.1.;.x.N.    + x ! ! ! L L Q ! Q Q Q Q Q W Q W Y R q.s.:.1.1.1.1.1.1.1.1.1.1.1.1.1.1.1.1.1.1.1.1.1.+ ",
"X K.;.;.;.1.1.1.1.1.1.1.1.1.1.1.&.D.y.y.    L U P Q ! Q Q W Q Q Q Q W Q ! T I h T g.1.1.1.1.1.1.1.1.1.1.1.1.1.1.1.1.1.1.1.1.1.+ ",
"X K.7.7.7.-.1.1.1.1.1.1.1.1.1.1.1.;.L.L.a i s   < Q Q Q Q Q Q W Q Q Q Q ~   s W   Q >.1.1.1.1.1.1.1.1.1.1.1.1.1.1.1.1.1.1.1.1.+ ",
"+ P.H.H.H.;.1.1.1.1.1.1.1.1.1.1.1.-.7.7.G.J.K.  W Q Q Q Q Q Q Q W Q Q Q G . K.2   Q :.1.1.1.1.1.1.1.1.1.1.1.1.1.1.1.1.1.1.1.1.+ ",
"+ P.P.P.P.A.$.1.1.1.1.1.1.1.1.1.1.1.;.;.z.P.u.U Q Q W ! l g ! Q Q ! Q Q B   i.  T k s.:.1.1.1.1.1.1.1.1.1.1.1.1.1.1.1.1.1.1.1.+ ",
"+ K.P.P.P.P.z.1.1.1.1.1.1.1.1.1.1.1.1.1.k.n.g ! Q W W `   u.Y W Q P ` Q J e : l ( q T g.1.1.1.1.1.1.1.1.1.1.1.1.1.1.1.1.1.1.1.+ ",
"+ P.K.P.K.K.P.1.1.1.1.1.1.1.1.1.1.1.1.1.P.  Q Q Q Q Q C X K.  Q Q % S Q Q G G ! C D   Q >.1.1.1.1.1.1.1.1.1.1.1.1.1.1.1.1.1.1.+ ",
"X K.J.P.P.P.P.1.1.1.1.1.1.1.1.1.1.1.1.1.P.X Q Q Q Q W C   u   Q Q E ~ ! Q ^ ~ Q C C . ! :.1.1.1.1.1.1.1.1.1.1.1.1.1.1.1.1.1.1.+ ",
"X P.P.K.K.P.K.1.1.1.1.1.1.1.1.1.1.1.1.&.P.  Q Q Q Q ! ( c c U Q Q ! ! k l z Q Q / / X j s.:.1.1.1.1.1.1.1.1.1.1.1.1.1.1.1.1.1.+ ",
"X P.P.P.K.P.P.;.;.;.;.1.1.1.1.1.1.1.1.z.n.l Q Q Q W ` ( K K Q Q ` Y U 3   0 Q Q ! Q + j Y j.:.1.1.1.1.1.1.1.1.1.1.1.1.1.1.1.1.+ ",
"X P.J.P.P.K.P.7.7.7.7.>.-.1.1.1.1.-.>.P.  Q Q Q Q Q Z C Q Q Q Q S   O D . G Q W Q Q + ! < W 4.1.1.1.1.1.1.1.1.1.1.1.1.1.1.1.1.+ ",
"+ P.P.K.P.P.P.L.L.L.L.;.;.1.1.1.1.;.;.P.. Q Q W Q Q C C Q Q Q Q ~   Z D   ~ Q Q W Q + Q W < ) 1.1.1.1.1.1.1.1.1.1.1.1.1.1.1.1.+ ",
"+ P.P.K.P.P.P.e.e.e.e.D.D.&.1.1.&.D.D.P.X ! Q Q Q Q / / Q W W Q Q U q q U Q Q Q Q ! + Q x P h.1.1.1.1.1.1.1.1.1.1.1.1.1.1.<.<.+ ",
"X P.P.P.n.n.n.g g g g V.N.l.1.1.x.m.N.n.  P Q Q Q Q Q ! Q Q Q Q Q ! k k ! Q Q W ! ` + Q   ! :.1.1.1.1.1.1.1.1.1.1.1.1.1.<.O.o.+ ",
"X P.F.J.@ @ @ Q ! ! ! @   P.1.1.J.5   @ 2 % Q Q W Q Q W Q Q W Q Q W ! Q W Q Q Q ~ V + E 2 ' 1.1.1.1.1.1.1.1.1.1.1.1.1.1.=.= 7 + ",
"+ P.y y E E W Q W Q Q W . P.1.1.3.H.  E E E Q W Q Q W Q Q Q W Q Q W Q Q Q W Q Q S o + % W 3.1.1.1.1.1.1.1.1.1.1.1.1.1.1.9 $.G.+ ",
"+ 8.I L Q Q Q Q Q Q Q Q X K.&.&.S.q.R ! Q ! Q Q Q Q Q Q W Q Q Q Q Q Q Q Q Q Q Q ` U + P j.:.1.1.1.1.1.1.1.1.1.1.1.1.1.1.+ D.P.+ ",
"+ 8.Y ! Q Q Q Q Q Q Q Q   P.x.x.S.9.U Q Q Q Q Q W Q Q Q Q Q W Q Q Q Q W Q W W Q ! Q X ! :.1.1.1.1.1.1.1.1.,.:.:.:.:.:.1.+ D.P.+ ",
"+ P.s E Q Q Q E W ~ Q W $ F.J.J.2.L.< E W Q Q W Q Q W Q Q Q Q Q W Q Q Q Q Q Q Q Q Q + Q 1.1.1.1.>.>.>.>.>.4.4.4.4.4.4.>.9 $.J.+ ",
"X P.J.@ Q ! Q @ @ G Q Q V s u d ' 7.W % 2 Q Q Q Q Q Q W Q Q W Q Q Q W Q Q W Q Q Q Q X Q 1.1.1.1.:.:.:.:.:.] ] ] ] ] ] :.=.= 7 + ",
"+ P.P.n.g g g n.n.e Q Q ` L Y   Q ;.j.L   z K ! Q Q Q Q W Q Q Q Q Q Q Q Q Q Q Q Q W + ! :.:.:.:.s.s.s.s.s.l l l x x x a.<.O.o.+ ",
"+ P.P.P.q.q.q.P.P.  Q Q ! ! ` + Q :.:.! +   r U ` Q Q Q Q Q Q Q W Q Q Q W Q Q W Q Q X P j.j.j.j.Y Y Y Y Y 0 3 q q     ! 1.<.<.+ ",
"X K.P.P.P.P.P.P.P.. E E W ~ C + Q 4.5.Q + , 1 % F W Q W Q Q W Q Q Q W Q Q Q Q Q Q Q + < W W W W O O O O O S A S A . 2 ' 1.1.1.+ ",
"+ P.K.P.P.P.P.P.P.  @ @ 2 G A X ! ] ] Q + A W E ~ Q Q Q Q W Q Q W Q Q W Q W Q Q Q Q + W 1 1 1 1 Z Z Z Z Z A D F ,   W 3.1.1.1.+ ",
"+ P.P.K.K.K.J.P.K.n.n.n.  Z A   k l l ! X t _ _ ! ! W Q Q Q Q Q Q Q Q Q Q Q Q ! ! k   x b b b b D D D D D A F 6   T j.:.1.1.1.+ ",
"X P.P.L.P.L.K.P.P.P.P.P.X S A t 3 3 3 U     c r ` ` Q Q W Q Q W Q Q Q Q Q Q Q P U 0 t q S F D F D D A D D D n   x s.:.1.1.1.1.+ ",
"X K.P.K.K.P.P.P.P.P.L.P.X A A F F F F O $ . # 1 S S Q Q Q Q Q Q W Q Q Q Q E W O O S A D D S A S A D D A Z Z   2 [ :.1.1.1.1.1.+ ",
"X P.P.K.P.K.P.P.P.K.P.P.X S F F D F F A Z   A W ~ ~ Q W Q Q Q Q Q Q Q Q ! 1 @ Z Z A D A A D A A A A S D $ O   W 5.>.1.1.1.<.1.+ ",
"+ P.P.J.L.K.P.J.K.L.J.P.  > > > > > > t F m t _ ! Q Q Q Q Q Q Q ! Q ! g k b B.D D A D A D A A D F D t t   Y R h } <.1.1.<.{ <.+ ",
"+ K.P.P.P.J.P.L.K.P.P.P.r.r.e.r.e.r.e.  f c   w Y W Q Q W Q Q Q L U U u.3 F Z.D D A A D D A A D n n     y.s.R e.0.+.1.1.O.t.O.+ ",
"+ P.K.P.P.P.K.P.P.K.P.P.P.P.P.P.P.P.P.. p p d p   W Q Q Q Q W E y O O K.D A N A A D A A A D D Z     d d L.:.  P.P.+ 1.1.- K.- + ",
"X P.P.P.P.K.P.P.P.P.P.P.K.P.P.P.P.P.P.  G.G.G.F.. Q Q W ! Q @ @ J.Z Z 6.A A A D A D D A A F D $     K.J.7.,.X P.P.+ 1.1.=.8 =.+ ",
"+ P.P.P.P.P.P.J.P.P.P.P.P.P.K.K.K.K.P.B.x.x.x.P.X Q ! ! g g B.M.f.D F N A A A A A A A F F t t   C.C.w.w.{ <.#.0.0.+.1.1.1.o.<.+ ",
"+ P.S.v.A.P.P.J.P.m.v.b.P.P.P.L.P.P.P.P.%.%.&.P.+ ! L L u.u.Z.Z.v A A A A A S A S D S n n     r.V.V.8.8.0.o.@.} { <.1.1.1.<.1.+ ",
"X P.$.; $.K.P.P.F.& ; & F.P.K.P.P.J.K.K.7.7.-.P.X E y y K.K.N N D A A D A A A S A Z Z     a i P.; 5 P.P.P.7 7 -.<.1.1.1.1.1.1.+ ",
"+ K.= J.= K.K.K.p $.G.$.i P.K.K.K.P.P.P.H.H.;.P.+ @ J.J.H H A A A A A A A D F F F $ $     J.F.P.F.J.P.P.P.F.F.* <.1.1.1.1.1.1.+ ",
"+ P...w...P.P.P.  D.P.D.  P.K.P.K.L.J.P.P.P.D.8.  C.f.f.N N A D D A S F F F 6 6 6     C.n.P.P.K.P.P.P.P.P.P.P.n. .1.1.1.1.1.1.+ ",
"+ P.z.8.z.P.P.P.  D.P.D.  L.P.P.K.P.P.P.P.P.m.8.i.Z.v v D A A A F F S n n n       r.p.V.P.P.P.P.P.v.n.v.P.P.P.P.  <.1.1.1.1.1.+ ",
"+ P.P.P.P.P.P.P.i $.F.$.i P.K.P.P.P.P.P.F.F.5 P.P.N A A A D D D Z Z Z       a a d P.J.; P.P.P.P.J.; ; ; F.P.P.K.i =.1.1.1.1.1.+ ",
"+ P.P.P.K.P.P.P.F.& ; * F.P.P.P.P.P.J.P.; ; J.P.6.A A A S D F F $ $ $       F.J.J.P.d G.P.P.P.P.; F.J.F.i K.K.P.F.9 1.1.1.1.1.+ ",
"X P.P.K.P.8.8.P.P.n.v.m.P.z.9.z.P.P.P.8.B.M.f.d.N 6 F F D t 6 >       M.N.N.P.x.x.z.  P.J.P.J.r.v.P.P.P.  P.L.P.P.+ 1.<.<.<.<.+ ",
"+ K.P.P.B.8.8.V.P.P.P.P.P...w...K.P.v.w.Z.Z.v v D   n n c     i.y.y.y.P.D.D.A.&.&.o.r.P.K.P.P.  P.P.P.P.r.P.K.K.P.+ <.O.o.o.O.+ ",
"+ P.K.P.  P.P.  P.P.P.P.K.= J.= P.F.; K.M N A D Z .     u i i J.L.L.L.L.;.;.&.1.<.X P.P.P.K.P.+ P.P.K.P.P.P.P.P.P.+ *.= 7 7 = + ",
"X K.K.P.  P.P.  P.P.P.L.K.$.5 $.P.; K.6.# A D D $       J.J.J.5 7.7.7.5.,.,.,.<.<.  P.K.K.P.K.X P.P.P.K.P.K.P.P.P.+ & $.F.J.$.+ ",
"X L.P.K.V.8.8.V.K.K.K.P.P.A.v.A.P.v.w.:   A D F   V.n.V.P.P.P.v.| :.;.:.{ { { { { C.P.P.P.K.P.+ J.K.L.P.K.P.P.P.r.  n.S.P.P.S.+ ",
"+ P.P.P.P.r.w.P.P.P.P.K.P.P.P.P.P.P.8.r.+ A D n r.P.P.P.v.v.P.P.  <.<.o.0.t.t.0.0.V.P.P.P.K.P.  P.P.L.K.P.P.P.V.  r.P.P.v.v.P.+ ",
"X P.K.P.P.J.J.F.J.F.P.P.P.P.P.P.P.P.P.P.+ D A   P.P.P.F.; 4 J.P.i =.*.7 P.J.K.P.P.; J.P.L.K.P.p F.P.P.P.K.P.J.  d P.P.J.; ; J.+ ",
"+ P.P.P.P.5 5 ; ; ; P.P.P.P.P.P.P.P.P.P.+ A F   P.P.P.5 J.F.d P.F.9 & J.P.5 5 P.P.J.a P.P.P.P.J.; P.P.P.P.P.d   J.P.P.4 F.J.; + ",
"+ P.P.r.r.V.C.V.V.C.r.P.P.P.P.r.r.r.P.P.+ F 6 C.P.P.r.C.P.P.  P.P.+ C.P.r.C.C.r.P.P.  P.P.P.P.P.V.e.r.r.r.r.  C.P.P.r.V.P.P.V.+ ",
"+ V.V.    C.C.C.C.C.  n.n.M.V.      n.M.+ n   C.n.n.  C.n.n.+ n.V.+ C.n.  C.C.  n.n.+ V.V.n.V.V.C.          + C.V.n.  C.n.n.C.+ ",
"+     + +           +         + + X     +   +       +       +     +     +     +     +             + + + + + +       +         + "
};
