/* XPM */
static char *result[] = {
/* columns rows colors chars-per-pixel */
"64 64 119 2 ",
"   c #050000",
".  c #0D0000",
"X  c #130000",
"o  c #1C0004",
"O  c #24010B",
"+  c #3A293A",
"@  c #5F1934",
"#  c #463247",
"$  c #533E56",
"%  c #583F58",
"&  c #762546",
"*  c #7B2749",
"=  c #534058",
"-  c #5B415B",
";  c #715372",
":  c #7A597A",
">  c #84254A",
",  c #832A4E",
"<  c #862C50",
"1  c #8C2C52",
"2  c #942D56",
"3  c #992F58",
"4  c #863256",
"5  c #923057",
"6  c #973059",
"7  c #9C315B",
"8  c #A1335E",
"9  c #A23661",
"0  c #AA3764",
"q  c #AC3866",
"w  c #AF3B69",
"e  c #B33B6B",
"r  c #B93D6E",
"t  c #BD3F71",
"y  c #875B7F",
"u  c #BD4072",
"i  c #C34275",
"p  c #C74478",
"a  c #CB467B",
"s  c #D0477E",
"d  c #D2487F",
"f  c #7F5F82",
"g  c #815F81",
"h  c #856185",
"j  c #9D739D",
"k  c #A06D97",
"l  c #A67CA8",
"z  c #D54981",
"x  c #DB4D85",
"c  c #E14F89",
"v  c #E4508B",
"b  c #ED5491",
"n  c #E45B95",
"m  c #F35493",
"M  c #F85697",
"N  c #F15C99",
"B  c #F85999",
"V  c #EA649E",
"C  c #F8609F",
"Z  c #DB75AB",
"A  c #F862A1",
"S  c #F86AA8",
"D  c #F870AD",
"F  c #E479B1",
"G  c #EC7AB4",
"H  c #EC7EB8",
"J  c #F67AB6",
"K  c #F67DBA",
"L  c #F87EBA",
"P  c #B787B7",
"I  c #BA85B6",
"U  c #BF8DB7",
"Y  c #BC8ABB",
"T  c #C28DBF",
"R  c #CA95B7",
"E  c #EB84BD",
"W  c #F681BD",
"Q  c #F882BE",
"!  c #F3B4B7",
"~  c #F8B8B7",
"^  c #C18EC1",
"/  c #C692C5",
"(  c #C892C6",
")  c #CB96CB",
"_  c #D099CF",
"`  c #D39CD3",
"'  c #EC87C1",
"]  c #EC89C4",
"[  c #EC8EC9",
"{  c #F685C2",
"}  c #F885C2",
"|  c #F589C6",
" . c #F88AC7",
".. c #F68DCA",
"X. c #F88ECB",
"o. c #E493CC",
"O. c #EC92CC",
"+. c #F491CE",
"@. c #F891CE",
"#. c #EC97D2",
"$. c #EC9BD6",
"%. c #ED9DD9",
"&. c #F595D2",
"*. c #F895D3",
"=. c #F499D6",
"-. c #F899D6",
";. c #F49DDA",
":. c #F89DDB",
">. c #DBA2DB",
",. c #F4A1DE",
"<. c #F8A1DE",
"1. c #E2A8E2",
"2. c #F6A3E1",
"3. c #F8A4E2",
"4. c #F9ACEB",
"5. c #F1B0EF",
"6. c #F5B6F5",
"7. c #FAB2F1",
"8. c #F8B8F8",
/* pixels */
"~ 8.8.8.8.8.8.8.8.8.8.8.8.8.8.8.6.6.8.8.8.8.8.8.8.6.8.8.6.8.8.~ 8.8.6.8.8.8.8.8.8.8.8.8.8.8.6.8.8.8.8.8.8.8.8.8.8.8.8.8.8.8.8.8.",
"P @.B B B M B B B M B B B B B B B B B B B B B B B B B B B B B P *.B B B B B B B B B B B B B B B B B B B B M B B B M B B B M < >.",
"P @.*.X.M B -.X.B B -. .B B :.{ B B :.{ B B ,.K B B 3.L B B 3.P X.&.X.B B -.X.B B -.| B B -.| B B ;.} B B <.Q B B 2.L B B 3.h >.",
"P @.e Y @.B w u B B 0 i B B 9 a B B 7 z B B 6 z B B 5 ` L B 1 P X.r Y X.B w u B B 0 p B B 9 p B B 8 a B B 6 d B M 5 ` L B <   >.",
"P @.B e Y X.B B -. .B B -. .B B :.{ B B ,.W B B 2.L B 2 ` L B P &.B e Y X.B B -.| B B -.| B B :.} B B 2.} M B ,.Q M 1 >.L M < >.",
"P @.B B e u B B 0 i B B 9 ( | B 8 a B B 3 z B B 6 z B B 1 z B P X.B B w t B B q i B B 0 ( | B 8 a B B 7 d B B 6 z B B 1 x M < >.",
"P @.&.X.B B &.X.B B -.| B 9 ( | B B :.{ B B 2.W B B 2.K B B 3.P @.&.X.B B -.| B B -. .B 9 / | B B ;.{ B B ;.} B M <.W B B 3.h >.",
"P @.e t B B w u B B 0 a B B 8 a B B 7 z B B 3 _ W B 2 z B B 1 P @.e t B B w i B B 0 p B B 9 a B B 8 a B B 3 ` K B 5 z B B 1   >.",
"P @.B M *.@.B M -.X.B B =.| B B :.{ B B ,.W B 3 ` K B B 2.K B P @.B B *.X.B B -.| B B -.| B B ;.} B B ;.} B 2 ` W M B 2.K B < >.",
"P @.B B e u B B w Y X.B 9 a B B 7 z B B 3 z B B 6 z B B 1 x B P @.B B e t B B 0 ^ X.B 0 p B B 9 s B B 7 d B B 6 z B B 5 z B 4 >.",
"P @.@.+.M M *.X.B w ^  .B B :.{ B B :.} B B ,.W B B 2.K B B 2.P X.&.X.B B -.X.B q ^ | B B -.} B B :.{ B M ,.W B B <.K B M 2.h >.",
"P @.e u C B w i B B 0 p B B 9 a B B 7 ) { B 3 z B B 2 z B B 1 P &.r u B B w i B B q p B B 0 a B B 7 ) } B 3 z B B 5 z B B 1 . >.",
"P @.B B &.+.B M &.X.B B -.| B M :.{ M 7 ) K B B ,.K B B 2.K B P X.B B -.X.B B -...B B -.| B B :.{ B 7 _ Q B B ,.W B B 2.L B < >.",
"P @.B B e Y +.B w i B B 0 a B B 9 a B C 7 z C B 6 z C B 2 ` K P *.B B e Y ..B w p N B 0 p B B 9 s B N 7 d B B 6 z B B 2 ` L 4 >.",
"P @.*.@.B e Y +.B B -.| B B :.| B B ;.W B B :.K M B ,.K B 2 ` P X.@.X.B e Y | B B -.| B B -.| N B ;.} B B ,.W B B ,.K B 2 ` h >.",
"P @.e u B B e i B B 0 p B B 9 ( | B 7 z C B 3 z C B 2 z B B 2 P *.e t B N e i B B 0 p B B 0 / | B 7 z B B 6 z B B 2 x B B 1 X >.",
"P @.B B &. .B B &. .B M =.} M 0 / { B B ;.W B M ,.W C M ,.L B P @.B B @...B B &.| B B =.| B 0 ^ { B B ;.W B B ,.Q B B ,.L B < >.",
"P @.B B e i C B w i B C q p C B 9 a B B 7 z C B 3 _ W B 2 x C P @.B C e i C B q p N B 0 a B B 0 s N B 8 d B B 6 ` W B 2 x B 4 >.",
"P @.@.+.B B &. .M B =. .B B ;.{ M M :.W B B ;.W B 3 _ K M B ,.P @.&...M B &.| B B -...B B -.} B B :.{ B B ,.Q B 6 ` K M M ,.h >.",
"P @.r u N B e i C B q ^ ..B 0 p C B 8 z C B 3 z C B 3 z C B 1 P X.r t C B w i C B q ^ ..B 0 a N B 9 d B B 7 z B B 6 d C B 1 o >.",
"Y @.B B &. .B B &.| M w ^ { B M =.W B B ;.{ B B ,.K B B ,.J B P @.M M &...M B &...B w ^ | B B =.{ B B ;.| B B ,.W M B ,.K M < >.",
"P @.C N e i C B w i C B 0 a C B 8 z C B 7 ) } B 3 z C B 2 x C P @.C B e i C B q i B B 0 p C B 0 a C B 7 ) { B 6 d C B 2 x C 4 >.",
"P @.@...B B &.X.C M &.{ M B =.W M B =.W M 8 ) W B B ,.K B B ,.P &.....B B &...C B &.| B B -.{ B M :.W B 8 _ W B M ,.K B M ,.h >.",
"P @.r i B N e Y ..B q a C C 9 z C C 8 z C C 7 z A B 3 z C B 2 P X.r i C B e Y X.B w p C B 0 p A B 9 s C B 7 d C B 6 x C B 2 o >.",
"P @.B B +.| B e Y { B B &.{ B M =.} B B ;.W M B ;.W M M ;.J B P @.M M +.| B r Y | B B -.{ B B -.| B M ;.W B M ;.W M B ,.J B < >.",
"P @.A B e i C C e p C C w p C C 9 / } C 8 z C B 7 z C C 2 x A P @.C C e t C C e i C B w a C B 9 ( | C 8 d C B 7 z C B 6 z A 4 >.",
"P @.+...C B +.| M M +.{ M M =.{ M 0 ( { B B %.W B B ;.W C M ,.P @.....A B ..| M B &.| B M &.{ B 8 ( W B B ,.W M B ,.W B B %.h >.",
"P @.r P ..C e p C C w p C C 0 p A B 8 z A B 7 z A B 3 _ W B 2 P @.t P ..C r i C B w p C N w a A B 0 d A B 7 d C B 7 _ W B 6 O >.",
"P @.B t I | B B &.{ M B &.| C M =.W M M %.W M M ;.K B 7 _ J B P @.B r P ] B B &.| B B +.| C B &.W B B ;.W B M ;.W B 6 _ K B < >.",
"P @.C C r i A N w p C C q ^ | C 9 z A C 8 z A C 8 z A C 7 z S P @.C C r i C C e i C C w T | B 0 d A C 8 d C C 8 d A B 6 x A 4 >.",
"P +.[ ] b b O.' m b #.E b 7 Y E b b $.H m b $.G b b %.G b b %.P +.[ ] b b [ ' m b O.E b 6 Y E b b #.H b b #.G b m $.G b b %.h >.",
"U Y $ $ $ = $ $ $ $ $ $ $ % % $ $ $ $ $ $ $ $ $ $ $ $ $ $ $ $ Y Y $ $ = $ $ $ $ = $ = = - = $ = = $ $ = = $ = = = $ = = = $ - >.",
"! 7.7.7.7.7.7.7.7.7.7.7.7.7.7.7.5.6.8.7.7.7.7.7.7.7.7.7.7.7.7.~ 8.7.7.7.7.7.7.7.7.7.7.7.7.7.7.5.6.7.7.7.7.7.7.7.7.7.7.7.7.7.5.6.",
"P +.C N m M M m M M M M M M M m 7 ) Q M M M M M M M M M C b b P @.C N m M M M M M M m M M M M 3 ) } M M M M M M M M M C m m > >.",
"P @...l u M B B M M M B M M B B 8 ) } B M M B M B M B B ,.: x U @.] l t B B M M B B B M M B B 9 ) } M B B M B B M M B %.f x < >.",
"P @.u @ i M B B B M B B M M B M 8 ) Q B M B B B B B B B 7 @ d P @.t @ p M M B M M B B B M M M 9 ) } M B B M B M M M B 7 @ x < >.",
"P @.M B M B B B B B B B M B B B 8 ) | B B M B M M B M B B B M P &.B B B B B B B M B B B N M N 9 ) } B B M B B B B B B B B B < ` ",
"P @.B B B B M B B M B M B B M B 9 ) Q B B M B B B B B B M M B P @.M B B B M B M B B B M B M M 9 ) } B M B B B M B M B M B B < 1.",
"P @.M B B B B M B M B M B B B B 8 ) | B B B B B B B M B C M M P @.M B M B B B M M B M B B B M 9 ) } B B M B M B M B B B B B < ` ",
"P @.M B M B B B B B B B B B B B 9 ) Q B B M B M B M B B M B B P @.M B M B M B B B B B B B B M 9 ) } B B B B B B B B B M B B < 1.",
"P @.B B M B M B B B M B M B B M 9 ) | B B B B M B M B B B M M P @.B B M M B B B B B B M B B M 9 ) { B B B B B B M B B M B M < ` ",
"P @.B M B B B B B M B B B B B B 9 ) Q M B M B B B B B M B B M P @.M B B B B M B M B B B B B B 9 ) { M B M B M B B B B B B B < 1.",
"P @.B B B B M B B b B B M B M M 7 / ] B B B B M B M B M B M M P &.M B M M B M B B M B M B B M 8 ) } B M B B B M M M B M B M < ` ",
"P @.B B M B M B B B M M B B B B u / Q C M M B B B M B B M B C P @.B B B B B B B B B B B B N M 9 ) } B B M B B B B B B B B B < 1.",
"P @.B M B B B B B B B B B B B B 8 ) Q B B M B B B B B B B B B P @.M M B B B M B B M M N B B B 9 ) } B B B B M M B B B B B B < ` ",
"P @.B B B B M B B B B B B B B B 8 ) | B B B B M B B M B M B M P @.M B B B M B B M B M M B B B 9 ) } M B B B B B M M B B M B < 1.",
"P [ v v v v c v v v v v v v v v 5 U F c v v c v v v v v c v c P +.v v v v v v v v v v v v v v 5 Y F c v v v v v v v v v c c * ` ",
"P / ; ; ; ; ; ; ; ; ; ; ; ; ; ; # - ; ; ; ; ; ; ; ; ; ; ; ; ; P ^ ; ; ; ; ; ; ; ; ; ; ; ; ; ; # % ; ; ; ; ; ; ; ; ; ; ; ; ; + 1.",
"P 7.4.4.4.4.4.4.4.4.4.4.4.4.4.4.j ) 6.4.4.4.4.4.4.4.4.4.4.4.4.P 7.4.4.4.4.5.4.4.4.4.4.4.4.4.5.k ) 7.4.4.4.4.4.4.4.4.4.4.4.4.g ` ",
"P @.M B M M M M B M M M M M B M 7 ) Q B M M M M M C M M M M M P @.M M M M m B M M M M M M M B 8 ) } M M B M M M M B B M M M 1 1.",
"P @.B B B B M B B B B B M C B M 9 ) Q B B M B M M M M M M C C P @.B M B M B B M B B M B B B B 8 ) } B B B M B B B M B M B B , ` ",
"P +.B M M B B B M B M B M M B B 9 ) Q B B B B B M M C M M M M P @.B B B B M B B B B B B M B B 9 ) } M B B B M B B B B B B M 1 1.",
"P @.B M B B B M C M M C M M C M 9 ) | M B B M M M C M M M C M P @.M B B B M B M M M B B B B M 9 ) } B B M B B M B M B M M B , ` ",
"P @.B B M B B B M M M M M B M M 9 ) Q C M M B B M M M C M M M P @.B B M B B B B B B M B B B B 8 ) } B M B B B B B B B B B B < 1.",
"P @.M M B M B B M M M M M M M M 9 ) Q B B B B M M M M M M C M P @.M B M B M B B B M B B B B M 9 ) } B B M M B M B M M B M B < ` ",
"P @.B B B B B M M M M M C M M C 9 ) Q B B M B B M C M M M M M P @.B B B B M B M B B B M B B N 9 ) } B B B B B B B B B B B B < 1.",
"P @.M M M B B B C M M M C M M C 7 _ | B B B B M B M B M B B B P @.B B B B B M B B B B B B M B 8 ) } M B B B B B B M M B B B < ` ",
"P ..C M M B M B M M M M M M M M 9 ) | B M B B B B B B B B M B P @.B B B B B M B M B M B B B B 8 ) } B B M B M B B B B B M B < 1.",
"P @.C M M C B M M M M M M M M M 8 ) } B B M B M B M B B M B M P @.M B B B B B B B B M B B B B 9 ) } M B B B B B B B B B B B < ` ",
"P @.C V b M B M C M M C M M C M 8 ) } B B B B B B B M B D n m P @.S V b M B M B M B B B M B M 9 ) } B B B M B B M B M D n m , 1.",
"P @.E j u B B B M M M M C M M M 8 ) | B B M B B B B B M _ : d P @.E j u B M B B M B B B B B B 9 ) } B B B B B B B B B o.: z 1 >.",
"P @.p , a C B B M M C C M M M C 8 ) Q B B B B B M B B B u , v I @.p , s B B m B B C B M B B B 9 ) } M B B B B B B B B e , c < >.",
"P [ x x x x x x x x x x x c d x 1 P Z x x x x x x x x x x x x P O.x x x x x x x x x x x x x c 5 P F x x x x x x x x x x x x & >.",
"R ) h h h h h h h h h h h h h y h h h h h h h h h h h h h h h R / h h h h h h h h h h h g g g g g h g g h h h h h g h h h h g 1."
};
