/* XPM */
static char *result[] = {
/* columns rows colors chars-per-pixel */
"64 64 146 2 ",
"   c #000200",
".  c #0C0D0D",
"X  c #1F001B",
"o  c #171218",
"O  c #1B111B",
"+  c #33002F",
"@  c #201720",
"#  c #3E003A",
"$  c #2B212B",
"%  c #3C2B3C",
"&  c #41003C",
"*  c #4A0045",
"=  c #451642",
"-  c #471C44",
";  c #64005E",
":  c #472145",
">  c #482547",
",  c #4B2C49",
"<  c #493449",
"1  c #6F0068",
"2  c #74006D",
"3  c #760D6F",
"4  c #75116E",
"5  c #770070",
"6  c #7C0074",
"7  c #770A70",
"8  c #7D0C76",
"9  c #7F0278",
"0  c #7A1674",
"q  c #7C1A76",
"w  c #7E1F78",
"e  c #6A3267",
"r  c #7D2477",
"t  c #782B73",
"y  c #7E3C7A",
"u  c #5F455F",
"i  c #6F516F",
"p  c #7A597A",
"a  c #84017C",
"s  c #830C7B",
"d  c #83157C",
"f  c #851C7E",
"g  c #85227E",
"h  c #822C7D",
"j  c #8B0082",
"k  c #8B0B83",
"l  c #93018B",
"z  c #98028F",
"x  c #940B8C",
"c  c #8B1283",
"v  c #8C1A84",
"b  c #93148B",
"n  c #941C8C",
"m  c #9A0191",
"M  c #9B0C93",
"N  c #9A1492",
"B  c #9D1C95",
"V  c #A00097",
"C  c #A3009A",
"Z  c #A8029F",
"A  c #A40C9B",
"S  c #A5169C",
"D  c #A8139E",
"F  c #A51B9C",
"G  c #A81E9F",
"H  c #8D2586",
"J  c #8C2B85",
"K  c #95238D",
"L  c #932C8C",
"P  c #8D3988",
"I  c #9C2594",
"U  c #9B2993",
"Y  c #A22499",
"T  c #A7309F",
"R  c #AC01A3",
"E  c #AB0CA1",
"W  c #B102A6",
"Q  c #B10CA7",
"!  c #B502AB",
"~  c #B903AF",
"^  c #B50BAB",
"/  c #AD14A4",
"(  c #AD1CA4",
")  c #B11AA7",
"_  c #B314A9",
"`  c #B913AF",
"'  c #B51CAB",
"]  c #B91DAF",
"[  c #BC00B1",
"{  c #BB0CB1",
"}  c #BC14B2",
"|  c #BD1CB3",
" . c #AC23A3",
".. c #B520AB",
"X. c #C000B5",
"o. c #C500BA",
"O. c #CA00BF",
"+. c #8B4086",
"@. c #865F85",
"#. c #9B4095",
"$. c #A3559F",
"%. c #876187",
"&. c #886488",
"*. c #966094",
"=. c #916A91",
"-. c #B448AD",
";. c #B77DB6",
":. c #BD72B9",
">. c #CD00C1",
",. c #D300C7",
"<. c #D600CA",
"1. c #D800CC",
"2. c #DC3ED1",
"3. c #DC40D1",
"4. c #DF57D6",
"5. c #E265DA",
"6. c #E36CDC",
"7. c #E473DD",
"8. c #E678DF",
"9. c #E77BE0",
"0. c #E87FE2",
"q. c #B787B7",
"w. c #B984B8",
"e. c #BD8BBC",
"r. c #C085BE",
"t. c #C485C2",
"y. c #C592C5",
"u. c #CB96CB",
"i. c #CF99CF",
"p. c #D39CD3",
"a. c #D89CD7",
"s. c #D7A0D7",
"d. c #D9A1D9",
"f. c #E884E3",
"g. c #EB8CE6",
"h. c #EC8FE8",
"j. c #EC91E7",
"k. c #ED94E9",
"l. c #EF99EC",
"z. c #F09DED",
"x. c #E2A7E2",
"c. c #F1A0EF",
"v. c #EDB1ED",
"b. c #F2A3F0",
"n. c #F3B4F3",
"m. c #F9BAF9",
/* pixels */
"m.m.m.m.m.m.m.m.m.m.m.m.m.m.m.m.m.m.m.m.m.m.m.m.m.m.m.m.m.m.m.m.m.m.m.m.m.m.m.m.m.m.m.m.m.m.m.m.m.m.m.m.m.m.m.m.m.m.m.m.m.m.m.m.",
"q.f.<.<.1.1.1.<.<.1.1.1.1.1.<.<.1.1.,.1.1.1.1.1.1.1.,.1.1.<.,.1 q.f.1.<.<.1.1.<.<.1.<.1.<.<.<.1.<.1.<.<.1.<.<.<.<.1.<.<.1.<.<.1 ",
"q.f.g.f.1.1.h.f.1.1.j.0.1.1.k.8.1.1.z.7.1.1.z.6.1.1.c.6.1.1.c.&.q.f.h.f.1.1.g.f.1.1.k.f.1.1.k.8.1.1.l.7.<.1.z.7.1.1.c.5.1.1.b.&.",
"q.f.z e.f.1.l C 1.1.j Z 1.1.a W 1.1.a W 1.1.6 W 1.1.2 a.5.1.2   q.f.z e.f.<.l C <.1.l Z 1.1.a W 1.1.a W <.<.a W <.1.5 s.5.1.1   ",
"q.f.1.m e.f.1.1.j.0.1.1.k.8.1.1.l.8.1.1.z.7.1.1.z.6.1.5 s.5.1.2 q.f.1.z e.f.1.1.j.8.1.1.k.8.1.1.l.7.1.1.z.7.1.1.z.6.1.5 d.5.1.5 ",
"q.f.1.1.z C 1.1.l Z 1.1.j y.8.1.a W 1.1.a W 1.1.6 ! 1.1.2 ~ 1.2 q.f.1.1.z V 1.1.l C 1.1.a u.8.1.a W 1.1.a W <.1.5 ~ 1.1.5 ~ <.5 ",
"q.f.g.f.1.1.h.f.1.1.j.0.1.j u.8.1.1.z.7.1.1.z.6.1.1.c.6.1.1.c.&.q.f.g.f.1.1.g.f.1.1.k.8.1.l u.8.1.1.l.7.1.1.z.6.1.1.c.6.1.1.c.&.",
"q.f.z m 1.1.l C 1.1.l Z 1.1.a W 1.1.a W ,.1.9 p.6.1.5 ~ 1.1.2   q.f.z V 1.<.z C 1.<.l R 1.1.a W 1.1.a W 1.1.a i.6.1.5 ~ 1.1.1   ",
"q.f.1.1.g.f.1.1.j.8.1.1.z.8.1.1.l.8.1.1.z.7.1.6 a.6.1.1.c.5.1.5 q.f.1.1.g.f.1.1.j.f.1.1.l.9.1.1.l.8.1.1.z.7.1.6 a.6.1.1.c.5.1.5 ",
"q.f.1.1.z C 1.1.l y.8.1.j Z 1.1.a W 1.1.a W 1.1.6 ! 1.1.5 ~ 1.2 q.f.1.1.z V 1.1.l r.8.1.a W 1.1.a R <.<.a W <.1.a ! 1.1.5 ~ <.2 ",
"q.f.g.f.1.1.h.0.1.l r.8.1.1.l.8.1.1.z.7.1.1.z.6.1.1.c.6.1.1.c.&.q.f.g.f.1.1.j.8.<.l y.8.1.1.j.8.1.1.l.7.1.1.z.6.<.<.z.6.1.1.c.&.",
"q.f.z C <.1.z C <.1.x Z 1.1.j W 1.1.a p.6.1.a W 1.1.5 ~ <.1.2   q.f.m V 1.1.z Z <.1.l R 1.1.a R 1.1.a p.6.1.a ! <.<.5 ~ 1.1.2   ",
"q.f.1.1.j.f.1.1.k.8.1.1.j.8.1.1.l.7.1.a i.7.1.1.z.6.1.1.c.5.1.2 q.f.1.1.g.f.1.1.j.f.1.1.k.8.1.1.l.7.1.a p.6.1.1.z.6.1.1.c.5.1.2 ",
"q.f.1.<.x r.0.1.l A 1.1.k W 1.1.s ! 1.1.s ! 1.1.8 ! 1.1.7 d.5.2 q.f.1.1.x r.0.1.x Z 1.1.k R <.<.k W 1.1.s ! ,.1.8 ~ ,.1.7 d.5.2 ",
"q.f.g.f.1.x r.f.1.1.k.8.1.1.k.8.1.1.l.7.<.1.z.6.1.1.z.6.<.4 d.&.q.f.g.f.1.x r.f.<.1.j.8.1.1.k.8.1.1.z.7.1.1.z.6.1.1.z.6.1.7 d.&.",
"q.f.M A 1.1.x A 1.1.x E 1.1.k y.7.1.s Q 1.1.s ^ 1.1.8 ~ <.<.0   q.f.M A 1.1.b A 1.<.x A 1.1.x u.7.1.s Q <.1.s ^ 1.1.8 { 1.1.4   ",
"q.f.<.<.g.f.1.<.h.8.1.1.j.8.1.c u.8.1.1.z.6.1.1.c.6.O.1.z.5.<.2 q.f.1.<.g.f.<.<.j.8.1.1.j.8.1.d u.8.1.1.z.6.1.1.z.6.<.1.z.5.1.2 ",
"q.f.1.<.N A 1.1.b D 1.1.b Q 1.,.c Q ,.1.d ^ 1.1.d p.6.1.q X.1.1 q.f.1.1.N A <.<.x D 1.1.b Q 1.<.c Q 1.1.d ^ 1.1.d p.5.<.0 { 1.2 ",
"q.f.g.f.<.1.g.8.1.1.h.8.,.1.k.8.1.<.k.8.1.1.z.6.<.d p.6.,.<.c.&.q.f.g.f.<.<.j.f.1.1.j.8.<.1.j.8.<.1.k.7.<.<.l.6.<.q a.6.<.<.c.%.",
"q.f.N S 1.1.N D 1.1.b y.8.1.v Q 1.1.v Q 1.1.f ^ <.<.d { <.<.q . q.f.N S 1.1.N D 1.1.b y.8.1.n / 1.1.c _ <.1.f ` <.<.q { <.<.q . ",
"q.f.<.<.g.f.<.<.j.0.1.n y.8.<.<.k.7.<.1.k.6.<.<.l.6.<.1.c.6.<.2 q.f.<.<.g.8.1.<.j.8.1.n y.8.<.<.k.7.<.1.k.6.<.<.z.6.<.<.c.5.<.2 ",
"q.f.1.1.B F 1.1.n D 1.<.n / <.1.v _ 1.1.v i.6.1.f ` <.1.r X.<.1 q.f.1.<.B S 1.1.n / 1.,.n / <.1.v _ 1.1.v p.6.1.f ` 1.1.w } <.2 ",
"q.f.f.f.<.1.g.8.<.<.g.8.<.<.j.8.<.<.k.7.<.g p.6.<.<.z.6.,.<.c.%.q.f.g.f.,.1.g.8.<.1.j.8.<.<.h.8.,.1.l.6.,.g p.6.,.1.z.5.<.<.z.&.",
"q.f.Y F 1.1.I r.8.1.K ) <.1.n ) 1.1.v ' 1.<.g ' 1.<.g ` 1.<.h o q.f.F F 1.1.I y.8.1.n ( <.1.n ) 1.1.H ' 1.,.g ` 1.1.g ` 1.1.r o ",
"q.f.<.<.g.8.<.K y.8.<.<.j.8.<.<.k.7.,.<.k.6.,.1.z.5.<.1.c.5.,.1 q.f.,.<.f.8.<.K y.8.<.<.h.8.,.<.h.7.<.1.k.6.<.<.l.6.,.1.z.6.,.2 ",
"q.f.<.<.Y Y 1.<.K ( 1.1.K ) 1.1.K u.6.1.H ' 1.1.g ] 1.1.h X.<.2 q.f.<.<.Y Y 1.1.K G 1.1.K ) <.1.K u.7.1.H ' 1.1.g ` 1.1.h X.<.2 ",
"q.f.f.f.<.<.h.8.,.<.g.8.,.<.j.8.,.J i.6.,.1.k.6.,.1.z.5.,.<.z.%.q.f.f.f.,.<.g.8.,.<.h.8.<.<.j.8.,.H u.7.<.<.k.6.,.1.z.5.,.,.c.%.",
"q.f.Y r.8.1.Y Y 1.1.I  .1.<.L ..1.,.J ' 1.1.J ] 1.1.h a.5.1.h @ q.f.Y r.8.<.Y  .1.1.I  .1.1.K ..1.,.J ' <.1.J ] 1.1.h a.5.<.h @ ",
"q.f.,.U r.f.<.<.g.8.,.<.g.8.<.<.j.7.,.<.k.6.,.<.l.5.,.h a.5.,.1 q.f.,.Y r.f.,.<.g.8.,.<.g.8.,.<.j.7.,.<.l.6.,.1.l.6.,.h a.7.,.1 ",
"q.f.1.<.U  .1.1.Y  .1.1.U y.8.1.L ' 1.1.J ] 1.1.J | 1.,.h X.1.2 q.f.1.,.U  .1.1.Y  .1.1.U y.8.1.L ..1.1.J ' 1.1.J ] 1.,.h X.<.3 ",
"q.f.f.8.<.<.f.8.,.<.g.8.<.L u.8.<.1.j.6.<.<.k.6.,.1.l.5.,.<.v.%.q.f.f.0.<.,.g.8.,.<.g.8.,.L i.8.<.<.j.7.,.1.z.8.,.1.c.6.,.<.z.@.",
"q.q.> : & & > : & & > : & X % & & & , - & & , - & & , = & & < O q.q.> : & & > : & & , - & X % & & & , = & & , & & & < & & & , O ",
"n.n.v.v.v.v.v.v.v.v.v.v.v.v.v.v.v.v.v.v.v.v.v.v.v.v.v.v.v.v.v.v.n.n.v.v.v.v.v.v.v.v.v.v.v.v.v.v.v.v.v.v.v.v.v.v.v.v.v.v.v.v.v.v.",
"e.h.2.2.3.3.3.3.3.2.2.2.2.2.2.2.#.i.f.2.3.2.2.3.2.2.2.2.2.2.2.+.r.g.2.2.3.3.3.3.3.3.3.3.3.3.3.3.#.p.0.3.3.3.3.3.3.3.3.3.2.3.3.+.",
"q.f.f.;.E 1.1.1.1.1.1.1.1.1.1.1.j u.7.1.1.1.1.1.1.1.<.1.l.*.o.2 q.f.f.w.Z 1.1.1.1.1.1.1.1.1.1.1.j u.7.<.1.1.1.1.1.1.1.1.l.*.[ 5 ",
"q.f.T % C 1.1.1.1.1.1.1.1.1.1.1.j u.9.1.1.1.1.1.1.1.<.<.P $ [ 2 q.f.T % C 1.1.1.1.1.1.1.1.1.1.1.j u.7.<.1.1.1.1.1.1.1.1.P $ [ 5 ",
"q.f.,.O.,.1.1.1.1.1.1.1.1.1.1.1.j u.7.<.1.1.1.1.1.1.1.1.,.O.<.2 q.f.,.O.,.1.1.1.1.1.1.1.1.1.1.1.j u.7.<.<.1.1.1.1.1.1.1.,.>.<.5 ",
"q.f.1.1.1.1.1.1.1.1.1.1.1.1.1.1.j u.7.<.1.1.1.1.1.1.1.1.1.1.1.2 q.f.1.1.1.1.1.1.1.1.1.1.1.1.1.1.j u.7.<.1.1.1.1.1.1.1.1.<.<.<.5 ",
"q.f.1.1.1.1.1.1.1.1.1.1.1.1.1.1.j u.7.<.1.1.1.1.1.1.1.1.1.1.1.2 q.f.1.1.1.1.1.1.1.1.1.1.1.1.1.1.j u.7.<.1.1.1.1.1.1.1.1.1.1.<.5 ",
"q.f.1.1.1.1.1.1.1.1.1.1.1.1.1.1.j u.7.<.1.1.1.1.1.1.1.1.1.1.1.5 q.f.1.1.1.1.1.1.1.1.1.1.1.1.1.1.j u.7.<.1.1.1.1.1.1.1.1.1.<.<.2 ",
"q.f.1.1.1.1.1.1.1.1.1.1.1.1.1.1.j u.7.<.<.1.1.1.1.1.1.1.1.1.1.2 q.f.1.1.1.1.1.1.1.1.1.1.1.1.1.1.j u.7.1.1.1.1.1.1.1.1.1.1.1.1.5 ",
"q.f.1.1.1.1.1.1.1.1.1.1.1.1.1.1.j u.7.<.1.1.1.1.1.1.1.1.1.1.1.2 q.f.1.1.1.1.1.1.1.1.1.1.1.1.1.1.j u.7.1.1.1.1.1.1.1.1.1.1.1.1.2 ",
"q.f.<.1.1.1.1.1.1.1.1.1.1.1.1.1.j u.7.<.1.1.1.1.1.1.1.1.1.1.1.2 q.f.1.1.1.1.1.1.1.1.1.1.1.1.1.1.j u.7.1.1.1.1.1.1.1.1.1.1.1.1.2 ",
"q.f.1.1.1.1.1.1.1.1.1.1.1.1.1.1.j u.7.<.1.1.1.1.1.1.1.1.1.1.1.2 q.f.1.1.1.1.1.1.1.1.1.1.1.1.1.1.j u.7.1.1.1.1.1.1.1.1.1.1.1.1.2 ",
"q.f.1.1.1.1.1.1.1.1.1.1.1.1.1.1.j u.7.1.1.1.1.1.1.1.1.1.1.1.1.2 q.f.1.1.1.1.1.1.1.1.1.1.1.1.1.1.j u.7.<.1.1.1.1.1.1.1.1.1.1.1.2 ",
"q.g.1.1.1.1.1.1.1.1.1.1.1.1.1.1.j u.7.1.1.1.1.1.1.1.1.1.1.1.1.2 q.f.1.1.1.1.1.1.1.1.1.1.1.1.1.1.j u.7.1.1.1.1.1.1.1.1.1.1.1.1.2 ",
"q.f.1.1.1.1.1.1.1.1.1.1.1.1.<.<.j u.7.1.1.1.1.1.1.1.1.1.1.1.1.2 q.f.1.1.1.1.1.1.1.1.1.1.1.1.1.1.j u.7.1.1.1.1.1.1.1.1.1.1.1.1.2 ",
"q.e.; ; ; ; ; ; ; ; ; ; ; ; ; ; # u e ; ; ; ; ; ; ; ; ; ; ; ; + q.r.; ; ; ; ; ; ; ; ; ; ; ; ; ; # u e ; ; ; ; ; ; ; ; ; ; ; ; + ",
"q.v.x.x.x.x.x.x.x.x.x.x.x.x.x.x.=.q.x.x.x.x.x.x.x.x.x.x.x.x.x.p q.v.x.x.x.x.x.x.x.x.x.x.x.x.x.x.=.q.x.x.x.x.x.x.x.x.x.x.x.x.x.p ",
"q.h.4.4.4.4.4.4.4.4.4.4.4.4.4.4.P u.f.4.4.4.4.4.4.4.4.4.4.4.4.t q.k.4.4.4.4.4.4.4.4.4.4.4.4.4.4.P u.f.4.4.4.4.4.4.4.4.4.4.4.4.t ",
"q.f.1.1.1.1.1.1.1.1.1.1.1.1.1.1.j u.7.1.1.1.1.1.1.1.1.1.1.1.1.2 q.f.1.1.1.1.1.1.1.1.1.1.1.1.1.1.j u.7.1.1.1.1.1.1.1.1.1.1.1.1.2 ",
"q.f.1.1.1.1.1.1.1.1.1.1.1.1.1.1.j u.7.1.1.1.1.1.1.1.1.1.1.1.1.5 q.f.1.1.1.1.1.1.1.1.1.1.1.1.1.1.j u.7.1.1.1.1.1.1.1.1.1.1.1.1.2 ",
"q.f.1.1.1.1.1.1.1.1.1.1.1.1.1.1.j u.7.<.1.1.1.1.1.1.1.1.1.1.1.2 q.f.1.1.1.1.1.1.1.1.1.1.1.1.1.1.j u.7.1.1.1.1.1.1.1.1.1.1.1.1.2 ",
"q.f.1.1.1.1.1.1.1.1.1.1.1.1.1.1.j u.7.<.1.1.1.1.1.1.1.1.1.1.1.2 q.f.1.1.1.1.1.1.1.1.1.1.1.1.1.1.j u.7.1.1.1.1.1.1.1.1.1.1.1.1.2 ",
"q.f.1.1.1.1.1.1.1.1.1.1.1.1.1.1.j u.7.1.1.1.1.1.<.1.1.1.1.1.1.2 q.f.1.1.1.1.1.1.1.1.1.1.1.1.1.1.j u.7.1.1.1.1.<.1.1.1.1.1.1.1.2 ",
"q.f.1.1.1.1.1.1.1.1.1.1.1.1.1.1.j u.7.1.1.1.1.1.1.1.1.1.1.1.1.2 q.f.1.1.1.1.1.1.1.1.1.1.1.1.1.1.j u.7.,.1.1.1.1.1.1.1.1.1.1.1.2 ",
"q.f.1.1.1.1.1.1.1.1.1.1.1.1.1.1.j u.7.<.1.1.1.1.1.1.1.1.1.1.1.2 q.f.1.1.1.1.1.1.1.1.1.1.1.1.1.1.j u.7.1.1.1.1.1.1.1.1.1.1.1.1.2 ",
"q.f.1.1.1.1.1.1.1.1.1.<.1.1.1.1.j u.7.<.1.1.1.1.1.1.1.1.1.1.1.2 q.f.1.1.1.1.1.1.1.1.1.1.1.1.1.1.j u.7.1.1.1.1.1.1.1.1.1.1.1.1.2 ",
"q.f.1.1.1.1.1.1.1.1.1.1.1.1.1.1.j u.7.1.1.1.<.1.1.1.1.1.1.1.1.2 q.f.1.1.1.1.1.1.1.1.1.1.1.1.1.1.j u.7.1.1.1.1.1.1.1.1.1.1.1.1.2 ",
"q.f.1.1.1.1.1.1.1.1.1.1.1.1.1.1.j u.7.1.1.1.1.1.1.1.1.1.1.1.1.2 q.f.1.1.1.1.1.1.1.1.1.1.1.1.1.1.j u.7.1.1.1.1.1.1.1.1.1.1.1.1.2 ",
"q.f.9.:.! 1.1.1.1.1.1.1.1.1.1.1.j u.7.1.1.1.1.1.1.1.1.1.h.$.o.2 q.f.9.:.! 1.1.1.1.1.1.1.1.1.1.1.j u.7.<.1.1.1.1.1.1.1.1.h.$.o.2 ",
"q.f.-.u C 1.1.1.1.1.1.1.1.1.1.1.j u.7.1.1.1.1.1.1.1.1.1.$.< [ 2 q.f.-.u C 1.1.1.1.1.1.1.1.1.1.1.j u.7.<.1.1.1.1.1.1.1.1.$.< [ 2 ",
"q.f.O.[ >.1.1.1.1.1.1.1.1.1.1.1.j u.7.1.1.1.1.1.1.1.1.1.o.[ ,.2 q.f.O.[ O.1.1.1.1.1.1.1.1.1.1.1.j u.7.1.1.1.1.1.1.1.1.1.o.[ ,.2 ",
"q.t.5 5 5 5 5 5 5 5 5 5 5 5 5 5 * i y 5 5 5 5 5 5 5 5 5 5 5 5 # q.t.5 5 5 5 5 5 5 5 5 5 5 5 5 2 * i y 5 5 5 5 5 5 5 2 6 2 6 2 # "
};
