/* XPM */
static char *result[] = {
/* columns rows colors chars-per-pixel */
"64 64 96 2 ",
"   c #1A1E4B",
".  c #59596E",
"X  c #5A596E",
"o  c #5A596F",
"O  c #5A5A6F",
"+  c #5B5A6F",
"@  c #5B5B6F",
"#  c #5B5B70",
"$  c #5C5B70",
"%  c #5C5C71",
"&  c #5D5C71",
"*  c #5D5C72",
"=  c #5E5C72",
"-  c #5E5D72",
";  c #5F5D72",
":  c #5F5E72",
">  c #605E72",
",  c #605E73",
"<  c #605F73",
"1  c #615F73",
"2  c #615F74",
"3  c #625F74",
"4  c #625F75",
"5  c #626075",
"6  c #636075",
"7  c #30309A",
"8  c #636195",
"9  c #646195",
"0  c #646295",
"q  c #646296",
"w  c #656296",
"e  c #666496",
"r  c #666497",
"t  c #676497",
"y  c #676498",
"u  c #686498",
"i  c #686598",
"p  c #696598",
"a  c #696698",
"s  c #6A6698",
"d  c #6B6798",
"f  c #6B6799",
"g  c #6C689A",
"h  c #6C689B",
"j  c #6D689B",
"k  c #6D699B",
"l  c #6E699B",
"z  c #6E699C",
"x  c #7C7CA8",
"c  c #7D7CA8",
"v  c #7D7CA9",
"b  c #7D7DA9",
"n  c #7E7DA9",
"m  c #7E7EAA",
"M  c #7F7EAA",
"N  c #7F7FAA",
"B  c #6366C2",
"V  c #807FAA",
"C  c #807FAB",
"Z  c #817FAB",
"A  c #7795E0",
"S  c #8280AB",
"D  c #8280AC",
"F  c #8281AC",
"G  c #8381AC",
"H  c #8481AC",
"J  c #8481AD",
"K  c #8482AD",
"L  c #8582AE",
"P  c #8682AE",
"I  c #8683AE",
"U  c #8683AF",
"Y  c #8783AF",
"T  c #8692B7",
"R  c #8792B7",
"E  c #8793B7",
"W  c #8793B8",
"Q  c #8794B8",
"!  c #8894B8",
"~  c #8895B8",
"^  c #8995B8",
"/  c #8995B9",
"(  c #8996B9",
")  c #8A96B9",
"_  c #8A96BA",
"`  c #8B96BA",
"'  c #8C97BA",
"]  c #8D98BA",
"[  c #8D98BB",
"{  c #8E98BB",
"}  c #8E98BC",
"|  c #8E99BC",
" . c #8F99BD",
".. c #909ABD",
"X. c #909ABE",
"o. c #919ABE",
/* pixels */
"B Y ( A 2 3 h 7 B B ] W o ; s 8 D B A '   X p q M Z ` (     7 7 B B ` `   5 7 7 B B A '   2 p 0 M V W } * O i i Z n ! W @ & j 7 ",
"B I ( A 2 3 h 7 B B ] E   ; s 8 S B A '   = 0 q N Z ` (     7 7 B B A `   5 z 7 B B A '   2 p 0 M B W } * O p i B n ! W @ & j 7 ",
"B I ( A 2 2 g h B B ] E X ; 8 8 D B A '   = 0 q N Z ` (   & 7 7 Z B A `   5 7 7 B c A A   2 a 0 B B W _ * O p i B n ! W @ > j 7 ",
"B I ( A 2 2 g h B B ] E X ; 8 8 D B A A     0 q N n ( (   & 7 7 Z B A `   5 7 7 B c A A   2 s 0 B B W _ O 2 p k B n  .Q @ > j 7 ",
"B I ( A 4 2 7 9 B G ] E :   s 7 B B ' A = o 0 7 B n ( (   & 7 7 B B ` `   5 7 7 B c ` '   2 s 7 B B W } O * 7 k L n | Q @ > 7 7 ",
"B B ( A 5 2 7 9 c n ] E : . 7 7 B B ' R = o 7 7 B n ( A % & 7 7 B B ` `   4 7 7 B c ` ' 2   s 7 B B | W O * 7 7 L I Q ! @ > 7 7 ",
"B B ( ..  2 7 9 c n A ] O . 7 7 B B ' R   o 7 7 B n ( A &   7 7 B B ` `   4 7 7 B B ' ' 2   7 7 B B A W O = 7 7 L I Q ! @ > 7 7 ",
"B B A ..  2 7 9 c B A A O . 7 7 B B T R X o 7 7 B V A A %   7 7 B B A A   4 7 7 B B  .A 2   7 7 B B A W O = 7 7 P I  .! @ > 7 7 ",
"B B ..(   2 7 9 c B A A O . 7 7 B B T R X O 7 7 B V A A     l l B B A A   4 7 7 B B  . .    7 7 B B A ` < = 7 7 P L ` !   > 7 7 ",
"B B A ( %   7 9 c B A A O . 8 7 B B / ^ +   7 7 B V A A     l l B B A A   4 7 7 B B  . .    7 7 B B A ` < = 7 7 P L  .!   > j 7 ",
"B B A ( %   7 9 c B A A O . 8 7 B B / ^ +   7 7 B B A A     l l B B A A   4 7 7 B B  .A   2 7 7 B B A A < = 7 7 P B A  .  > j 7 ",
"B B Q W     7 9 m B A A O . 8 7 B B / ^ +   7 7 B B A A     k l B B A A   4 7 7 B B A A   2 7 7 B B | A <   7 7 P B { A   > 7 7 ",
"B B Q A     7 9 c B A A O . 8 7 B B / ~ +   7 7 B B A A     k l B B A A     7 7 G B A A   2 7 7 B B | A <   7 7 P B { A >   7 7 ",
"J B Q A     7 9 c B A A O . 8 7 x M A ~ +   7 7 B B A A     k l B B A A     7 7 G G A A     7 t B B | A <   7 7 B H A A >   7 7 ",
"I B A W     7 9 c B A A   . 7 7 x M A ~ +   7 7 B B A A     k l B B A A     7 7 G G A A     7 t B K A A <   7 7 B B A A > : 7 7 ",
"H J A W     7 9 c B A A   . 7 8 B M A ~ O   7 7 B B A A     k l B B A A     7 7 B G A A     7 t B K A A <   7 7 B B A A >   7 7 ",
"H J A W     7 9 c B A A     7 7 B M A ~ O   7 7 B B A A     k l B B A A     7 7 B G A A     7 t B K A A <   7 7 I B A ] > > 7 7 ",
"B B X.W     0 9 c B A A     7 7 B M A ~ O   7 7 B B A A     k l B B A A     7 7 B G A A     7 t V B A A <   7 7 B I A ] > > 7 7 ",
"B B X.A     0 9 c B A A     7 7 B M A ~ O   7 7 B B A A     i l B B A A     7 7 G B A A     7 t V B A A   < 7 7 B I ] ] >   7 7 ",
"B J X.A     0 9 c B A A     7 7 B M A ~ O   7 7 B B A A     7 l B B A R     7 7 G B [ A     7 t V B A A     7 7 B I ] A >   7 7 ",
"B J Q A :   0 9 c B A A     7 7 B B A ~ O   7 7 C B A A     i 7 B B A R X   7 7 B B [ A     7 t V B A A   2 7 7 B I ] A >   l l ",
"S J Q A :   0 9 c B A A     7 7 B B A ~ O   7 7 C B A A     i 7 B B A R X   7 7 B B [ {     7 t V B Q A   @ 7 7 B I A A     l l ",
"S J Q A :   0 9 c B A A     7 7 B M A ~ O   7 7 C B A A     i 7 B B R A X   7 7 B B [ {     7 t V B Q A   @ 7 j B B ] A     j s ",
"S B Q A : : 0 9 c B A A     7 7 B M A ~     7 7 C B A A     k 7 B B A A X   0 7 B B A { ,   7 t B V Q A   @ 7 j B B ] A     j s ",
"D B A [ ; : 0 9 c B A A     7 7 B M A !     7 7 Z B A A     k 7 B B A A X   0 7 B B A { ,   7 7 V n Q A   @ 7 j B B ] A     h p ",
"D B } ] ; : 0 9 B B A A     7 7 B M ~ A O   7 7 Z B ` `     k 7 B B A A X   0 7 B B A [ ,   7 7 n V W A   @ 7 j B B ] A     p p ",
"D B { ] ; : 0 9 B B A A     7 7 B M ~ A O   7 7 Z B ` `     k 7 B B A A X   0 7 B G A [ ,   7 7 n C W A   @ 7 j B B ] A 6   p p ",
"D B { ] ; : 9 s B B A A     7 7 B B ~ A O   7 7 Z B ` ` *   k 7 B B A A 3   s 7 B G A A ,   7 7 n n A A   @ 7 j B B ] A 6   p p ",
"D K A ] ; : 9 s B B A A     7 7 B B A A O   7 7 Z B ` ` *   k 7 B B A A 3   7 7 B G A A , 1 p 7 V n A A   $ 7 t B C ] A 6 * i p ",
"D K A ] ; : 9 s x B T A     7 7 B B A A O   7 7 Z B ` ` *   k 7 Z B A A 3   s 7 B G A A , 1 i 7 B n } A #   e r V V ] ) * * i p ",
"D U | ] = o 9 s x x T A   - 7 7 B B A A     7 7 Z B ` A *   7 7 Z B A A     u 0 B G | A , 2 7 7 B n } A 3   7 e V V ( ) * * i p ",
"D I | ' = o s s x x A A   - 7 7 Z B A A     7 7 B B ` ` *   7 7 Z B A A     a 0 B B E A   2 t 7 B n ' A 3   7 r B B X...* * i p ",
"L I | ' = o s s x x A A     7 7 B B A A     7 7 B Z A ` *   7 7 Z B A A     7 0 B B E A   2 t 7 B C Q A 3   7 j B B X...* * i p ",
"L Y A ' = o s s x x A A     7 7 B B A A     7 7 B Z A ` *   7 7 B B A A     7 u B B A A     w 7 V B Q A O   7 j B B o...  * k f ",
"I Y  .' * o s s x D A A     9 7 B B A A     7 7 B Z A ` *   7 7 B B A A     h p B B A A     w g B B Q A O   7 j B B o.(   2 k j ",
"I Y | ' o   s s x S A A     9 0 B B A A     7 7 B Z ` A *   7 7 Z B A A     h 7 v B | A     w p B B Q A O   7 j B B ..(   2 j j ",
"I L | ' o X s 8 x D ' A   = 9 0 B B A A     7 7 B B ` A *   7 7 B Z A A     7 7 b b A A     q p B B Q A O   7 7 B B ..(   2 g j ",
"I L A ' o X s 8 x D ' A   = 9 0 B B A A     t 7 B B ` ! *   7 7 B Z A A     7 7 b b A A *   g p B B Q A O   7 7 B B A (   2 g j ",
"L L ' ] o : 9 s D B Q '     9 0 B B A A     t 7 B M ! ! *   7 j B B A A   6 l 7 b B A A ,   7 p B B Q A O   7 7 Y B A A     g j ",
"L L A A X : 9 s D B W '     9 0 B B A A     t 7 B M ^ ! *   7 j B B A A   6 l s b B | A O   7 7 B B Q Q     d 7 Y B A A   5 7 j ",
"M B A A : O 9 a x B W '     9 0 B B Q A     7 7 B M ^ ! *   7 j B B A A   6 l 7 G B | A     7 u B B ^ Q     d 7 G B A A 5   7 j ",
"M B A A   O 9 s x B W T X   9 0 B B ( A     7 7 B M ^ !     7 j B B A  .  5 l 7 B B | A     7 u B B '  .    d 7 D B A A 5   h j ",
"M B A A   O 9 8 x B W T X   9 0 B B ( A     7 7 B M ~ !     j 7 B B A  .2 5 l 7 B B | A     7 d B B ` `     d 7 B B A ..%   h j ",
"m B A A   O 9 8 B B W A     9 0 B B A A     7 7 M B ~ !     j 7 B B A  .2 5 l 7 G B | A   < 7 d G B ` A     t 7 B B A A % % 7 7 ",
"B B A A   O 9 8 B B W A     9 0 B B A A     7 7 M B ~ !     j 7 B B A  .  5 l 7 G B | |   < 7 d G B { A     t 7 B B A A % % 7 7 ",
"B B A A   O 9 8 B B W A     9 0 B B A A     7 7 M B ~ Q     j 7 B B A A   5 l 7 B B | A   < 7 d G K { {     t 7 D B A A     7 7 ",
"B B ] A   O 9 8 B B W A     9 0 B B A A     7 7 M B ~ Q     7 7 B B A A   5 l 7 B B | A     7 d G K { {     t 7 D B A A     7 7 ",
"I B ] A   O 9 8 B x W A   O 9 0 B B A A     7 7 M B ~ Q     7 7 B B A A   5 l 7 B B | A     7 d G K { A   > t 7 D B Q !     7 7 ",
"B G ] A     8 7 x x A W   O 9 0 B B A A     7 7 M B ~ Q     7 7 B B A A   * l 7 B B A A   < 7 d G K A A   > t 7 P B Q !   , 7 7 ",
"B G ] A     9 7 x B A W   O 9 0 B B A A     7 7 M B ~ Q     t 7 B B A A   * l 7 B B R A     7 7 B G A A   > t 7 I B Q !   , 7 7 ",
"B G A A     7 7 B B A W   o 9 0 B B A A     7 7 M B ~ Q     y t B B A A * * l 7 B B R R     7 7 B G A A   > t 7 B B Q ! 2 , 7 7 ",
"B G A A     7 7 B B A W   o 9 0 B B A A     7 7 M B ~ Q     u t B B A A * * l 7 B B R R     7 7 B G { A   > t 7 B n ~  .@ 3 7 7 ",
"B G A A 3 4 7 7 B B A W   o 9 0 B B A A     7 7 M B ~ Q     u t B B A A * * z 7 B c  .R     7 7 B B { A   > 7 7 B n ~ A @ , 7 7 ",
"B G A A 3 4 7 7 B B A W   o 9 0 B B A A     7 7 M B ~ Q     u t B B A A * 5 z 7 B c  .R   o 0 7 B B { {   > 7 7 B B ! A @ , 7 7 ",
"B G A A 3 2 7 7 B B A W   o 9 0 B B A A     7 7 M M ! Q     7 u B B ` A * 5 z 7 B c A R   X 0 7 B B { }   > 7 7 I B ! A @ , 7 7 ",
"B G A A 3 2 7 7 B B A W   o 9 7 B B A A     7 7 M M ! Q     7 7 B Z A A * 5 z 7 B c A R   X 0 7 B B [ }     7 7 I B ! A @ , 7 7 ",
"B G A ..3 2 7 7 B B ] W   o 9 7 B B A A     7 7 M M Q Q     7 7 B B A ` * 5 7 7 B c A R - X 0 7 B B [ }     7 7 F B ! A @ , 7 7 ",
"B G A ..3 2 7 7 B B ] W   X s 7 B B A A     7 0 Z M ` Q     t 7 B B A ` * 5 7 7 B c A  .X ; 0 7 B B [ }     7 7 D B W A @ , j 7 ",
"B B A ..2 2 7 7 B B ] W   X s 7 B B A A   - 7 0 Z M ` Q     t 7 B B A ` * 5 7 7 B c A  .X ; 0 7 B B A } 1 = 7 7 S B W A @ , j 7 ",
"B B ..A 2 2 7 7 B B ] W   X s 8 B B A A   - 7 0 Z M ` Q     t 7 B B A `   5 7 7 B B A  .X ; 0 7 B B A } 1 * 7 p S B W A @ - j 7 ",
"B B ..A 2 2 7 7 B B ] W o X s 8 x B A A   - 7 0 Z M ` Q     7 7 B B A `   5 7 7 B B A  .X * 0 7 B B A } 2   7 p S B W  .@ - j 7 ",
"B B ..A 2 2 7 7 B B ] W o ; s 8 x B A A   - 7 p Z M ` (     7 7 B B ` `   5 7 7 B B A  .X - 0 7 B B W } 2 & 7 p S B W  .@ * s 7 ",
"B B ..A 2 3 7 7 B B ] W o ; s 8 x B A A   = 7 p M Z ` (     7 7 B B ` `   5 7 7 B B A ` X   0 7 B B W } 2 & i i Z B W  .@ & s 7 ",
"B Y ..A 2 3 7 7 B B ] W o ; s 8 x B A '   = p q M Z ` (     7 7 B B ` `   5 7 7 B B A ` -   u 7 M V W } * O i i Z n ! W @ & j 7 "
};
