/* XPM */
static char *result[] = {
/* columns rows colors chars-per-pixel */
"64 64 10 1 ",
"  c gray21",
". c #373737",
"X c gray22",
"o c #393939",
"O c #3F3F3F",
"+ c #494949",
"@ c gray30",
"# c #6D6D6D",
"$ c gray59",
"% c #A4A4A4",
/* pixels */
"    ooooooooooooooooooooooooooooooooXXXXXXXXX                   ",
"     ooooooooooooooooooooooooooooooooXXXXXXXX                   ",
" @@@@@@@@@@@@@@@@@@oo#$$%%%%%$#..@@@@@@@@@@@@@@@@@@  #$$%%%%%$# ",
" @@@@########@@@@@@oo##$$$%%$$#..@@@@########@@@@@@  ##$$$%%$$# ",
" @@@############@@O..##$$$$$$##..@@@############@@O  ##$$$$$$## ",
" O@##############OO..###$$$$###..O@##############OO  ###$$$$### ",
" OOO############OOO..####$$$###..OOO############OOO  ####$$$### ",
" OOOOO########OOOOO..##########..OOOOO########OOOOO  ########## ",
"                ...............................                 ",
"                 ...............................                ",
"+  #######++++O  +###$#$$$$$#$##+..#######++++O..+###$#$$$$$#$##",
"+  ######+++++O  +#######$$$####+..######+++++O..+#######$$$####",
"+  ###+++++++OO  ++############++..###+++++++OO..++############+",
"+  #++++++++OOO  +++##########+++..#++++++++OOO..+++##########++",
"+  O++++++OOOOO .++++########++++..O++++++OOOOO..++++########+++",
"+  OOOOOOOOOOOO.X++++++++++++++++..OOOOOOOOOOOO..+++++++++++++++",
"  XX          .XXXXXX.................................          ",
"XoXXXX      .XXXXXXXX..................................      ...",
"%%%%%%%XX%%%%%%%%%%%%%#..############$$..%%%%%%%%%%%%%#. %%%$$%%",
"$$%%%%%XX##%%%%%######+..######$$$$$$$$..##%%%%%######+..%%$$$$$",
"$$$$$%%XX+###%%%%%%##++..####$$$$$$$$$%..+###%%%%%%##++..%#$$$$$",
"$$$$$$%XX++#########+++..%#$$$$$$$$$$%%..++#########+++..####$$$",
"$$$$$$$XX+++########+++..%%$$$$$$$%%%%%..+++########+++..######$",
"#####$$XX++++######++++..%%%$$%%%%%%%%%..++++######++++..#######",
".X......XXXXXXXXXXXXXX..........................................",
".X.......XXXXXXXXXXXXX..........................................",
"OX.%%%%%%%%%%XX##########+++++++O..%%%%%%%%%%..##########+++++++",
"OX.$$%%%%%%$$.X######++++++++++OO..$$%%%%%%$$..######++++++++++O",
"OXX#$$%%%%$$#..####+++++++++++OOO..#$$%%%%$$#..####+++++++++++OO",
"OXX##$$$$$$##..##++++++++++++OOOO..##$$$$$$##X.##++++++++++++OOO",
"OXX####$$$###..OOOOOOO++++++OOOOO..####$$$###XXOOOOOOO++++++OOOO",
"OXX##$$$$$$##..OOOOOOOOOOOOOOOOOO..##$$$$$$##XXOOOOOOOOOOOOOOOOO",
"XXXX......................................XXXXXX...............X",
"XXXoo.......................................XXXX...............X",
"@@@@@@@@@@@@@@@@@..#$$%%%%%$#..@@@@@@@@@@@@@@@@@@..#$$%%%%%$#.X@",
"@@@########@@@@@@..##$$$%%$$#..@@@@########@@@@@@X.##$$$%%$$#XX@",
"@@############@@O..##$$$$$$##..@@@############@@OXX##$$$$$$##XX@",
"@##############OO..###$$$$###..O@##############OOXX###$$$$###XXO",
"OO############OOO..####$$$###..OOO############OOO..####$$$###XXO",
"OOOO########OOOOO..##########..OOOOO########OOOOO..##########XXO",
"XXXoooooooooo........................................XXXXXXXXXXX",
"XXXooooooooooooo.......................................XXXXXXXXX",
"X#######++++Ooo+###$#$$$$$#$##+  #######++++O..+###$#$$$$$#$##+X",
"X######+++++Ooo+#######$$$####+  ######+++++O..+#######$$$####+X",
"X###+++++++OOoo++############++  ###+++++++OO..++############++X",
"X#++++++++OOOoo+++##########+++  #++++++++OOO..+++##########+++X",
"XO++++++OOOOOoo++++########++++X O++++++OOOOO  ++++########++++X",
"XOOOOOOOOOOOOoo++++++++++++++++XXOOOOOOOOOOOO  ++++++++++++++++X",
"XXXoooooooooooooooooooooooooXXXXXX               ..........XXXXX",
"XXXoooooooooooooXoooooooooooXXXXXXX                ........XXXXX",
"%%%%%oo%%%%%%%%%%%%%#oo%%%$$%%%%%%%%%  %%%%%%%%%%%%%#..%%%$$%%%%",
"%%%%%oo##%%%%%######+oo%%$$$$$$$%%%%%  ##%%%%%######+ .%%$$$$$$$",
"$$$%%oo+###%%%%%%##++oo%#$$$$$$$$$$%%  +###%%%%%%##++  %#$$$$$$$",
"$$$$%oo++#########+++oo####$$$$$$$$$%  ++#########+++  ####$$$$$",
"$$$$$oo+++########+++oo######$$$$$$$$  +++########+++  ######$$$",
"###$$oo++++######++++oo############$$  ++++######++++  #########",
"XoooooooooooooooooooooooooooooXXXXXXX                       XXXX",
"XoooooooooooooooooooooooooooooXXXXXXXX                      XXXX",
"o%%%%%%%%%%oo##########+++++++OXX%%%%%%%%%%  ##########+++++++OX",
"o$$%%%%%%$$oo######++++++++++OOXX$$%%%%%%$$  ######++++++++++OOX",
"o#$$%%%%$$#oo####+++++++++++OOOoX#$$%%%%$$#  ####+++++++++++OOOo",
"o##$$$$$$##oo##++++++++++++OOOOoo##$$$$$$##  ##++++++++++++OOOO ",
" ####$$$###ooOOOOOOO++++++OOOOOoo####$$$###  OOOOOOO++++++OOOOO ",
" ##$$$$$$##ooOOOOOOOOOOOOOOOOOOoo##$$$$$$##X OOOOOOOOOOOOOOOOOO "
};
