/* XPM */
static char *result[] = {
/* columns rows colors chars-per-pixel */
"64 64 189 2 ",
"   c #7C2BDF",
".  c #5C3FE8",
"X  c #7D2EE1",
"o  c #603EE8",
"O  c #6B3EEB",
"+  c #7C3AEA",
"@  c #3B46DA",
"#  c #3749DA",
"$  c #394ADC",
"%  c #267DDA",
"&  c #3F59E7",
"*  c #3275E4",
"=  c #337CE5",
"-  c #3F7FEE",
";  c #4F42E4",
":  c #4B4BE7",
">  c #4D4DE9",
",  c #5940E7",
"<  c #4853E9",
"1  c #5052ED",
"2  c #5950EF",
"3  c #5954F1",
"4  c #5659F2",
"5  c #5B5DF5",
"6  c #7B42EF",
"7  c #7E45F1",
"8  c #764EF5",
"9  c #7D4CF4",
"0  c #7C53F7",
"q  c #7D56F8",
"w  c #7B5CFA",
"e  c #5C6DF8",
"r  c #467CF1",
"t  c #4A7BF3",
"y  c #547CF7",
"u  c #5C7BFA",
"i  c #6566FA",
"p  c #7661FB",
"a  c #7E64FC",
"s  c #776BFD",
"d  c #7C6CFD",
"f  c #6A79FD",
"g  c #7474FE",
"h  c #7B74FE",
"j  c #747CFE",
"k  c #7C7CFF",
"l  c #812EE1",
"z  c #823BEB",
"x  c #8242EF",
"c  c #8941EE",
"v  c #8246F1",
"b  c #8945F1",
"n  c #824CF4",
"m  c #8353F6",
"M  c #8A53F7",
"N  c #8356F8",
"B  c #8857F8",
"V  c #825CFA",
"C  c #8858F9",
"Z  c #9B5AF6",
"A  c #9D5DF7",
"S  c #A74FEF",
"D  c #AA4EED",
"F  c #B247E6",
"G  c #B449E6",
"H  c #B24CE9",
"J  c #AB52EE",
"K  c #B352EB",
"L  c #A553F1",
"P  c #A955F1",
"I  c #A45DF5",
"U  c #AB5BF2",
"Y  c #8264FC",
"T  c #8A64FC",
"R  c #826AFD",
"E  c #9F61F7",
"W  c #9C63F9",
"Q  c #9768FA",
"!  c #936BFC",
"~  c #8474FE",
"^  c #8B74FE",
"/  c #837CFF",
"(  c #897CFE",
")  c #9375FD",
"_  c #9B73FC",
"`  c #957DFD",
"'  c #9C7AFC",
"]  c #A461F6",
"[  c #A860F4",
"{  c #AF76F5",
"}  c #AD7FF7",
"|  c #A67CF9",
" . c #B676F2",
".. c #B976F1",
"X. c #B47BF3",
"o. c #B97BF1",
"O. c #CA63E3",
"+. c #C177ED",
"@. c #2682DA",
"#. c #2886DC",
"$. c #3384E5",
"%. c #3489E6",
"&. c #4682F1",
"*. c #4A83F3",
"=. c #4A89F3",
"-. c #5D84FA",
";. c #6D84FE",
":. c #7483FE",
">. c #7C83FF",
",. c #7489FE",
"<. c #7C8AFF",
"1. c #7E9CFC",
"2. c #4CB6E7",
"3. c #4EB9E6",
"4. c #5FA2F6",
"5. c #7DBDEF",
"6. c #7DAEF6",
"7. c #7EA3FA",
"8. c #7BA9F8",
"9. c #7DB2F4",
"0. c #7CBAF1",
"q. c #37CBC8",
"w. c #3FC6D4",
"e. c #42D1CC",
"r. c #54CFD9",
"t. c #7ED4DF",
"y. c #7EDAD9",
"u. c #77CFE2",
"i. c #7CCEE4",
"p. c #7DC2EC",
"a. c #7CC8E8",
"s. c #7CD1E1",
"d. c #8283FF",
"f. c #8983FF",
"g. c #858BFE",
"h. c #8A8AFE",
"j. c #9382FD",
"k. c #9D83FC",
"l. c #9588FD",
"z. c #9B89FC",
"x. c #849FFB",
"c. c #8B9EFB",
"v. c #979CFA",
"b. c #BC80EF",
"n. c #BF88EE",
"m. c #AB83F7",
"M. c #A98EF7",
"N. c #A483F9",
"B. c #AA84F8",
"V. c #B582F3",
"C. c #B983F1",
"Z. c #B58AF3",
"A. c #B989F1",
"S. c #85BDEF",
"D. c #88BEEE",
"F. c #9DBAED",
"G. c #83ADF7",
"H. c #88ACF7",
"J. c #81A3FA",
"K. c #85A9F8",
"L. c #9FA0F7",
"P. c #95ADF5",
"I. c #82B1F5",
"U. c #82BBF0",
"Y. c #96B0F3",
"T. c #ABABEF",
"R. c #B4A1EF",
"E. c #A2BAEB",
"W. c #BAB4E4",
"Q. c #A2A3F5",
"!. c #ACA9F0",
"~. c #C7B3DC",
"^. c #CD86E4",
"/. c #CD88E4",
"(. c #D080E3",
"). c #81DCD7",
"_. c #82DBD9",
"`. c #96D0DF",
"'. c #9CD1DE",
"]. c #BFC4D6",
"[. c #83CEE4",
"{. c #88CFE3",
"}. c #84C4EB",
"|. c #8BC5EA",
" X c #84C9E8",
".X c #90C8E7",
"XX c #98CDE1",
"oX c #83D1E1",
"OX c #88D0E2",
/* pixels */
"OXOX`.~.A.*.3.U.8.0.G.P.P.6.I.9.9.9.9.H.H.H.T.| <.@.q.y.i.XX`.oXOX_.`.~.A.*.3.0.8.0.G.Y.P.9.I.9.9.I.9.I.H.K.!.| <.@.q.y.u.XX'.OX",
"h.h.] /.A.*.*.! s s ) R >.k >.k :.k >.d.f.f.B.N.>.#.#.W Q s g.g.h.h.] /.A.=.*.! s s ! R >.k k k >.:./ d.j.f.m.N.>.#.@.W ! s g.g.",
"( m.] V.b.*.-.) :.d f.d./ / k k k k k ( ( d.D | k % $.Z :.:.( ( f.m.I X.^.*.;.! :.h d.f.d.k k k k k k ( ( d.D N.k % $.A :.:.d.( ",
"^ L | o...r o j.:.k / / / k / k k k k ~ ^ K D j h % @ ' g s ~ ^ ^ P |  . .r , f.:.k / ( / k / k k k h / ( H D f h % @ ' g h R ^ ",
"L L k .. .^ , 1 9 9 n m n n 9 q 9 9 n 9 K K k h h t $ 3 9 9 n n L L / o. .^ , 1 9 9 n n n 9 9 9 9 9 9 n K H k h h t $ 3 9 9 n n ",
"l n v G o./ f.q 0 0 N N N q q q q q m m m g.d.:.k r > l X X l l l n v G o.k f.m 0 q q N N N q w N 0 m n m g.d.:.k &.> l X X l l ",
"7 7 n v k / <.<.:.:.>.d.f.d.>.>.>./ / d.f.g.>.>.:.d.v v 7 7 v 7 7 n b v k k <.<.:.k >.g.f.d.<.>.>.d.k d.f.g.d.:.k >.v 7 7 v v 7 ",
"5.S.D.D.0.7.>.d.[.a.i.p. X}.p.p.}.}.p.0.>.f.OX0.5.5.}.U.0.0.U.0.0.S.U.D.0.7.>.d.[.a.i.p. X}.p.p.}.}.p.0.d.f.OX5.0.p.S.U.U.0.U.0.",
"0.S.D.D.F.R.z.%.e. X|..X X Xa.a. X}.|.W.Z.$.r.F.p.5.D.D.U.U.U.0.5.S.D.U.F.R.z.$.w.s.|..X[. Xa.i. X}.|.W.A.$.r.E.p.p.}.U.U.0.U.0.",
":.>.( f.k.V.z.%.$.! ^ <.g.g.1.<.g.h.^ /.Z.%.=.N.:.<.g.f.d.<.d.>.:.>.f.f.k.V.z.%.$.) ^ <.g.g.<.<.h.h.^ n.A.%.=.N.,.>.h.f.f.<.d.>.",
">.d.f.d.Z X._ = $.! :.:.f.d.>.>.f.k.j.X.V.$.*.N.:.>.f.g.g.>.<.>.:.d.( d.Z  .' = r ! :.:.f.( >.:.f.k.f.X.V.= *.N.:.>.f.g.>.g.<.>.",
"h / ^ P Z ) _ * < ) g s ~ ~ h h ~ T ` .. .= . | j k / ( d./ / k ~ / ^ P Z ) _ * & ^ g h ~ ~ h h ^ T ` +. .= , | j k ( / / k / / ",
"N N U U k ) _ t & i w w V V w w A W a X.{ f ; 5 w q m m N w N N N N U U k ) _ t & i p w V Y w a W W R X.{ f ; 5 w q B m N w N N ",
"7 n v T Y Q k.&.1 + + + z z + + z n n H X.u i v 6 6 c c x 7 7 7 7 n n T Y W k.&.> + + + z z + + + n 9 F X.f e 7 6 x x c 7 x 7 7 ",
"a R T T Y a :.>.q n 7 n n n 7 7 9 n n n :.d.a R Y V Y Y Y a w a a Y T T Y a :.>.n n 9 v n n 7 7 9 n n n >.>.a a Y V V Y Y Y a a ",
"i.oXOXOXoXs.s.s.oX[.i.i.d.d.U.0.0.G.}.I.6.6.9.G.G.K.G.k >.( _.i.s.oXOXOXoXs.s.s.oX[.i.i./ d.U.0.0.G.}.I.6.9.9.I.G.K.G.k d.d.y.a.",
"i.s.OXOXs.s.s.s.OX[.i.].^.&.2.0.K.6.I.P.9.9.9.G.H.K.{ } >.@.e.XXs.s.OXOXs.s.s.s.OX{.i.].(.&.2.0.K.G.I.Y.9.9.9.G.H.K. .| >.@.q.XX",
",.<.h.h.g.<.,.<.f.h.d.O.^.&.*.! R j R d.>.>.d.f.f.V.m.;.<.#.$.z.,.<.h.h.g.<.<.<.h.h.>.O.^.&.&.! R :.R d.d.>.d.f.f.V.m.;.g.#.%.z.",
",.<.h.h.g.<.<.>.f.h.] O.C.r e ! :.:.d.d.d.:.>.f.f.g.B.N.>.#.%.z.,.<.h.h.g.>.:.<.f.h.I O.C.*.e ! :.:.d./ >.:.d.d.f.d.B.B.>.#.%.z.",
":./ B B N q k q M U P X...u e >.j k k / k k >.( f.K J j k @.$ k.:.k B B V q k 0 M U L o...u e k j j k / k k / d.f.K J ;.:.% $ N.",
"0 P J M n 2 9 L m M / o...y 2 9 8 8 9 n 9 9 9 m K K >.j k r $ 4 0 L J n n 3 9 L n B ( o.o.y 2 q 8 9 n 9 9 9 9 m K K :.k h r $ 4 ",
"X l z z c 6   7 c v v G C.d.B w 0 0 m q 0 0 q N m h.d.:.k r : X X l c c c x X 6 c v 7 H V.f.B q q 0 0 m 0 0 0 N m g.f.:.k r > l ",
"v v b b x v 7 7 v v v 9 d.>.g.>.>.>.d.d.:.:.:.f.g.f.f.>.>./ v 7 v v b c x 7 7 7 v v n 7 >.>.g.>.:.:.d.<.:.>.>.d.h.h.d.>.k d.7 7 ",
"1.x.c.c.J.:.>.>.).s.s.s.oXoXoX[.u.0.>.( U.9.0.1.c.D.7.7.7.7.7.J.x.x.c.c.1.:.<./ ).s.s.s.oXoXoXoXs.0.>.( U.9.0.1.c.D.J.7.7.J.7.J.",
"7.J.c.c.L.j.>.% e.XXu.t.OX_.[.oXF.~.C.&.2.5.v.L.4.K.Q.8.7.7.7.7.7.x.c.c.Q.` <.% q.XXs.s.oXoXOXs.F.~.C.&.2.0.v.v.4.J.Q.7.K.7.7.1.",
"d.( j.f.A l.<.#.$.k.,.<.g.g.g.M.W Z.A.=.*.E Z :.d.V d.d.d.d.d./ d.f.f.f.A l.>.#.$.k.,.<.g.g.g.M.] Z.A.=.&.A W :.f.V >.d.d.d.d.d.",
"d.d.f.B.z.;.>.#.$.k.;.>.f.g.g.I N.V.C.*.;.A :.k / ( / h / ~ / k k d.f.B.z.;.<.#.$.z.;.>.g.f.g.[ N.V.b.&.;.E :.k / / ~ k / / k k ",
"k ( f.V N.j.k @.$ k.j j / m P P k o...r O N.h h ~ ~ ~ ~ h / k k / ( f.V k.` k @.$ k.j k / m P U k X.o.r O N.h h ~ ^ ~ ~ h h ~ k ",
"w N I [ w j j r $ 4 9 9 L L n / h o. .^ O 5 q q N V V Y V w w w w N [ I w j k &.$ 4 0 9 P L n ~ ~ o. .^ O 5 q q V V V w V w w w ",
"a Y Y f.>.:.k &.> l X X l v c v 7 H V.( f.Y p a a R a d R R a a Y Y Y g.>.:.j r : l X X l 6 c v 7 H o./ f.V a a Y Y R d R R d a ",
"k d.f.g.<.:.k d.n 7 n 7 v v v 7 9 7 d.( d.<.<.<.k d.>.g.d.>.g.d.>.d.f.g.>.>.:.d.v v v v v v n n 9 7 >.d.d.<.<.<./ >.>.g.g.d.d.d.",
"[.0.>.f.D.0.5.0.S.S.6.G.G.6.6.6.9.I.I.H.6.k >./ _._.y.y.i.OX[.[. X0.>.f.D.0.5.U.S.U.6.G.G.6.9.9.9.I.H.H.6.j <.( _.y.y.y.[.[.[.[.",
"XX~.A.*.3.0.9.5.I.Y.P.6.G.9.6.9.9.G.H.H.T.N.<.% q.y.i.`.XX_.OXoX`.~.A.&.3.U.9.p.I.P.P.6.G.6.6.6.9.G.H.H.T.N.<.@.q.y.i.`.`._.[.oX",
"I ^.A.=.*.! s d _ R / d./ / :.k k d.( d.m.k.>.#.#.E ! s g.g.h.h.A ^.A.*.*.! s s _ R d.( d.k >.k k d.( f.B.k.>.#.@.W ! s g.h.h.g.",
"I V.o.r -.! j s ( d.d./ >.>.:.>.>.( ( f.S N.k % $.Z :.k f.f.f.m.I X.o.r -.! :.d d.( d.d.d.>.>.:.k d.( f.S | k % $.A :.k ( ( f.m.",
"|  ...r o j.j k ~ / / / / k k k k / ( K D f h % @ ' g h R ~ ~ L |  ...r o ` k k ~ / / / k k k k k / ( K D f h % @ ' g h ~ ~ ^ P ",
"h .. .^ , 1 9 9 n n n n 9 9 q 9 7 n K K k g h t @ 3 0 7 n n P P k ....^ . 1 7 9 n n n 9 9 9 0 9 9 n K H >.g h t $ 3 9 9 n n P P ",
"v F o./ f.q 0 0 N N N N q q q m N m m f.d.:.k &.> l X X l l l n v G o.k d.q q 0 N N N N q q q m m m m g.d.:.k &.> X X X l l l v ",
"v v >.k <.<.>.:.>.g.f.d.>.>.>.d.>.d.g.f.d.>.:.d.n 7 7 7 v 7 7 n v v >./ >.<.:.k d.d.g.d.>.>.>.d.>.( g.f.d.>.k >.v 7 7 7 v 7 7 n ",
"D.D.0.7.>.( [.a.i.p. X}.p.p.}.}.5.0.>.f.[.5.5.5.S.U.S.0.U.0.0.0.D.D.0.7.>.d.oXa.i.p.}.}.p.p.}.|.p.0.>.f.OX5.5.5.}.U.U.U.0.0.0.U.",
"D.D.F.R.z.$.w.s.|..X X[.a.a.}.}.|.W.A.$.r.E.p.p.}.U.U.0.0.0.0.p.D.D.F.R.z.$.w.s.|.|. X Xa.a. X X|.W.A.$.r.E.p.p.D.U.U.0.U.0.0.p.",
"f.( z.V.z.%.$.) ^ <.g.g.1.<.g.h.^ /.Z.%.=.N.,.>.f.g.f.g.d.>.>.d.( d.k.V.z.%.$.) ^ <.g.g.<.<.g.g.^ n.Z.%.=.N.:.d.h.h.g.>.d.>.>.>.",
"( f.Z o.` = r ! :.k f.d.:.d.f.N.f.X.o.= *.N.:.>.g.f.d.g.g.>.>./ f.( Z X._ = - ! ;.k h.f.:.d.f.N.j.} V.= *.N.:.:.f.h.d.g.d.>.>.>.",
"/ P Z ! _ * < ^ g s ~ ~ h h / T ` ..o.= . N.j k / ( / k k k k / ^ P Z ) _ * < ( g h ~ ~ h h / T ` +. .= . B.j k / ( / k k / k / ",
"U U k ) _ t & i p w V V a w W ] a  . .f ; 5 0 0 N N N N N V V V P U k ) _ t & i p w V V w a A W a X. .f ; 5 w 0 m N m w N N w V ",
"v T Y Q k.&.1 + + + z z + + + n 9 H X.u e 7 7 6 z v x v 7 7 7 v b R Y Q k.&.1 z + + z z + + z n 7 H X.u i 7 7 6 c c x 7 7 7 v v ",
"T T Y a :.>.n 9 7 n n n 9 9 9 n n n >.>.a R Y V V T Y Y w a a Y T T T a >.>.9 9 7 n n n 7 7 9 n n n :.>.a R Y V V T R a w a a Y ",
"OXOXOXs.s.s.oX[.i.i./ d.0.9.0.6.}.I.6.6.9.G.G.K.G.k d.d.y.a.s.oXOXOXoXs.s.s.s.OXi.s.k d.U.0.0.6.D.I.6.6.9.G.G.K.6.k >.( _.i.i.oX",
"OXoXoXs.t.t.[._. X].(.&.2.0.K.6.I.Y.9.9.9.G.H.K.{ } >.@.e.XXs.s.{._.i.t.i.t.OXOX[.].(.&.2.0.K.6.I.Y.9.9.6.G.H.K.X.} >.@.e.XXi.s.",
"h.h.g.<.<.<.d.f.>.O.^.*.&.! R :.R k >.>.d.f.f.C.m.;.<.#.$.z.,.<.h.g.g.<.,.<.g.j.>.O.^.&.r ! R :.R d.d.:.d.f.f.o.B.;.<.#.%.k.,.<.",
"h.h.g.<.>.<.f.f.I O.C.r e ! :.k d.d.>.:.>.d.f.d.B.N.>.#.%.z.,.>.h.f.g.<.>.>.f.h.I O.V.&.i ) :.:.d.d.>.>.d.d.f.f.B.N.<.#.%.z.,.g.",
"B B V q k q B U P X.o.u e >.j j / / k k d.( f.K J ;.k @.$ k.j k B C N N k q B U U o. .u e >.j j k / k k >.d.f.K J f k @.$ k.j k ",
"J M n 2 9 L m M / o.o.y 2 9 9 8 n n 9 9 9 m K K :.k h t # 4 0 L J M n 2 0 L n M / o.o.y 2 9 8 8 n n 9 9 9 m K K :.j h t $ 4 0 Z ",
"c z z v X 7 c v v G V.f.B w q 0 q q 0 0 q N B g.d.j k r : X X l c c z x   6 6 v 7 H o.d.B w 0 0 n q 0 0 0 N N h.d.:.k r : l   l ",
"b c c 7 7 7 x v n 7 >.>.d.<.>.>.>.g.>.:.:.f.f.f.d.>.>.d.7 7 7 v b c v v 7 7 x v n 9 >.d.<.d.>.k <.d.>.k :.d.h.f.f.>.>.d.7 7 x x ",
"c.c.J.>.>.>.y.i.s.s.oXoXoXi.u.0.k ( U.0.0.1.c.}.J.7.J.J.7.J.J.J.c.c.J.:.>.d.).i.t.s.oXoXoX[.i.0.k d.U.0.0.1.x.D.J.7.7.7.7.x.J.J.",
"J.c.v.k.>.@.e.XXs.s._.oXOXoXF.~.C.*.3.0.v.Q.4.J.Q.7.8.7.7.7.7.c.c.c.Q.` <.@.e.XXs.s._.OXOXs.F.~.C.&.2.0.v.L.4.K.Q.7.7.7.7.7.7.J.",
"` f.I j.<.#.= z.,.<.g.g.g.M.W Z.A.*.&.W Q :.f.V g.d.d.d.d./ d.( ` f.A j.>.#.$.k.:.<.g.g.g.M.W Z.A.=.&.W Q >.f.V g.d.d.d.d./ d.( ",
"f.m.k.;.:.#.$.z.,.>.f.f.g.I N.V.C.&.;.W :.k ( ( / k / / k / k d.f.B.z.;.>.@.$.k.;.:.f.d.g.[ N.V.C.&.;.W :.k ( d.k k / / k / / ( ",
"( N k.` j % $ k.j j / q P P k  ...r O N.j h / / / / ~ / ~ k ~ / ( N k.` j @.# k.j k / m P P k o...r O | j k ~ / / / ~ / ~ k / / ",
"] [ w j j r # 3 0 0 P P m ^ ~  .../ O 5 q q m N q N N Y V a w a [ I w j j t # 4 0 0 P D m / ~  ...^ , i 0 q N N N N N V V w V Y ",
"R h.g.:.k r : X X X l c c v 7 F o./ g.Y a Y V a a a a a Y d R T T g.g.:.k r : X X X l v c c 7 F o.k g.Y a a V Y a d a a d R R Y ",
"f.f.d.>.>.d.7 6 7 7 b v v v n 7 :.:.<.g.d.f.f.g.d.<.>.>.>.d.g.f.g.f.d.>.>.>.7 7 7 7 v v v v n 7 >.:.>.g.d.f.d.g.<.<.>.d.>.>.d.g.",
"OX[.[.0.>.d.0.0.0.0.U.U.G.9.9.I.6.9.9.9.G.K.8.k >.( _.y.y.y.i.[.{.[.oX0.>./ 5.0.0.U.U.U.G.9.I.I.9.9.9.9.G.K.8.k >.( _.y.y.y.[.[."
};
