/* XPM */
static char *result[] = {
/* columns rows colors chars-per-pixel */
"64 64 5 1 ",
"  c #241E38",
". c #1C2F62",
"X c #535AB5",
"o c #7480EB",
"O c #AFA7D8",
/* pixels */
"                                                                ",
"                                                                ",
" OOOOOOOOOOOOOOOOOO  XooOOOOOoX  OOOOOOOOOOOOOOOOOO  XooOOOOOoX ",
" OOOOXXXXXXXXOOOOOO  XXoooOOooX  OOOOXXXXXXXXOOOOOO  XXoooOOooX ",
" OOOXXXXXXXXXXXXOO.  XXooooooXX  OOOXXXXXXXXXXXXOO.  XXooooooXX ",
" .OXXXXXXXXXXXXXX..  XXXooooXXX  .OXXXXXXXXXXXXXX..  XXXooooXXX ",
" ...XXXXXXXXXXXX...  XXXXoooXXX  ...XXXXXXXXXXXX...  XXXXoooXXX ",
" .....XXXXXXXX.....  XXXXXXXXXX  .....XXXXXXXX.....  XXXXXXXXXX ",
"                                                                ",
"                                                                ",
"X  XXXXXXXXXXX.  XXXXoXoooooXoXXX  XXXXXXXXXXX.  XXXXoXoooooXoXX",
"X  XXXXXXXXXXX.  XXXXXXXXoooXXXXX  XXXXXXXXXXX.  XXXXXXXXoooXXXX",
"X  XXXXXXXXXX..  XXXXXXXXXXXXXXXX  XXXXXXXXXX..  XXXXXXXXXXXXXXX",
"X  XXXXXXXXX...  XXXXXXXXXXXXXXXX  XXXXXXXXX...  XXXXXXXXXXXXXXX",
"X  .XXXXXX.....  XXXXXXXXXXXXXXXX  .XXXXXX.....  XXXXXXXXXXXXXXX",
"X  ............  XXXXXXXXXXXXXXXX  ............  XXXXXXXXXXXXXXX",
"                                                                ",
"                                                                ",
"OOOOOOO  OOOOOOOOOOOOOX  XXXXXXXXXXXXoo  OOOOOOOOOOOOOX  OOOooOO",
"ooOOOOO  XXOOOOOXXXXXXX  XXXXXXoooooooo  XXOOOOOXXXXXXX  OOooooo",
"oooooOO  XXXXOOOOOOXXXX  XXXXoooooooooO  XXXXOOOOOOXXXX  OXooooo",
"ooooooO  XXXXXXXXXXXXXX  OXooooooooooOO  XXXXXXXXXXXXXX  XXXXooo",
"ooooooo  XXXXXXXXXXXXXX  OOoooooooOOOOO  XXXXXXXXXXXXXX  XXXXXXo",
"XXXXXoo  XXXXXXXXXXXXXX  OOOooOOOOOOOOO  XXXXXXXXXXXXXX  XXXXXXX",
"                                                                ",
"                                                                ",
".  OOOOOOOOOO  XXXXXXXXXXXXXXXXX.  OOOOOOOOOO  XXXXXXXXXXXXXXXXX",
".  ooOOOOOOoo  XXXXXXXXXXXXXXXX..  ooOOOOOOoo  XXXXXXXXXXXXXXXX.",
".  XooOOOOooX  XXXXXXXXXXXXXXX...  XooOOOOooX  XXXXXXXXXXXXXXX..",
".  XXooooooXX  XXXXXXXXXXXXXX....  XXooooooXX  XXXXXXXXXXXXXX...",
".  XXXXoooXXX  .......XXXXXX.....  XXXXoooXXX  .......XXXXXX....",
".  XXooooooXX  ..................  XXooooooXX  .................",
"                                                                ",
"                                                                ",
"OOOOOOOOOOOOOOOOO  XooOOOOOoX  OOOOOOOOOOOOOOOOOO  XooOOOOOoX  O",
"OOOXXXXXXXXOOOOOO  XXoooOOooX  OOOOXXXXXXXXOOOOOO  XXoooOOooX  O",
"OOXXXXXXXXXXXXOO.  XXooooooXX  OOOXXXXXXXXXXXXOO.  XXooooooXX  O",
"OXXXXXXXXXXXXXX..  XXXooooXXX  .OXXXXXXXXXXXXXX..  XXXooooXXX  .",
"..XXXXXXXXXXXX...  XXXXoooXXX  ...XXXXXXXXXXXX...  XXXXoooXXX  .",
"....XXXXXXXX.....  XXXXXXXXXX  .....XXXXXXXX.....  XXXXXXXXXX  .",
"                                                                ",
"                                                                ",
" XXXXXXXXXXX.  XXXXoXoooooXoXXX  XXXXXXXXXXX.  XXXXoXoooooXoXXX ",
" XXXXXXXXXXX.  XXXXXXXXoooXXXXX  XXXXXXXXXXX.  XXXXXXXXoooXXXXX ",
" XXXXXXXXXX..  XXXXXXXXXXXXXXXX  XXXXXXXXXX..  XXXXXXXXXXXXXXXX ",
" XXXXXXXXX...  XXXXXXXXXXXXXXXX  XXXXXXXXX...  XXXXXXXXXXXXXXXX ",
" .XXXXXX.....  XXXXXXXXXXXXXXXX  .XXXXXX.....  XXXXXXXXXXXXXXXX ",
" ............  XXXXXXXXXXXXXXXX  ............  XXXXXXXXXXXXXXXX ",
"                                                                ",
"                                                                ",
"OOOOO  OOOOOOOOOOOOOX  OOOooOOOOOOOOO  OOOOOOOOOOOOOX  OOOooOOOO",
"OOOOO  XXOOOOOXXXXXXX  OOoooooooOOOOO  XXOOOOOXXXXXXX  OOooooooo",
"oooOO  XXXXOOOOOOXXXX  OXooooooooooOO  XXXXOOOOOOXXXX  OXooooooo",
"ooooO  XXXXXXXXXXXXXX  XXXXoooooooooO  XXXXXXXXXXXXXX  XXXXooooo",
"ooooo  XXXXXXXXXXXXXX  XXXXXXoooooooo  XXXXXXXXXXXXXX  XXXXXXooo",
"XXXoo  XXXXXXXXXXXXXX  XXXXXXXXXXXXoo  XXXXXXXXXXXXXX  XXXXXXXXX",
"                                                                ",
"                                                                ",
" OOOOOOOOOO  XXXXXXXXXXXXXXXXX.  OOOOOOOOOO  XXXXXXXXXXXXXXXXX. ",
" ooOOOOOOoo  XXXXXXXXXXXXXXXX..  ooOOOOOOoo  XXXXXXXXXXXXXXXX.. ",
" XooOOOOooX  XXXXXXXXXXXXXXX...  XooOOOOooX  XXXXXXXXXXXXXXX... ",
" XXooooooXX  XXXXXXXXXXXXXX....  XXooooooXX  XXXXXXXXXXXXXX.... ",
" XXXXoooXXX  .......XXXXXX.....  XXXXoooXXX  .......XXXXXX..... ",
" XXooooooXX  ..................  XXooooooXX  .................. "
};
